%TF.GenerationSoftware,KiCad,Pcbnew,(6.0.5)*%
%TF.CreationDate,2022-06-11T19:23:14+02:00*%
%TF.ProjectId,advanced,61647661-6e63-4656-942e-6b696361645f,rev?*%
%TF.SameCoordinates,Original*%
%TF.FileFunction,Copper,L1,Top*%
%TF.FilePolarity,Positive*%
%FSLAX46Y46*%
G04 Gerber Fmt 4.6, Leading zero omitted, Abs format (unit mm)*
G04 Created by KiCad (PCBNEW (6.0.5)) date 2022-06-11 19:23:14*
%MOMM*%
%LPD*%
G01*
G04 APERTURE LIST*
%TA.AperFunction,ComponentPad*%
%ADD10R,1.700000X1.700000*%
%TD*%
%TA.AperFunction,ComponentPad*%
%ADD11O,1.700000X1.700000*%
%TD*%
%TA.AperFunction,ComponentPad*%
%ADD12C,1.600000*%
%TD*%
%TA.AperFunction,ComponentPad*%
%ADD13O,1.600000X1.600000*%
%TD*%
%TA.AperFunction,ComponentPad*%
%ADD14R,1.600000X1.600000*%
%TD*%
%TA.AperFunction,ComponentPad*%
%ADD15C,2.000000*%
%TD*%
%TA.AperFunction,ComponentPad*%
%ADD16R,2.000000X2.000000*%
%TD*%
%TA.AperFunction,ComponentPad*%
%ADD17O,2.000000X2.000000*%
%TD*%
%TA.AperFunction,ComponentPad*%
%ADD18R,1.800000X1.800000*%
%TD*%
%TA.AperFunction,ComponentPad*%
%ADD19C,1.800000*%
%TD*%
%TA.AperFunction,ComponentPad*%
%ADD20C,2.340000*%
%TD*%
%TA.AperFunction,Conductor*%
%ADD21C,0.200000*%
%TD*%
%TA.AperFunction,Conductor*%
%ADD22C,0.250000*%
%TD*%
G04 APERTURE END LIST*
D10*
%TO.P, ,1*%
%TO.N,N/C*%
X247015000Y-82550000D03*
%TD*%
%TO.P, ,1*%
%TO.N,N/C*%
X208280000Y-81915000D03*
%TD*%
%TO.P, ,1*%
%TO.N,N/C*%
X162560000Y-120650000D03*
%TD*%
%TO.P,REF\u002A\u002A,1*%
%TO.N,N/C*%
X189890000Y-154280000D03*
D11*
%TO.P,REF\u002A\u002A,2*%
X192430000Y-154280000D03*
%TO.P,REF\u002A\u002A,3*%
X194970000Y-154280000D03*
%TO.P,REF\u002A\u002A,4*%
X197510000Y-154280000D03*
%TO.P,REF\u002A\u002A,5*%
X200050000Y-154280000D03*
%TO.P,REF\u002A\u002A,6*%
X202590000Y-154280000D03*
%TD*%
D10*
%TO.P, ,1*%
%TO.N,N/C*%
X247015000Y-72390000D03*
%TD*%
%TO.P, ,1*%
%TO.N,N/C*%
X179070000Y-107950000D03*
%TD*%
D12*
%TO.P,R1,1*%
%TO.N,Net-(R1-Pad1)*%
X119888000Y-102235000D03*
D13*
%TO.P,R1,2*%
%TO.N,Net-(R1-Pad2)*%
X119888000Y-117475000D03*
%TD*%
D10*
%TO.P, ,1*%
%TO.N,N/C*%
X167005000Y-149860000D03*
%TD*%
%TO.P, ,1*%
%TO.N,N/C*%
X235585000Y-84455000D03*
%TD*%
%TO.P,REF\u002A\u002A,1*%
%TO.N,N/C*%
X133350000Y-56515000D03*
D11*
%TO.P,REF\u002A\u002A,2*%
X135890000Y-56515000D03*
%TO.P,REF\u002A\u002A,3*%
X138430000Y-56515000D03*
%TO.P,REF\u002A\u002A,4*%
X140970000Y-56515000D03*
%TO.P,REF\u002A\u002A,5*%
X143510000Y-56515000D03*
%TO.P,REF\u002A\u002A,6*%
X146050000Y-56515000D03*
%TD*%
D10*
%TO.P, ,1*%
%TO.N,N/C*%
X186670000Y-83820000D03*
%TD*%
%TO.P,REF\u002A\u002A,1*%
%TO.N,N/C*%
X125730000Y-142875000D03*
D11*
%TO.P,REF\u002A\u002A,2*%
X128270000Y-142875000D03*
%TO.P,REF\u002A\u002A,3*%
X130810000Y-142875000D03*
%TO.P,REF\u002A\u002A,4*%
X133350000Y-142875000D03*
%TO.P,REF\u002A\u002A,5*%
X135890000Y-142875000D03*
%TO.P,REF\u002A\u002A,6*%
X138430000Y-142875000D03*
%TO.P,REF\u002A\u002A,7*%
X140970000Y-142875000D03*
%TD*%
D14*
%TO.P,U3,1,~{RESET}/PB5*%
%TO.N,Net-(R9-Pad1)*%
X158125000Y-66685000D03*
D13*
%TO.P,U3,2,PB3*%
%TO.N,Net-(D2-Pad2)*%
X158125000Y-69225000D03*
%TO.P,U3,3,PB4*%
%TO.N,Net-(C2-Pad1)*%
X158125000Y-71765000D03*
%TO.P,U3,4,GND*%
%TO.N,Earth*%
X158125000Y-74305000D03*
%TO.P,U3,5,PB0*%
%TO.N,Net-(C4-Pad2)*%
X165745000Y-74305000D03*
%TO.P,U3,6,PB1*%
%TO.N,unconnected-(U3-Pad6)*%
X165745000Y-71765000D03*
%TO.P,U3,7,PB2*%
%TO.N,unconnected-(U3-Pad7)*%
X165745000Y-69225000D03*
%TO.P,U3,8,VCC*%
%TO.N,+5V*%
X165745000Y-66685000D03*
%TD*%
D12*
%TO.P,R9,1*%
%TO.N,Net-(R9-Pad1)*%
X160655000Y-107950000D03*
D13*
%TO.P,R9,2*%
%TO.N,Net-(C6-Pad1)*%
X175895000Y-107950000D03*
%TD*%
D10*
%TO.P,REF\u002A\u002A,1*%
%TO.N,N/C*%
X221615000Y-71755000D03*
D11*
%TO.P,REF\u002A\u002A,2*%
X221615000Y-74295000D03*
%TO.P,REF\u002A\u002A,3*%
X221615000Y-76835000D03*
%TD*%
D10*
%TO.P, ,1*%
%TO.N,N/C*%
X168910000Y-66675000D03*
%TD*%
%TO.P, ,1*%
%TO.N,N/C*%
X235585000Y-113665000D03*
%TD*%
%TO.P, ,1*%
%TO.N,N/C*%
X124460000Y-120650000D03*
%TD*%
%TO.P, ,1*%
%TO.N,N/C*%
X193675001Y-116204999D03*
%TD*%
%TO.P,REF\u002A\u002A,1*%
%TO.N,N/C*%
X162560000Y-125730000D03*
D11*
%TO.P,REF\u002A\u002A,2*%
X162560000Y-128270000D03*
%TD*%
D15*
%TO.P,RESET,1*%
%TO.N,N/C*%
X257520000Y-125020000D03*
X257520000Y-131520000D03*
%TO.P,RESET,2*%
X253020000Y-125020000D03*
X253020000Y-131520000D03*
%TD*%
D16*
%TO.P,C6,1*%
%TO.N,Net-(C6-Pad1)*%
X192525000Y-108192500D03*
D17*
%TO.P,C6,2*%
%TO.N,Net-(C6-Pad2)*%
X207525000Y-108192500D03*
%TD*%
D10*
%TO.P, ,1*%
%TO.N,N/C*%
X225425000Y-132080000D03*
%TD*%
D18*
%TO.P,LED,1*%
%TO.N,N/C*%
X241300000Y-129540000D03*
D19*
%TO.P,LED,2*%
X241300000Y-127000000D03*
%TD*%
D10*
%TO.P,REF\u002A\u002A,1*%
%TO.N,N/C*%
X211455000Y-124460000D03*
D11*
%TO.P,REF\u002A\u002A,2*%
X211455000Y-127000000D03*
%TO.P,REF\u002A\u002A,3*%
X211455000Y-129540000D03*
%TO.P,REF\u002A\u002A,4*%
X211455000Y-132080000D03*
%TD*%
D10*
%TO.P, ,1*%
%TO.N,N/C*%
X193675001Y-126364999D03*
%TD*%
%TO.P, ,1*%
%TO.N,N/C*%
X148590000Y-142875000D03*
%TD*%
D14*
%TO.P,U5,1,VCC*%
%TO.N,+5V*%
X232400000Y-84460000D03*
D13*
%TO.P,U5,2,XTAL1/PB0*%
%TO.N,unconnected-(U5-Pad2)*%
X232400000Y-81920000D03*
%TO.P,U5,3,XTAL2/PB1*%
%TO.N,Net-(R11-Pad1)*%
X232400000Y-79380000D03*
%TO.P,U5,4,~{RESET}/PB3*%
%TO.N,Net-(C8-Pad2)*%
X232400000Y-76840000D03*
%TO.P,U5,5,PB2*%
%TO.N,unconnected-(U5-Pad5)*%
X232400000Y-74300000D03*
%TO.P,U5,6,PA7*%
%TO.N,Net-(D4-Pad1)*%
X232400000Y-71760000D03*
%TO.P,U5,7,PA6*%
%TO.N,unconnected-(U5-Pad7)*%
X232400000Y-69220000D03*
%TO.P,U5,8,PA5*%
%TO.N,unconnected-(U5-Pad8)*%
X224780000Y-69220000D03*
%TO.P,U5,9,PA4*%
%TO.N,Net-(R10-Pad2)*%
X224780000Y-71760000D03*
%TO.P,U5,10,PA3*%
%TO.N,Net-(R10-Pad1)*%
X224780000Y-74300000D03*
%TO.P,U5,11,PA2*%
%TO.N,Net-(C4-Pad1)*%
X224780000Y-76840000D03*
%TO.P,U5,12,PA1*%
%TO.N,unconnected-(U5-Pad12)*%
X224780000Y-79380000D03*
%TO.P,U5,13,AREF/PA0*%
%TO.N,Net-(D2-Pad1)*%
X224780000Y-81920000D03*
%TO.P,U5,14,GND*%
%TO.N,Earth*%
X224780000Y-84460000D03*
%TD*%
D12*
%TO.P,R3,1*%
%TO.N,Net-(R3-Pad1)*%
X118745000Y-155575000D03*
D13*
%TO.P,R3,2*%
%TO.N,Net-(D1-Pad2)*%
X103505000Y-155575000D03*
%TD*%
D10*
%TO.P, ,1*%
%TO.N,N/C*%
X125095000Y-92075000D03*
%TD*%
D16*
%TO.P,C8,1*%
%TO.N,Net-(C8-Pad1)*%
X218682500Y-109735000D03*
D17*
%TO.P,C8,2*%
%TO.N,Net-(C8-Pad2)*%
X218682500Y-94735000D03*
%TD*%
D10*
%TO.P, ,1*%
%TO.N,N/C*%
X151130000Y-128905000D03*
%TD*%
D12*
%TO.P,R7,1*%
%TO.N,Net-(R5-Pad2)*%
X182880000Y-93345000D03*
D13*
%TO.P,R7,2*%
%TO.N,Net-(R7-Pad2)*%
X198120000Y-93345000D03*
%TD*%
D10*
%TO.P,REF\u002A\u002A,1*%
%TO.N,N/C*%
X154940000Y-66675000D03*
D11*
%TO.P,REF\u002A\u002A,2*%
X154940000Y-69215000D03*
%TO.P,REF\u002A\u002A,3*%
X154940000Y-71755000D03*
%TO.P,REF\u002A\u002A,4*%
X154940000Y-74295000D03*
%TD*%
D10*
%TO.P, ,1*%
%TO.N,N/C*%
X218682500Y-113030000D03*
%TD*%
D14*
%TO.P,U2,1,~{RESET}*%
%TO.N,unconnected-(U2-Pad1)*%
X118120000Y-139690000D03*
D13*
%TO.P,U2,2,PD0*%
%TO.N,Net-(C2-Pad2)*%
X120660000Y-139690000D03*
%TO.P,U2,3,PD1*%
%TO.N,unconnected-(U2-Pad3)*%
X123200000Y-139690000D03*
%TO.P,U2,4,PD2*%
%TO.N,Net-(R6-Pad2)*%
X125740000Y-139690000D03*
%TO.P,U2,5,PD3*%
%TO.N,Net-(C3-Pad2)*%
X128280000Y-139690000D03*
%TO.P,U2,6,PD4*%
%TO.N,Net-(D4-Pad2)*%
X130820000Y-139690000D03*
%TO.P,U2,7,VCC*%
%TO.N,+5V*%
X133360000Y-139690000D03*
%TO.P,U2,8,GND*%
%TO.N,Earth*%
X135900000Y-139690000D03*
%TO.P,U2,9,XTAL1*%
%TO.N,Net-(D1-Pad1)*%
X138440000Y-139690000D03*
%TO.P,U2,10,XTAL2*%
%TO.N,Net-(R3-Pad1)*%
X140980000Y-139690000D03*
%TO.P,U2,11,PD5*%
%TO.N,unconnected-(U2-Pad11)*%
X143520000Y-139690000D03*
%TO.P,U2,12,PD6*%
%TO.N,unconnected-(U2-Pad12)*%
X146060000Y-139690000D03*
%TO.P,U2,13,PD7*%
%TO.N,Net-(R8-Pad1)*%
X148600000Y-139690000D03*
%TO.P,U2,14,PB0*%
%TO.N,unconnected-(U2-Pad14)*%
X151140000Y-139690000D03*
%TO.P,U2,15,PB1*%
%TO.N,Net-(R4-Pad2)*%
X151140000Y-132070000D03*
%TO.P,U2,16,PB2*%
%TO.N,unconnected-(U2-Pad16)*%
X148600000Y-132070000D03*
%TO.P,U2,17,PB3*%
%TO.N,unconnected-(U2-Pad17)*%
X146060000Y-132070000D03*
%TO.P,U2,18,PB4*%
%TO.N,unconnected-(U2-Pad18)*%
X143520000Y-132070000D03*
%TO.P,U2,19,PB5*%
%TO.N,unconnected-(U2-Pad19)*%
X140980000Y-132070000D03*
%TO.P,U2,20,VCC*%
%TO.N,+5V*%
X138440000Y-132070000D03*
%TO.P,U2,21,NC*%
%TO.N,unconnected-(U2-Pad21)*%
X135900000Y-132070000D03*
%TO.P,U2,22,GND*%
%TO.N,Earth*%
X133360000Y-132070000D03*
%TO.P,U2,23,PB6*%
%TO.N,Net-(C1-Pad2)*%
X130820000Y-132070000D03*
%TO.P,U2,24,PB7*%
%TO.N,unconnected-(U2-Pad24)*%
X128280000Y-132070000D03*
%TO.P,U2,25,PA2*%
%TO.N,Net-(R2-Pad1)*%
X125740000Y-132070000D03*
%TO.P,U2,26,PA3*%
%TO.N,unconnected-(U2-Pad26)*%
X123200000Y-132070000D03*
%TO.P,U2,27,PA1*%
%TO.N,Net-(R1-Pad2)*%
X120660000Y-132070000D03*
%TO.P,U2,28,PA0*%
%TO.N,Net-(D1-Pad1)*%
X118120000Y-132070000D03*
%TD*%
D10*
%TO.P, ,1*%
%TO.N,N/C*%
X119888000Y-99060000D03*
%TD*%
D18*
%TO.P,D3,1,K*%
%TO.N,Net-(D3-Pad1)*%
X193675001Y-120014999D03*
D19*
%TO.P,D3,2,A*%
%TO.N,Net-(D3-Pad2)*%
X193675001Y-122554999D03*
%TD*%
D10*
%TO.P, ,1*%
%TO.N,N/C*%
X149860000Y-85725000D03*
%TD*%
%TO.P, ,1*%
%TO.N,N/C*%
X157480000Y-107950000D03*
%TD*%
%TO.P, ,1*%
%TO.N,N/C*%
X201295000Y-93345000D03*
%TD*%
%TO.P,REF\u002A\u002A,1*%
%TO.N,N/C*%
X221640000Y-81935000D03*
D11*
%TO.P,REF\u002A\u002A,2*%
X221640000Y-84475000D03*
%TD*%
D10*
%TO.P, ,1*%
%TO.N,N/C*%
X210820000Y-108192500D03*
%TD*%
%TO.P, ,1*%
%TO.N,N/C*%
X125730000Y-128905000D03*
%TD*%
%TO.P,REF\u002A\u002A,1*%
%TO.N,N/C*%
X111125000Y-81915000D03*
D11*
%TO.P,REF\u002A\u002A,2*%
X111125000Y-84455000D03*
%TO.P,REF\u002A\u002A,3*%
X111125000Y-86995000D03*
%TO.P,REF\u002A\u002A,4*%
X111125000Y-89535000D03*
%TD*%
D10*
%TO.P, ,1*%
%TO.N,N/C*%
X132715000Y-109220000D03*
%TD*%
%TO.P, ,1*%
%TO.N,N/C*%
X133985000Y-79375000D03*
%TD*%
%TO.P, ,1*%
%TO.N,N/C*%
X168910000Y-74295000D03*
%TD*%
D12*
%TO.P,R4,1*%
%TO.N,Net-(C1-Pad1)*%
X151130000Y-95885000D03*
D13*
%TO.P,R4,2*%
%TO.N,Net-(R4-Pad2)*%
X166370000Y-95885000D03*
%TD*%
D10*
%TO.P, ,1*%
%TO.N,N/C*%
X124460000Y-99060000D03*
%TD*%
%TO.P,REF\u002A\u002A,1*%
%TO.N,N/C*%
X176530000Y-120650000D03*
D11*
%TO.P,REF\u002A\u002A,2*%
X176530000Y-123190000D03*
%TO.P,REF\u002A\u002A,3*%
X176530000Y-125730000D03*
%TO.P,REF\u002A\u002A,4*%
X176530000Y-128270000D03*
%TD*%
D12*
%TO.P,C1,1*%
%TO.N,Net-(C1-Pad1)*%
X132715000Y-112395000D03*
%TO.P,C1,2*%
%TO.N,Net-(C1-Pad2)*%
X132715000Y-114895000D03*
%TD*%
D10*
%TO.P, ,1*%
%TO.N,N/C*%
X119888000Y-120650000D03*
%TD*%
D12*
%TO.P,C2,1*%
%TO.N,Net-(C2-Pad1)*%
X144780000Y-116840000D03*
%TO.P,C2,2*%
%TO.N,Net-(C2-Pad2)*%
X144780000Y-119340000D03*
%TD*%
%TO.P,C4,1*%
%TO.N,Net-(C4-Pad1)*%
X192385000Y-83820000D03*
%TO.P,C4,2*%
%TO.N,Net-(C4-Pad2)*%
X189885000Y-83820000D03*
%TD*%
D10*
%TO.P, ,1*%
%TO.N,N/C*%
X235585000Y-71755000D03*
%TD*%
%TO.P, ,1*%
%TO.N,N/C*%
X186055001Y-73024999D03*
%TD*%
%TO.P, ,1*%
%TO.N,N/C*%
X190500000Y-139307500D03*
%TD*%
%TO.P, ,1*%
%TO.N,N/C*%
X218682500Y-91440000D03*
%TD*%
%TO.P, ,1*%
%TO.N,N/C*%
X169545000Y-95885000D03*
%TD*%
%TO.P, ,1*%
%TO.N,N/C*%
X145415000Y-149860000D03*
%TD*%
%TO.P, ,1*%
%TO.N,N/C*%
X208280000Y-60325000D03*
%TD*%
D12*
%TO.P,R (LED),1*%
%TO.N,N/C*%
X251460000Y-134620000D03*
D13*
%TO.P,R (LED),2*%
X241300000Y-134620000D03*
%TD*%
D10*
%TO.P, ,1*%
%TO.N,N/C*%
X147955000Y-95885000D03*
%TD*%
%TO.P, ,1*%
%TO.N,N/C*%
X144780000Y-113665000D03*
%TD*%
%TO.P, ,1*%
%TO.N,N/C*%
X171450000Y-85725000D03*
%TD*%
D18*
%TO.P,D4,1,K*%
%TO.N,Net-(D4-Pad1)*%
X247015000Y-76200000D03*
D19*
%TO.P,D4,2,A*%
%TO.N,Net-(D4-Pad2)*%
X247015000Y-78740000D03*
%TD*%
D20*
%TO.P,REF\u002A\u002A,1*%
%TO.N,N/C*%
X249856000Y-140273000D03*
%TO.P,REF\u002A\u002A,2*%
X239856000Y-142773000D03*
%TO.P,REF\u002A\u002A,3*%
X249856000Y-145273000D03*
%TD*%
D10*
%TO.P, ,1*%
%TO.N,N/C*%
X168910000Y-139307500D03*
%TD*%
%TO.P, ,1*%
%TO.N,N/C*%
X179705000Y-93345000D03*
%TD*%
D18*
%TO.P,D2,1,K*%
%TO.N,Net-(D2-Pad1)*%
X192405001Y-73024999D03*
D19*
%TO.P,D2,2,A*%
%TO.N,Net-(D2-Pad2)*%
X189865001Y-73024999D03*
%TD*%
D12*
%TO.P,R11,1*%
%TO.N,Net-(R11-Pad1)*%
X235585000Y-95250000D03*
D13*
%TO.P,R11,2*%
%TO.N,Net-(R11-Pad2)*%
X235585000Y-110490000D03*
%TD*%
D10*
%TO.P, ,1*%
%TO.N,N/C*%
X120650000Y-142875000D03*
%TD*%
%TO.P,REF\u002A\u002A,1*%
%TO.N,N/C*%
X118130000Y-128880000D03*
D11*
%TO.P,REF\u002A\u002A,2*%
X120670000Y-128880000D03*
%TD*%
D10*
%TO.P, ,1*%
%TO.N,N/C*%
X121920000Y-155575000D03*
%TD*%
D14*
%TO.P,U6,1,~{RESET}/PB5*%
%TO.N,Net-(C6-Pad2)*%
X214640000Y-124470000D03*
D13*
%TO.P,U6,2,XTAL1/PB3*%
%TO.N,Net-(C8-Pad1)*%
X214640000Y-127010000D03*
%TO.P,U6,3,XTAL2/PB4*%
%TO.N,Net-(U4-Pad1)*%
X214640000Y-129550000D03*
%TO.P,U6,4,GND*%
%TO.N,Earth*%
X214640000Y-132090000D03*
%TO.P,U6,5,AREF/PB0*%
%TO.N,Net-(R11-Pad2)*%
X222260000Y-132090000D03*
%TO.P,U6,6,PB1*%
%TO.N,unconnected-(U6-Pad6)*%
X222260000Y-129550000D03*
%TO.P,U6,7,PB2*%
%TO.N,Net-(C5-Pad2)*%
X222260000Y-127010000D03*
%TO.P,U6,8,VCC*%
%TO.N,+5V*%
X222260000Y-124470000D03*
%TD*%
D10*
%TO.P, ,1*%
%TO.N,N/C*%
X100330000Y-155575000D03*
%TD*%
D12*
%TO.P,C3,1*%
%TO.N,Net-(C3-Pad1)*%
X137180000Y-79375000D03*
%TO.P,C3,2*%
%TO.N,Net-(C3-Pad2)*%
X139680000Y-79375000D03*
%TD*%
D16*
%TO.P,C5,1*%
%TO.N,Net-(C5-Pad1)*%
X172205000Y-139307500D03*
D17*
%TO.P,C5,2*%
%TO.N,Net-(C5-Pad2)*%
X187205000Y-139307500D03*
%TD*%
D10*
%TO.P, ,1*%
%TO.N,N/C*%
X144780000Y-122555000D03*
%TD*%
%TO.P,REF\u002A\u002A,1*%
%TO.N,N/C*%
X125095000Y-76835000D03*
D11*
%TO.P,REF\u002A\u002A,2*%
X125095000Y-79375000D03*
%TD*%
D10*
%TO.P, ,1*%
%TO.N,N/C*%
X102235000Y-135885000D03*
%TD*%
%TO.P, ,1*%
%TO.N,N/C*%
X118110000Y-125095000D03*
%TD*%
%TO.P, ,1*%
%TO.N,N/C*%
X235585000Y-92075000D03*
%TD*%
%TO.P,REF\u002A\u002A,1*%
%TO.N,N/C*%
X225425000Y-124460000D03*
D11*
%TO.P,REF\u002A\u002A,2*%
X225425000Y-127000000D03*
%TD*%
D10*
%TO.P, ,1*%
%TO.N,N/C*%
X132715000Y-118110000D03*
%TD*%
%TO.P, ,1*%
%TO.N,N/C*%
X104140000Y-106045000D03*
%TD*%
%TO.P, ,1*%
%TO.N,N/C*%
X189230000Y-108192500D03*
%TD*%
D12*
%TO.P,R2,1*%
%TO.N,Net-(R2-Pad1)*%
X124460000Y-117475000D03*
D13*
%TO.P,R2,2*%
%TO.N,Net-(C1-Pad1)*%
X124460000Y-102235000D03*
%TD*%
D10*
%TO.P,REF\u002A\u002A,1*%
%TO.N,N/C*%
X104795000Y-86970000D03*
D11*
%TO.P,REF\u002A\u002A,2*%
X107335000Y-86970000D03*
%TD*%
D10*
%TO.P, ,1*%
%TO.N,N/C*%
X142875000Y-79375000D03*
%TD*%
D12*
%TO.P,R6,1*%
%TO.N,Net-(R6-Pad1)*%
X104140000Y-109220000D03*
D13*
%TO.P,R6,2*%
%TO.N,Net-(R6-Pad2)*%
X104140000Y-124460000D03*
%TD*%
D16*
%TO.P,PIEZO,1*%
%TO.N,N/C*%
X260180785Y-115570000D03*
D15*
%TO.P,PIEZO,2*%
X255180785Y-115570000D03*
%TD*%
D10*
%TO.P, ,1*%
%TO.N,N/C*%
X131064000Y-129032000D03*
%TD*%
D12*
%TO.P,R5,1*%
%TO.N,Net-(R5-Pad1)*%
X153035000Y-85725000D03*
D13*
%TO.P,R5,2*%
%TO.N,Net-(R5-Pad2)*%
X168275000Y-85725000D03*
%TD*%
D14*
%TO.P,U4,1,~{RESET}/PB5*%
%TO.N,Net-(U4-Pad1)*%
X165745000Y-120660000D03*
D13*
%TO.P,U4,2,XTAL1/PB3*%
%TO.N,unconnected-(U4-Pad2)*%
X165745000Y-123200000D03*
%TO.P,U4,3,XTAL2/PB4*%
%TO.N,Net-(C5-Pad1)*%
X165745000Y-125740000D03*
%TO.P,U4,4,GND*%
%TO.N,Earth*%
X165745000Y-128280000D03*
%TO.P,U4,5,AREF/PB0*%
%TO.N,Net-(R7-Pad2)*%
X173365000Y-128280000D03*
%TO.P,U4,6,PB1*%
%TO.N,Net-(D3-Pad2)*%
X173365000Y-125740000D03*
%TO.P,U4,7,PB2*%
%TO.N,Net-(R8-Pad2)*%
X173365000Y-123200000D03*
%TO.P,U4,8,VCC*%
%TO.N,+5V*%
X173365000Y-120660000D03*
%TD*%
D10*
%TO.P, ,1*%
%TO.N,N/C*%
X196215001Y-73024999D03*
%TD*%
D12*
%TO.P,R (PIEZO),1*%
%TO.N,N/C*%
X257556000Y-145288000D03*
D13*
%TO.P,R (PIEZO),2*%
X257556000Y-135128000D03*
%TD*%
D18*
%TO.P,D1,1,K*%
%TO.N,Net-(D1-Pad1)*%
X102235000Y-139695000D03*
D19*
%TO.P,D1,2,A*%
%TO.N,Net-(D1-Pad2)*%
X102235000Y-142235000D03*
%TD*%
D12*
%TO.P,R10,1*%
%TO.N,Net-(R10-Pad1)*%
X208280000Y-78740000D03*
D13*
%TO.P,R10,2*%
%TO.N,Net-(R10-Pad2)*%
X208280000Y-63500000D03*
%TD*%
D10*
%TO.P, ,1*%
%TO.N,N/C*%
X102235000Y-146045000D03*
%TD*%
%TO.P,REF\u002A\u002A,1*%
%TO.N,N/C*%
X235585000Y-76855000D03*
D11*
%TO.P,REF\u002A\u002A,2*%
X235585000Y-79395000D03*
%TD*%
D10*
%TO.P, ,1*%
%TO.N,N/C*%
X195560000Y-83820000D03*
%TD*%
D12*
%TO.P,R8,1*%
%TO.N,Net-(R8-Pad1)*%
X148590000Y-149860000D03*
D13*
%TO.P,R8,2*%
%TO.N,Net-(R8-Pad2)*%
X163830000Y-149860000D03*
%TD*%
D10*
%TO.P, ,1*%
%TO.N,N/C*%
X104140000Y-127635000D03*
%TD*%
D14*
%TO.P,U1,1,VCC*%
%TO.N,+5V*%
X114310000Y-76830000D03*
D13*
%TO.P,U1,2,XTAL1/PB0*%
%TO.N,unconnected-(U1-Pad2)*%
X114310000Y-79370000D03*
%TO.P,U1,3,XTAL2/PB1*%
%TO.N,Net-(R6-Pad1)*%
X114310000Y-81910000D03*
%TO.P,U1,4,~{RESET}/PB3*%
%TO.N,Net-(R1-Pad1)*%
X114310000Y-84450000D03*
%TO.P,U1,5,PB2*%
%TO.N,Net-(C1-Pad1)*%
X114310000Y-86990000D03*
%TO.P,U1,6,PA7*%
%TO.N,Net-(R5-Pad1)*%
X114310000Y-89530000D03*
%TO.P,U1,7,PA6*%
%TO.N,unconnected-(U1-Pad7)*%
X114310000Y-92070000D03*
%TO.P,U1,8,PA5*%
%TO.N,Net-(D3-Pad1)*%
X121930000Y-92070000D03*
%TO.P,U1,9,PA4*%
%TO.N,unconnected-(U1-Pad9)*%
X121930000Y-89530000D03*
%TO.P,U1,10,PA3*%
%TO.N,unconnected-(U1-Pad10)*%
X121930000Y-86990000D03*
%TO.P,U1,11,PA2*%
%TO.N,unconnected-(U1-Pad11)*%
X121930000Y-84450000D03*
%TO.P,U1,12,PA1*%
%TO.N,unconnected-(U1-Pad12)*%
X121930000Y-81910000D03*
%TO.P,U1,13,AREF/PA0*%
%TO.N,Net-(C3-Pad1)*%
X121930000Y-79370000D03*
%TO.P,U1,14,GND*%
%TO.N,Earth*%
X121930000Y-76830000D03*
%TD*%
D10*
%TO.P, ,1*%
%TO.N,N/C*%
X111125000Y-76835000D03*
%TD*%
%TO.P,REF\u002A\u002A,1*%
%TO.N,N/C*%
X245740000Y-129535000D03*
D11*
%TO.P,REF\u002A\u002A,2*%
X248280000Y-129535000D03*
%TO.P,REF\u002A\u002A,3*%
X245740000Y-126995000D03*
%TO.P,REF\u002A\u002A,4*%
X248280000Y-126995000D03*
%TO.P,REF\u002A\u002A,5*%
X245740000Y-124455000D03*
%TO.P,REF\u002A\u002A,6*%
X248280000Y-124455000D03*
%TO.P,REF\u002A\u002A,7*%
X245740000Y-121915000D03*
%TO.P,REF\u002A\u002A,8*%
X248280000Y-121915000D03*
%TO.P,REF\u002A\u002A,9*%
X245740000Y-119375000D03*
%TO.P,REF\u002A\u002A,10*%
X248280000Y-119375000D03*
%TO.P,REF\u002A\u002A,11*%
X245740000Y-116835000D03*
%TO.P,REF\u002A\u002A,12*%
X248280000Y-116835000D03*
%TO.P,REF\u002A\u002A,13*%
X245740000Y-114295000D03*
%TO.P,REF\u002A\u002A,14*%
X248280000Y-114295000D03*
%TO.P,REF\u002A\u002A,15*%
X245740000Y-111755000D03*
%TO.P,REF\u002A\u002A,16*%
X248280000Y-111755000D03*
%TO.P,REF\u002A\u002A,17*%
X245740000Y-109215000D03*
%TO.P,REF\u002A\u002A,18*%
X248280000Y-109215000D03*
%TO.P,REF\u002A\u002A,19*%
X245740000Y-106675000D03*
%TO.P,REF\u002A\u002A,20*%
X248280000Y-106675000D03*
%TO.P,REF\u002A\u002A,21*%
X245740000Y-104135000D03*
%TO.P,REF\u002A\u002A,22*%
X248280000Y-104135000D03*
%TO.P,REF\u002A\u002A,23*%
X245740000Y-101595000D03*
%TO.P,REF\u002A\u002A,24*%
X248280000Y-101595000D03*
%TO.P,REF\u002A\u002A,25*%
X245740000Y-99055000D03*
%TO.P,REF\u002A\u002A,26*%
X248280000Y-99055000D03*
%TO.P,REF\u002A\u002A,27*%
X245740000Y-96515000D03*
%TO.P,REF\u002A\u002A,28*%
X248280000Y-96515000D03*
%TO.P,REF\u002A\u002A,29*%
X245740000Y-93975000D03*
%TO.P,REF\u002A\u002A,30*%
X248280000Y-93975000D03*
%TD*%
D21*
%TO.N,*%
X197510000Y-154280000D02*
X194970000Y-154280000D01*
X144780000Y-113665000D02*
X142875000Y-115570000D01*
X249936000Y-79756000D02*
X247142000Y-82550000D01*
X208037500Y-127000000D02*
X211455000Y-127000000D01*
X118872000Y-77216000D02*
X118872000Y-92964000D01*
X205740000Y-80425000D02*
X205740000Y-62865000D01*
X160020000Y-142875000D02*
X167005000Y-149860000D01*
X243200000Y-99055000D02*
X245740000Y-99055000D01*
X116840000Y-118745000D02*
X118745000Y-120650000D01*
X241813000Y-124455000D02*
X238760000Y-127508000D01*
X118745000Y-99060000D02*
X120015000Y-99060000D01*
X170180000Y-111252000D02*
X179832000Y-111252000D01*
X241935000Y-62230000D02*
X241935000Y-97790000D01*
X174625000Y-59690000D02*
X177165000Y-57150000D01*
X181356000Y-109728000D02*
X181356000Y-100584000D01*
X154940000Y-88900000D02*
X169672000Y-88900000D01*
X196215001Y-75564999D02*
X196215001Y-73024999D01*
X238760000Y-135128000D02*
X248905000Y-145273000D01*
X162560000Y-120650000D02*
X162560000Y-118872000D01*
X113284000Y-74676000D02*
X116332000Y-74676000D01*
X139700000Y-94488000D02*
X146304000Y-87884000D01*
X188468000Y-81788000D02*
X193528000Y-81788000D01*
X125095000Y-79375000D02*
X123825000Y-78105000D01*
X247269000Y-123444000D02*
X241300000Y-123444000D01*
X257556000Y-145288000D02*
X257556000Y-139192000D01*
X244348000Y-108204000D02*
X246751000Y-108204000D01*
X243840000Y-61595000D02*
X243840000Y-94615000D01*
X168910000Y-75438000D02*
X168910000Y-74295000D01*
X260180785Y-136567215D02*
X260180785Y-115570000D01*
X225425000Y-124460000D02*
X225552000Y-124460000D01*
X132114000Y-129032000D02*
X134620000Y-131538000D01*
X111125000Y-76835000D02*
X113284000Y-74676000D01*
X249856000Y-140273000D02*
X249856000Y-136224000D01*
X255180785Y-120094215D02*
X248280000Y-126995000D01*
X139700000Y-155575000D02*
X145415000Y-149860000D01*
X127508000Y-79248000D02*
X125095000Y-76835000D01*
X246375000Y-129535000D02*
X251460000Y-134620000D01*
X121920000Y-125095000D02*
X125730000Y-128905000D01*
X237744000Y-140661000D02*
X239856000Y-142773000D01*
X205740000Y-62865000D02*
X208280000Y-60325000D01*
X120670000Y-128880000D02*
X118130000Y-128880000D01*
X213868000Y-134112000D02*
X212852000Y-133096000D01*
X249856000Y-136224000D02*
X251460000Y-134620000D01*
X139065000Y-144780000D02*
X140970000Y-142875000D01*
X254420000Y-134620000D02*
X257520000Y-131520000D01*
X142875000Y-115570000D02*
X142875000Y-120650000D01*
X126365000Y-144780000D02*
X128270000Y-142875000D01*
X148590000Y-142875000D02*
X160020000Y-142875000D01*
X257556000Y-139192000D02*
X260180785Y-136567215D01*
X241935000Y-97790000D02*
X243200000Y-99055000D01*
X227076000Y-134112000D02*
X213868000Y-134112000D01*
X187452000Y-78740000D02*
X193040000Y-78740000D01*
X130810000Y-142875000D02*
X132715000Y-144780000D01*
X190500000Y-139307500D02*
X187717500Y-136525000D01*
X116840000Y-100965000D02*
X116840000Y-118745000D01*
X125095000Y-92075000D02*
X125095000Y-82677000D01*
X186670000Y-83586000D02*
X188468000Y-81788000D01*
X210820000Y-108192500D02*
X211212500Y-108192500D01*
X176276000Y-95504000D02*
X176276000Y-89916000D01*
X250190000Y-102870000D02*
X247015000Y-102870000D01*
X171450000Y-87122000D02*
X171450000Y-85725000D01*
X241305000Y-126995000D02*
X241300000Y-127000000D01*
X189890000Y-154280000D02*
X192430000Y-154280000D01*
X225425000Y-132080000D02*
X225425000Y-127000000D01*
X221640000Y-81935000D02*
X221640000Y-84475000D01*
X169672000Y-88900000D02*
X171450000Y-87122000D01*
X102235000Y-136525000D02*
X110490000Y-144780000D01*
X189230000Y-108192500D02*
X189230000Y-108579250D01*
X221615000Y-68453000D02*
X223012000Y-67056000D01*
X241300000Y-134620000D02*
X241300000Y-129540000D01*
X147955000Y-95885000D02*
X148209000Y-95885000D01*
X176276000Y-89916000D02*
X187452000Y-78740000D01*
X245735000Y-127000000D02*
X245740000Y-126995000D01*
X181356000Y-100584000D02*
X176276000Y-95504000D01*
X193040000Y-78740000D02*
X196215001Y-75564999D01*
X262128000Y-143256000D02*
X262128000Y-114808000D01*
X171692500Y-136525000D02*
X168910000Y-139307500D01*
X241300000Y-127000000D02*
X245735000Y-127000000D01*
X127508000Y-80264000D02*
X127508000Y-79248000D01*
X247015000Y-102870000D02*
X245740000Y-101595000D01*
X177800000Y-109728000D02*
X179070000Y-108458000D01*
X257556000Y-147828000D02*
X262128000Y-143256000D01*
X177165000Y-57150000D02*
X236855000Y-57150000D01*
X125095000Y-82677000D02*
X127508000Y-80264000D01*
X159258000Y-109728000D02*
X177800000Y-109728000D01*
X262128000Y-114808000D02*
X250190000Y-102870000D01*
X102235000Y-146045000D02*
X102235000Y-148590000D01*
X246751000Y-108204000D02*
X248280000Y-106675000D01*
X211212500Y-108192500D02*
X215265000Y-104140000D01*
X207230000Y-81915000D02*
X205740000Y-80425000D01*
X124460000Y-99060000D02*
X132715000Y-107315000D01*
X235585000Y-92075000D02*
X235585000Y-84455000D01*
X215265000Y-104140000D02*
X245735000Y-104140000D01*
X211455000Y-133223000D02*
X213360000Y-135128000D01*
X118110000Y-125095000D02*
X121920000Y-125095000D01*
X245735000Y-104140000D02*
X245740000Y-104135000D01*
X199136000Y-95504000D02*
X201295000Y-93345000D01*
X194944999Y-116204999D02*
X193675001Y-116204999D01*
X212344000Y-129540000D02*
X211455000Y-129540000D01*
X227584000Y-133604000D02*
X227076000Y-134112000D01*
X156591000Y-65024000D02*
X154940000Y-66675000D01*
X124460000Y-120650000D02*
X130175000Y-120650000D01*
X213360000Y-135128000D02*
X231140000Y-135128000D01*
X236855000Y-57150000D02*
X241935000Y-62230000D01*
X164973000Y-53975000D02*
X236220000Y-53975000D01*
X111125000Y-89535000D02*
X111125000Y-86995000D01*
X179705000Y-93345000D02*
X181864000Y-95504000D01*
X234188000Y-118364000D02*
X244348000Y-108204000D01*
X248905000Y-145273000D02*
X249856000Y-145273000D01*
X146304000Y-87884000D02*
X156464000Y-87884000D01*
X257556000Y-133604000D02*
X257520000Y-133568000D01*
X175768000Y-147828000D02*
X257556000Y-147828000D01*
X221615000Y-76835000D02*
X221615000Y-74295000D01*
X176530000Y-128270000D02*
X176530000Y-125730000D01*
X212852000Y-133096000D02*
X212852000Y-130048000D01*
X123825000Y-53467000D02*
X127127000Y-50165000D01*
X120396000Y-94488000D02*
X139700000Y-94488000D01*
X234188000Y-132080000D02*
X234188000Y-118364000D01*
X187717500Y-136525000D02*
X171692500Y-136525000D01*
X248280000Y-124455000D02*
X247269000Y-123444000D01*
X147955000Y-95885000D02*
X154940000Y-88900000D01*
X247142000Y-82550000D02*
X247015000Y-82550000D01*
X208280000Y-81915000D02*
X207230000Y-81915000D01*
X142875000Y-79375000D02*
X149225000Y-85725000D01*
X154940000Y-74295000D02*
X154940000Y-71755000D01*
X107188000Y-124587000D02*
X104140000Y-127635000D01*
X225552000Y-124460000D02*
X227584000Y-126492000D01*
X235585000Y-76855000D02*
X235585000Y-79395000D01*
X153416000Y-65532000D02*
X164973000Y-53975000D01*
X102235000Y-135885000D02*
X102235000Y-136525000D01*
X200050000Y-154280000D02*
X202590000Y-154280000D01*
X132715000Y-107315000D02*
X132715000Y-109220000D01*
X153416000Y-67691000D02*
X153416000Y-65532000D01*
X181864000Y-95504000D02*
X199136000Y-95504000D01*
X169545000Y-95885000D02*
X169545000Y-93980000D01*
D22*
X140970000Y-56515000D02*
X138430000Y-56515000D01*
D21*
X120650000Y-142875000D02*
X125730000Y-142875000D01*
X227584000Y-126492000D02*
X227584000Y-133604000D01*
X245740000Y-124455000D02*
X241813000Y-124455000D01*
X154940000Y-69215000D02*
X153416000Y-67691000D01*
X134620000Y-131538000D02*
X134620000Y-141605000D01*
X231140000Y-135128000D02*
X234188000Y-132080000D01*
X212852000Y-130048000D02*
X212344000Y-129540000D01*
X255180785Y-115570000D02*
X255180785Y-120094215D01*
X169545000Y-93980000D02*
X174625000Y-88900000D01*
X257556000Y-135128000D02*
X257556000Y-133604000D01*
X243840000Y-94615000D02*
X245740000Y-96515000D01*
X235585000Y-68834000D02*
X235585000Y-71755000D01*
X131064000Y-129032000D02*
X132114000Y-129032000D01*
X107335000Y-86970000D02*
X104795000Y-86970000D01*
X168910000Y-66675000D02*
X167259000Y-65024000D01*
X157480000Y-107950000D02*
X159258000Y-109728000D01*
X116332000Y-74676000D02*
X118872000Y-77216000D01*
X242575000Y-106675000D02*
X235585000Y-113665000D01*
X237744000Y-127000000D02*
X237744000Y-140661000D01*
X179832000Y-111252000D02*
X181356000Y-109728000D01*
D22*
X135890000Y-56515000D02*
X133350000Y-56515000D01*
D21*
X176530000Y-123190000D02*
X176530000Y-120650000D01*
X186670000Y-83820000D02*
X186670000Y-83586000D01*
X162560000Y-125730000D02*
X162560000Y-128270000D01*
X121920000Y-155575000D02*
X139700000Y-155575000D01*
X251460000Y-134620000D02*
X254420000Y-134620000D01*
X245740000Y-129535000D02*
X246375000Y-129535000D01*
X195072000Y-126492000D02*
X196088000Y-125476000D01*
X132715000Y-144780000D02*
X139065000Y-144780000D01*
X241300000Y-123444000D02*
X237744000Y-127000000D01*
X253020000Y-131520000D02*
X250265000Y-131520000D01*
X167259000Y-65024000D02*
X156591000Y-65024000D01*
X123825000Y-78105000D02*
X123825000Y-53467000D01*
X236855000Y-50165000D02*
X255270000Y-68580000D01*
X196088000Y-117348000D02*
X194944999Y-116204999D01*
X127127000Y-50165000D02*
X236855000Y-50165000D01*
X149225000Y-85725000D02*
X149860000Y-85725000D01*
X211455000Y-132080000D02*
X211455000Y-133223000D01*
X142875000Y-120650000D02*
X144780000Y-122555000D01*
X130175000Y-120650000D02*
X132715000Y-118110000D01*
X193675001Y-126364999D02*
X193802002Y-126492000D01*
X107188000Y-109093000D02*
X107188000Y-124587000D01*
X118872000Y-92964000D02*
X120396000Y-94488000D01*
X255270000Y-84445000D02*
X245740000Y-93975000D01*
X193802002Y-126492000D02*
X195072000Y-126492000D01*
X236220000Y-53975000D02*
X243840000Y-61595000D01*
X111125000Y-81915000D02*
X111125000Y-84455000D01*
X165608000Y-157988000D02*
X175768000Y-147828000D01*
X233807000Y-67056000D02*
X235585000Y-68834000D01*
X223012000Y-67056000D02*
X233807000Y-67056000D01*
X236220000Y-53975000D02*
X235585000Y-53975000D01*
D22*
X143510000Y-56515000D02*
X146050000Y-56515000D01*
D21*
X238760000Y-127508000D02*
X238760000Y-135128000D01*
X111633000Y-157988000D02*
X165608000Y-157988000D01*
X118745000Y-120650000D02*
X120015000Y-120650000D01*
X255270000Y-68580000D02*
X255270000Y-84445000D01*
X162560000Y-118872000D02*
X170180000Y-111252000D01*
X134620000Y-141605000D02*
X133350000Y-142875000D01*
X221615000Y-71755000D02*
X221615000Y-68453000D01*
X110490000Y-144780000D02*
X126365000Y-144780000D01*
X104140000Y-106045000D02*
X107188000Y-109093000D01*
X250265000Y-131520000D02*
X248280000Y-129535000D01*
X135890000Y-142875000D02*
X138430000Y-142875000D01*
X189230000Y-108192500D02*
X208037500Y-127000000D01*
X179070000Y-108458000D02*
X179070000Y-107950000D01*
X245740000Y-106675000D02*
X242575000Y-106675000D01*
X257520000Y-131520000D02*
X257520000Y-133568000D01*
X193528000Y-81788000D02*
X195560000Y-83820000D01*
X174625000Y-88900000D02*
X174625000Y-59690000D01*
X196088000Y-125476000D02*
X196088000Y-117348000D01*
X102235000Y-148590000D02*
X111633000Y-157988000D01*
X118745000Y-99060000D02*
X116840000Y-100965000D01*
X156464000Y-87884000D02*
X168910000Y-75438000D01*
%TO.N,Net-(D4-Pad1)*%
X249936000Y-75311000D02*
X249936000Y-79756000D01*
X247015000Y-72390000D02*
X249936000Y-75311000D01*
%TD*%
M02*
