%TF.GenerationSoftware,KiCad,Pcbnew,(6.0.5)*%
%TF.CreationDate,2022-06-11T19:23:14+02:00*%
%TF.ProjectId,advanced,61647661-6e63-4656-942e-6b696361645f,rev?*%
%TF.SameCoordinates,Original*%
%TF.FileFunction,Soldermask,Top*%
%TF.FilePolarity,Negative*%
%FSLAX46Y46*%
G04 Gerber Fmt 4.6, Leading zero omitted, Abs format (unit mm)*
G04 Created by KiCad (PCBNEW (6.0.5)) date 2022-06-11 19:23:14*
%MOMM*%
%LPD*%
G01*
G04 APERTURE LIST*
%ADD10R,1.700000X1.700000*%
%ADD11O,1.700000X1.700000*%
%ADD12C,1.600000*%
%ADD13O,1.600000X1.600000*%
%ADD14R,1.600000X1.600000*%
%ADD15C,2.000000*%
%ADD16R,2.000000X2.000000*%
%ADD17O,2.000000X2.000000*%
%ADD18R,1.800000X1.800000*%
%ADD19C,1.800000*%
%ADD20C,2.340000*%
G04 APERTURE END LIST*
D10*
%TO.C, *%
X247015000Y-82550000D03*
%TD*%
%TO.C, *%
X208280000Y-81915000D03*
%TD*%
%TO.C, *%
X162560000Y-120650000D03*
%TD*%
%TO.C,REF\u002A\u002A*%
X189890000Y-154280000D03*
D11*
X192430000Y-154280000D03*
X194970000Y-154280000D03*
X197510000Y-154280000D03*
X200050000Y-154280000D03*
X202590000Y-154280000D03*
%TD*%
D10*
%TO.C, *%
X247015000Y-72390000D03*
%TD*%
%TO.C, *%
X179070000Y-107950000D03*
%TD*%
D12*
%TO.C,R1*%
X119888000Y-102235000D03*
D13*
X119888000Y-117475000D03*
%TD*%
D10*
%TO.C, *%
X167005000Y-149860000D03*
%TD*%
%TO.C, *%
X235585000Y-84455000D03*
%TD*%
%TO.C,REF\u002A\u002A*%
X133350000Y-56515000D03*
D11*
X135890000Y-56515000D03*
X138430000Y-56515000D03*
X140970000Y-56515000D03*
X143510000Y-56515000D03*
X146050000Y-56515000D03*
%TD*%
D10*
%TO.C, *%
X186670000Y-83820000D03*
%TD*%
%TO.C,REF\u002A\u002A*%
X125730000Y-142875000D03*
D11*
X128270000Y-142875000D03*
X130810000Y-142875000D03*
X133350000Y-142875000D03*
X135890000Y-142875000D03*
X138430000Y-142875000D03*
X140970000Y-142875000D03*
%TD*%
D14*
%TO.C,U3*%
X158125000Y-66685000D03*
D13*
X158125000Y-69225000D03*
X158125000Y-71765000D03*
X158125000Y-74305000D03*
X165745000Y-74305000D03*
X165745000Y-71765000D03*
X165745000Y-69225000D03*
X165745000Y-66685000D03*
%TD*%
D12*
%TO.C,R9*%
X160655000Y-107950000D03*
D13*
X175895000Y-107950000D03*
%TD*%
D10*
%TO.C,REF\u002A\u002A*%
X221615000Y-71755000D03*
D11*
X221615000Y-74295000D03*
X221615000Y-76835000D03*
%TD*%
D10*
%TO.C, *%
X168910000Y-66675000D03*
%TD*%
%TO.C, *%
X235585000Y-113665000D03*
%TD*%
%TO.C, *%
X124460000Y-120650000D03*
%TD*%
%TO.C, *%
X193675001Y-116204999D03*
%TD*%
%TO.C,REF\u002A\u002A*%
X162560000Y-125730000D03*
D11*
X162560000Y-128270000D03*
%TD*%
D15*
%TO.C,RESET*%
X257520000Y-125020000D03*
X257520000Y-131520000D03*
X253020000Y-125020000D03*
X253020000Y-131520000D03*
%TD*%
D16*
%TO.C,C6*%
X192525000Y-108192500D03*
D17*
X207525000Y-108192500D03*
%TD*%
D10*
%TO.C, *%
X225425000Y-132080000D03*
%TD*%
D18*
%TO.C,LED*%
X241300000Y-129540000D03*
D19*
X241300000Y-127000000D03*
%TD*%
D10*
%TO.C,REF\u002A\u002A*%
X211455000Y-124460000D03*
D11*
X211455000Y-127000000D03*
X211455000Y-129540000D03*
X211455000Y-132080000D03*
%TD*%
D10*
%TO.C, *%
X193675001Y-126364999D03*
%TD*%
%TO.C, *%
X148590000Y-142875000D03*
%TD*%
D14*
%TO.C,U5*%
X232400000Y-84460000D03*
D13*
X232400000Y-81920000D03*
X232400000Y-79380000D03*
X232400000Y-76840000D03*
X232400000Y-74300000D03*
X232400000Y-71760000D03*
X232400000Y-69220000D03*
X224780000Y-69220000D03*
X224780000Y-71760000D03*
X224780000Y-74300000D03*
X224780000Y-76840000D03*
X224780000Y-79380000D03*
X224780000Y-81920000D03*
X224780000Y-84460000D03*
%TD*%
D12*
%TO.C,R3*%
X118745000Y-155575000D03*
D13*
X103505000Y-155575000D03*
%TD*%
D10*
%TO.C, *%
X125095000Y-92075000D03*
%TD*%
D16*
%TO.C,C8*%
X218682500Y-109735000D03*
D17*
X218682500Y-94735000D03*
%TD*%
D10*
%TO.C, *%
X151130000Y-128905000D03*
%TD*%
D12*
%TO.C,R7*%
X182880000Y-93345000D03*
D13*
X198120000Y-93345000D03*
%TD*%
D10*
%TO.C,REF\u002A\u002A*%
X154940000Y-66675000D03*
D11*
X154940000Y-69215000D03*
X154940000Y-71755000D03*
X154940000Y-74295000D03*
%TD*%
D10*
%TO.C, *%
X218682500Y-113030000D03*
%TD*%
D14*
%TO.C,U2*%
X118120000Y-139690000D03*
D13*
X120660000Y-139690000D03*
X123200000Y-139690000D03*
X125740000Y-139690000D03*
X128280000Y-139690000D03*
X130820000Y-139690000D03*
X133360000Y-139690000D03*
X135900000Y-139690000D03*
X138440000Y-139690000D03*
X140980000Y-139690000D03*
X143520000Y-139690000D03*
X146060000Y-139690000D03*
X148600000Y-139690000D03*
X151140000Y-139690000D03*
X151140000Y-132070000D03*
X148600000Y-132070000D03*
X146060000Y-132070000D03*
X143520000Y-132070000D03*
X140980000Y-132070000D03*
X138440000Y-132070000D03*
X135900000Y-132070000D03*
X133360000Y-132070000D03*
X130820000Y-132070000D03*
X128280000Y-132070000D03*
X125740000Y-132070000D03*
X123200000Y-132070000D03*
X120660000Y-132070000D03*
X118120000Y-132070000D03*
%TD*%
D10*
%TO.C, *%
X119888000Y-99060000D03*
%TD*%
D18*
%TO.C,D3*%
X193675001Y-120014999D03*
D19*
X193675001Y-122554999D03*
%TD*%
D10*
%TO.C, *%
X149860000Y-85725000D03*
%TD*%
%TO.C, *%
X157480000Y-107950000D03*
%TD*%
%TO.C, *%
X201295000Y-93345000D03*
%TD*%
%TO.C,REF\u002A\u002A*%
X221640000Y-81935000D03*
D11*
X221640000Y-84475000D03*
%TD*%
D10*
%TO.C, *%
X210820000Y-108192500D03*
%TD*%
%TO.C, *%
X125730000Y-128905000D03*
%TD*%
%TO.C,REF\u002A\u002A*%
X111125000Y-81915000D03*
D11*
X111125000Y-84455000D03*
X111125000Y-86995000D03*
X111125000Y-89535000D03*
%TD*%
D10*
%TO.C, *%
X132715000Y-109220000D03*
%TD*%
%TO.C, *%
X133985000Y-79375000D03*
%TD*%
%TO.C, *%
X168910000Y-74295000D03*
%TD*%
D12*
%TO.C,R4*%
X151130000Y-95885000D03*
D13*
X166370000Y-95885000D03*
%TD*%
D10*
%TO.C, *%
X124460000Y-99060000D03*
%TD*%
%TO.C,REF\u002A\u002A*%
X176530000Y-120650000D03*
D11*
X176530000Y-123190000D03*
X176530000Y-125730000D03*
X176530000Y-128270000D03*
%TD*%
D12*
%TO.C,C1*%
X132715000Y-112395000D03*
X132715000Y-114895000D03*
%TD*%
D10*
%TO.C, *%
X119888000Y-120650000D03*
%TD*%
D12*
%TO.C,C2*%
X144780000Y-116840000D03*
X144780000Y-119340000D03*
%TD*%
%TO.C,C4*%
X192385000Y-83820000D03*
X189885000Y-83820000D03*
%TD*%
D10*
%TO.C, *%
X235585000Y-71755000D03*
%TD*%
%TO.C, *%
X186055001Y-73024999D03*
%TD*%
%TO.C, *%
X190500000Y-139307500D03*
%TD*%
%TO.C, *%
X218682500Y-91440000D03*
%TD*%
%TO.C, *%
X169545000Y-95885000D03*
%TD*%
%TO.C, *%
X145415000Y-149860000D03*
%TD*%
%TO.C, *%
X208280000Y-60325000D03*
%TD*%
D12*
%TO.C,R (LED)*%
X251460000Y-134620000D03*
D13*
X241300000Y-134620000D03*
%TD*%
D10*
%TO.C, *%
X147955000Y-95885000D03*
%TD*%
%TO.C, *%
X144780000Y-113665000D03*
%TD*%
%TO.C, *%
X171450000Y-85725000D03*
%TD*%
D18*
%TO.C,D4*%
X247015000Y-76200000D03*
D19*
X247015000Y-78740000D03*
%TD*%
D20*
%TO.C,REF\u002A\u002A*%
X249856000Y-140273000D03*
X239856000Y-142773000D03*
X249856000Y-145273000D03*
%TD*%
D10*
%TO.C, *%
X168910000Y-139307500D03*
%TD*%
%TO.C, *%
X179705000Y-93345000D03*
%TD*%
D18*
%TO.C,D2*%
X192405001Y-73024999D03*
D19*
X189865001Y-73024999D03*
%TD*%
D12*
%TO.C,R11*%
X235585000Y-95250000D03*
D13*
X235585000Y-110490000D03*
%TD*%
D10*
%TO.C, *%
X120650000Y-142875000D03*
%TD*%
%TO.C,REF\u002A\u002A*%
X118130000Y-128880000D03*
D11*
X120670000Y-128880000D03*
%TD*%
D10*
%TO.C, *%
X121920000Y-155575000D03*
%TD*%
D14*
%TO.C,U6*%
X214640000Y-124470000D03*
D13*
X214640000Y-127010000D03*
X214640000Y-129550000D03*
X214640000Y-132090000D03*
X222260000Y-132090000D03*
X222260000Y-129550000D03*
X222260000Y-127010000D03*
X222260000Y-124470000D03*
%TD*%
D10*
%TO.C, *%
X100330000Y-155575000D03*
%TD*%
D12*
%TO.C,C3*%
X137180000Y-79375000D03*
X139680000Y-79375000D03*
%TD*%
D16*
%TO.C,C5*%
X172205000Y-139307500D03*
D17*
X187205000Y-139307500D03*
%TD*%
D10*
%TO.C, *%
X144780000Y-122555000D03*
%TD*%
%TO.C,REF\u002A\u002A*%
X125095000Y-76835000D03*
D11*
X125095000Y-79375000D03*
%TD*%
D10*
%TO.C, *%
X102235000Y-135885000D03*
%TD*%
%TO.C, *%
X118110000Y-125095000D03*
%TD*%
%TO.C, *%
X235585000Y-92075000D03*
%TD*%
%TO.C,REF\u002A\u002A*%
X225425000Y-124460000D03*
D11*
X225425000Y-127000000D03*
%TD*%
D10*
%TO.C, *%
X132715000Y-118110000D03*
%TD*%
%TO.C, *%
X104140000Y-106045000D03*
%TD*%
%TO.C, *%
X189230000Y-108192500D03*
%TD*%
D12*
%TO.C,R2*%
X124460000Y-117475000D03*
D13*
X124460000Y-102235000D03*
%TD*%
D10*
%TO.C,REF\u002A\u002A*%
X104795000Y-86970000D03*
D11*
X107335000Y-86970000D03*
%TD*%
D10*
%TO.C, *%
X142875000Y-79375000D03*
%TD*%
D12*
%TO.C,R6*%
X104140000Y-109220000D03*
D13*
X104140000Y-124460000D03*
%TD*%
D16*
%TO.C,PIEZO*%
X260180785Y-115570000D03*
D15*
X255180785Y-115570000D03*
%TD*%
D10*
%TO.C, *%
X131064000Y-129032000D03*
%TD*%
D12*
%TO.C,R5*%
X153035000Y-85725000D03*
D13*
X168275000Y-85725000D03*
%TD*%
D14*
%TO.C,U4*%
X165745000Y-120660000D03*
D13*
X165745000Y-123200000D03*
X165745000Y-125740000D03*
X165745000Y-128280000D03*
X173365000Y-128280000D03*
X173365000Y-125740000D03*
X173365000Y-123200000D03*
X173365000Y-120660000D03*
%TD*%
D10*
%TO.C, *%
X196215001Y-73024999D03*
%TD*%
D12*
%TO.C,R (PIEZO)*%
X257556000Y-145288000D03*
D13*
X257556000Y-135128000D03*
%TD*%
D18*
%TO.C,D1*%
X102235000Y-139695000D03*
D19*
X102235000Y-142235000D03*
%TD*%
D12*
%TO.C,R10*%
X208280000Y-78740000D03*
D13*
X208280000Y-63500000D03*
%TD*%
D10*
%TO.C, *%
X102235000Y-146045000D03*
%TD*%
%TO.C,REF\u002A\u002A*%
X235585000Y-76855000D03*
D11*
X235585000Y-79395000D03*
%TD*%
D10*
%TO.C, *%
X195560000Y-83820000D03*
%TD*%
D12*
%TO.C,R8*%
X148590000Y-149860000D03*
D13*
X163830000Y-149860000D03*
%TD*%
D10*
%TO.C, *%
X104140000Y-127635000D03*
%TD*%
D14*
%TO.C,U1*%
X114310000Y-76830000D03*
D13*
X114310000Y-79370000D03*
X114310000Y-81910000D03*
X114310000Y-84450000D03*
X114310000Y-86990000D03*
X114310000Y-89530000D03*
X114310000Y-92070000D03*
X121930000Y-92070000D03*
X121930000Y-89530000D03*
X121930000Y-86990000D03*
X121930000Y-84450000D03*
X121930000Y-81910000D03*
X121930000Y-79370000D03*
X121930000Y-76830000D03*
%TD*%
D10*
%TO.C, *%
X111125000Y-76835000D03*
%TD*%
%TO.C,REF\u002A\u002A*%
X245740000Y-129535000D03*
D11*
X248280000Y-129535000D03*
X245740000Y-126995000D03*
X248280000Y-126995000D03*
X245740000Y-124455000D03*
X248280000Y-124455000D03*
X245740000Y-121915000D03*
X248280000Y-121915000D03*
X245740000Y-119375000D03*
X248280000Y-119375000D03*
X245740000Y-116835000D03*
X248280000Y-116835000D03*
X245740000Y-114295000D03*
X248280000Y-114295000D03*
X245740000Y-111755000D03*
X248280000Y-111755000D03*
X245740000Y-109215000D03*
X248280000Y-109215000D03*
X245740000Y-106675000D03*
X248280000Y-106675000D03*
X245740000Y-104135000D03*
X248280000Y-104135000D03*
X245740000Y-101595000D03*
X248280000Y-101595000D03*
X245740000Y-99055000D03*
X248280000Y-99055000D03*
X245740000Y-96515000D03*
X248280000Y-96515000D03*
X245740000Y-93975000D03*
X248280000Y-93975000D03*
%TD*%
M02*
