%TF.GenerationSoftware,KiCad,Pcbnew,(6.0.5)*%
%TF.CreationDate,2022-06-11T19:23:14+02:00*%
%TF.ProjectId,advanced,61647661-6e63-4656-942e-6b696361645f,rev?*%
%TF.SameCoordinates,Original*%
%TF.FileFunction,Legend,Bot*%
%TF.FilePolarity,Positive*%
%FSLAX46Y46*%
G04 Gerber Fmt 4.6, Leading zero omitted, Abs format (unit mm)*
G04 Created by KiCad (PCBNEW (6.0.5)) date 2022-06-11 19:23:14*
%MOMM*%
%LPD*%
G01*
G04 APERTURE LIST*
%ADD10C,0.120000*%
%ADD11C,0.150000*%
G04 APERTURE END LIST*
D10*
X248920000Y-91948000D02*
X247904000Y-91440000D01*
X248920000Y-91948000D02*
X247904000Y-92456000D01*
X244856000Y-91948000D02*
X248412000Y-91948000D01*
D11*
X248364190Y-90273142D02*
X248411809Y-90320761D01*
X248554666Y-90368380D01*
X248649904Y-90368380D01*
X248792761Y-90320761D01*
X248888000Y-90225523D01*
X248935619Y-90130285D01*
X248983238Y-89939809D01*
X248983238Y-89796952D01*
X248935619Y-89606476D01*
X248888000Y-89511238D01*
X248792761Y-89416000D01*
X248649904Y-89368380D01*
X248554666Y-89368380D01*
X248411809Y-89416000D01*
X248364190Y-89463619D01*
X247983238Y-90082666D02*
X247507047Y-90082666D01*
X248078476Y-90368380D02*
X247745142Y-89368380D01*
X247411809Y-90368380D01*
X246745142Y-89844571D02*
X246602285Y-89892190D01*
X246554666Y-89939809D01*
X246507047Y-90035047D01*
X246507047Y-90177904D01*
X246554666Y-90273142D01*
X246602285Y-90320761D01*
X246697523Y-90368380D01*
X247078476Y-90368380D01*
X247078476Y-89368380D01*
X246745142Y-89368380D01*
X246649904Y-89416000D01*
X246602285Y-89463619D01*
X246554666Y-89558857D01*
X246554666Y-89654095D01*
X246602285Y-89749333D01*
X246649904Y-89796952D01*
X246745142Y-89844571D01*
X247078476Y-89844571D01*
X245602285Y-90368380D02*
X246078476Y-90368380D01*
X246078476Y-89368380D01*
X245268952Y-89844571D02*
X244935619Y-89844571D01*
X244792761Y-90368380D02*
X245268952Y-90368380D01*
X245268952Y-89368380D01*
X244792761Y-89368380D01*
%TO.C,REF\u002A\u002A*%
X248343333Y-132317380D02*
X248676666Y-131841190D01*
X248914761Y-132317380D02*
X248914761Y-131317380D01*
X248533809Y-131317380D01*
X248438571Y-131365000D01*
X248390952Y-131412619D01*
X248343333Y-131507857D01*
X248343333Y-131650714D01*
X248390952Y-131745952D01*
X248438571Y-131793571D01*
X248533809Y-131841190D01*
X248914761Y-131841190D01*
X247914761Y-131793571D02*
X247581428Y-131793571D01*
X247438571Y-132317380D02*
X247914761Y-132317380D01*
X247914761Y-131317380D01*
X247438571Y-131317380D01*
X246676666Y-131793571D02*
X247010000Y-131793571D01*
X247010000Y-132317380D02*
X247010000Y-131317380D01*
X246533809Y-131317380D01*
X246010000Y-131317380D02*
X246010000Y-131555476D01*
X246248095Y-131460238D02*
X246010000Y-131555476D01*
X245771904Y-131460238D01*
X246152857Y-131745952D02*
X246010000Y-131555476D01*
X245867142Y-131745952D01*
X245248095Y-131317380D02*
X245248095Y-131555476D01*
X245486190Y-131460238D02*
X245248095Y-131555476D01*
X245010000Y-131460238D01*
X245390952Y-131745952D02*
X245248095Y-131555476D01*
X245105238Y-131745952D01*
D10*
X247010000Y-130865000D02*
X249610000Y-130865000D01*
X244410000Y-129535000D02*
X244410000Y-130865000D01*
X244410000Y-92645000D02*
X249610000Y-92645000D01*
X244410000Y-128265000D02*
X244410000Y-92645000D01*
X244410000Y-130865000D02*
X245740000Y-130865000D01*
X249610000Y-130865000D02*
X249610000Y-92645000D01*
X244410000Y-128265000D02*
X247010000Y-128265000D01*
X247010000Y-128265000D02*
X247010000Y-130865000D01*
%TD*%
M02*
