%TF.GenerationSoftware,KiCad,Pcbnew,(6.0.5)*%
%TF.CreationDate,2022-06-20T20:34:12+02:00*%
%TF.ProjectId,advanced,61647661-6e63-4656-942e-6b696361645f,rev?*%
%TF.SameCoordinates,Original*%
%TF.FileFunction,Soldermask,Bot*%
%TF.FilePolarity,Negative*%
%FSLAX46Y46*%
G04 Gerber Fmt 4.6, Leading zero omitted, Abs format (unit mm)*
G04 Created by KiCad (PCBNEW (6.0.5)) date 2022-06-20 20:34:12*
%MOMM*%
%LPD*%
G01*
G04 APERTURE LIST*
%ADD10C,1.700000*%
%ADD11O,1.700000X1.700000*%
%ADD12C,1.600000*%
%ADD13O,1.600000X1.600000*%
%ADD14R,1.600000X1.600000*%
%ADD15C,2.000000*%
%ADD16R,1.800000X1.800000*%
%ADD17C,1.800000*%
%ADD18R,1.700000X1.700000*%
%ADD19R,2.000000X2.000000*%
G04 APERTURE END LIST*
D10*
%TO.C, *%
X254254000Y-82799000D03*
%TD*%
%TO.C, *%
X223774000Y-85217000D03*
%TD*%
%TO.C, *%
X209931000Y-133096000D03*
%TD*%
%TO.C,REF\u002A\u002A*%
X165379000Y-150089000D03*
D11*
X167919000Y-150089000D03*
X170459000Y-150089000D03*
X172999000Y-150089000D03*
X175539000Y-150089000D03*
X178079000Y-150089000D03*
%TD*%
D10*
%TO.C, *%
X254254000Y-72639000D03*
%TD*%
%TO.C, *%
X201422000Y-119507000D03*
%TD*%
D12*
%TO.C,R1*%
X167132000Y-77978000D03*
D13*
X167132000Y-93218000D03*
%TD*%
D10*
%TO.C, *%
X232791000Y-148082000D03*
%TD*%
%TO.C, *%
X246507000Y-82804000D03*
%TD*%
%TO.C,REF\u002A\u002A*%
X197104000Y-59436000D03*
D11*
X199644000Y-59436000D03*
X202184000Y-59436000D03*
X204724000Y-59436000D03*
X207264000Y-59436000D03*
X209804000Y-59436000D03*
%TD*%
D10*
%TO.C, *%
X213614000Y-89555000D03*
%TD*%
%TO.C,REF\u002A\u002A*%
X175514000Y-140415500D03*
D11*
X178054000Y-140415500D03*
X180594000Y-140415500D03*
X183134000Y-140415500D03*
X185674000Y-140415500D03*
X188214000Y-140415500D03*
X190754000Y-140415500D03*
%TD*%
D14*
%TO.C,U3*%
X196860000Y-71638000D03*
D13*
X196860000Y-74178000D03*
X196860000Y-76718000D03*
X196860000Y-79258000D03*
X204480000Y-79258000D03*
X204480000Y-76718000D03*
X204480000Y-74178000D03*
X204480000Y-71638000D03*
%TD*%
D12*
%TO.C,R9*%
X201422000Y-101092000D03*
D13*
X201422000Y-116332000D03*
%TD*%
D10*
%TO.C,REF\u002A\u002A*%
X232537000Y-70104000D03*
D11*
X232537000Y-72644000D03*
X232537000Y-75184000D03*
%TD*%
D10*
%TO.C, *%
X207645000Y-71628000D03*
%TD*%
%TO.C, *%
X235585000Y-113665000D03*
%TD*%
%TO.C, *%
X171450000Y-99187000D03*
%TD*%
%TO.C, *%
X230378000Y-129540000D03*
%TD*%
%TO.C,REF\u002A\u002A*%
X209931000Y-138176000D03*
D11*
X209931000Y-140716000D03*
%TD*%
D15*
%TO.C,RESET*%
X258282000Y-126036000D03*
X258282000Y-132536000D03*
X253782000Y-126036000D03*
X253782000Y-132536000D03*
%TD*%
D14*
%TO.C,C6*%
X215733621Y-101854000D03*
D12*
X218233621Y-101854000D03*
%TD*%
D10*
%TO.C, *%
X229743000Y-117602000D03*
%TD*%
D16*
%TO.C,LED*%
X240030000Y-129545000D03*
D17*
X240030000Y-127005000D03*
%TD*%
D10*
%TO.C,REF\u002A\u002A*%
X215773000Y-109982000D03*
D11*
X215773000Y-112522000D03*
X215773000Y-115062000D03*
X215773000Y-117602000D03*
%TD*%
D10*
%TO.C, *%
X230378000Y-139700000D03*
%TD*%
%TO.C, *%
X198374000Y-140415500D03*
%TD*%
D14*
%TO.C,U5*%
X243322000Y-82809000D03*
D13*
X243322000Y-80269000D03*
X243322000Y-77729000D03*
X243322000Y-75189000D03*
X243322000Y-72649000D03*
X243322000Y-70109000D03*
X243322000Y-67569000D03*
X235702000Y-67569000D03*
X235702000Y-70109000D03*
X235702000Y-72649000D03*
X235702000Y-75189000D03*
X235702000Y-77729000D03*
X235702000Y-80269000D03*
X235702000Y-82809000D03*
%TD*%
D12*
%TO.C,R3*%
X201930000Y-147828000D03*
D13*
X186690000Y-147828000D03*
%TD*%
D10*
%TO.C, *%
X185039000Y-71882000D03*
%TD*%
D14*
%TO.C,C8*%
X228092000Y-95924380D03*
D12*
X228092000Y-93424380D03*
%TD*%
D10*
%TO.C, *%
X200914000Y-126445500D03*
%TD*%
D12*
%TO.C,R7*%
X199644000Y-93218000D03*
D13*
X214884000Y-93218000D03*
%TD*%
D18*
%TO.C,REF\u002A\u002A*%
X193675000Y-71628000D03*
D11*
X193675000Y-74168000D03*
X193675000Y-76708000D03*
X193675000Y-79248000D03*
%TD*%
D10*
%TO.C, *%
X228092000Y-100076000D03*
%TD*%
D14*
%TO.C,U2*%
X167904000Y-137230500D03*
D13*
X170444000Y-137230500D03*
X172984000Y-137230500D03*
X175524000Y-137230500D03*
X178064000Y-137230500D03*
X180604000Y-137230500D03*
X183144000Y-137230500D03*
X185684000Y-137230500D03*
X188224000Y-137230500D03*
X190764000Y-137230500D03*
X193304000Y-137230500D03*
X195844000Y-137230500D03*
X198384000Y-137230500D03*
X200924000Y-137230500D03*
X200924000Y-129610500D03*
X198384000Y-129610500D03*
X195844000Y-129610500D03*
X193304000Y-129610500D03*
X190764000Y-129610500D03*
X188224000Y-129610500D03*
X185684000Y-129610500D03*
X183144000Y-129610500D03*
X180604000Y-129610500D03*
X178064000Y-129610500D03*
X175524000Y-129610500D03*
X172984000Y-129610500D03*
X170444000Y-129610500D03*
X167904000Y-129610500D03*
%TD*%
D10*
%TO.C, *%
X167132000Y-74803000D03*
%TD*%
D16*
%TO.C,D3*%
X230378000Y-133350000D03*
D17*
X230378000Y-135890000D03*
%TD*%
D10*
%TO.C, *%
X184912000Y-85344000D03*
%TD*%
%TO.C, *%
X201422000Y-97917000D03*
%TD*%
%TO.C, *%
X218059000Y-93218000D03*
%TD*%
%TO.C,REF\u002A\u002A*%
X232562000Y-80284000D03*
D11*
X232562000Y-82824000D03*
%TD*%
D10*
%TO.C, *%
X222250000Y-101600000D03*
%TD*%
%TO.C, *%
X175514000Y-126445500D03*
%TD*%
D11*
%TO.C,REF\u002A\u002A*%
X171069000Y-64262000D03*
X171069000Y-66802000D03*
X171069000Y-69342000D03*
D10*
X171069000Y-61722000D03*
%TD*%
%TO.C, *%
X179959000Y-84963000D03*
%TD*%
%TO.C, *%
X188341000Y-77470000D03*
%TD*%
%TO.C, *%
X207645000Y-79248000D03*
%TD*%
D12*
%TO.C,R4*%
X193802000Y-115316000D03*
D13*
X193802000Y-100076000D03*
%TD*%
D10*
%TO.C, *%
X171450000Y-77597000D03*
%TD*%
%TO.C,REF\u002A\u002A*%
X223901000Y-133096000D03*
D11*
X223901000Y-135636000D03*
X223901000Y-138176000D03*
X223901000Y-140716000D03*
%TD*%
D12*
%TO.C,C1*%
X179959000Y-88138000D03*
X179959000Y-90638000D03*
%TD*%
D10*
%TO.C, *%
X167132000Y-96393000D03*
%TD*%
D12*
%TO.C,C2*%
X188468000Y-107970000D03*
X188468000Y-110470000D03*
%TD*%
%TO.C,C4*%
X213614000Y-83840000D03*
X213614000Y-86340000D03*
%TD*%
D10*
%TO.C, *%
X246507000Y-70104000D03*
%TD*%
%TO.C, *%
X215392000Y-76708000D03*
%TD*%
%TO.C, *%
X226060000Y-126492000D03*
%TD*%
%TO.C, *%
X228092000Y-89457729D03*
%TD*%
%TO.C, *%
X193802000Y-96901000D03*
%TD*%
%TO.C, *%
X211201000Y-148082000D03*
%TD*%
%TO.C, *%
X223774000Y-63627000D03*
%TD*%
D12*
%TO.C,R (LED)*%
X248920000Y-135382000D03*
D13*
X238760000Y-135382000D03*
%TD*%
D10*
%TO.C, *%
X193802000Y-118491000D03*
%TD*%
%TO.C, *%
X188468000Y-104795000D03*
%TD*%
%TO.C, *%
X206502000Y-85344000D03*
%TD*%
D16*
%TO.C,D4*%
X254254000Y-76449000D03*
D17*
X254254000Y-78989000D03*
%TD*%
D10*
%TO.C, *%
X215392000Y-126861500D03*
%TD*%
%TO.C, *%
X196469000Y-93218000D03*
%TD*%
D14*
%TO.C,REF\u002A\u002A*%
X251470000Y-114300000D03*
D13*
X251470000Y-116840000D03*
X251470000Y-119380000D03*
X251470000Y-121920000D03*
X259090000Y-121920000D03*
X259090000Y-119380000D03*
X259090000Y-116840000D03*
X259090000Y-114300000D03*
%TD*%
D16*
%TO.C,D2*%
X215392000Y-70358000D03*
D17*
X215392000Y-72898000D03*
%TD*%
D12*
%TO.C,R11*%
X235585000Y-95250000D03*
D13*
X235585000Y-110490000D03*
%TD*%
D10*
%TO.C, *%
X170434000Y-140415500D03*
%TD*%
%TO.C,REF\u002A\u002A*%
X167914000Y-126420500D03*
D11*
X170454000Y-126420500D03*
%TD*%
D10*
%TO.C, *%
X205105000Y-147828000D03*
%TD*%
D14*
%TO.C,U6*%
X218958000Y-109992000D03*
D13*
X218958000Y-112532000D03*
X218958000Y-115072000D03*
X218958000Y-117612000D03*
X226578000Y-117612000D03*
X226578000Y-115072000D03*
X226578000Y-112532000D03*
X226578000Y-109992000D03*
%TD*%
D10*
%TO.C, *%
X183515000Y-147828000D03*
%TD*%
D12*
%TO.C,C3*%
X185146000Y-77470000D03*
X182646000Y-77470000D03*
%TD*%
D14*
%TO.C,C5*%
X219543621Y-126746000D03*
D12*
X222043621Y-126746000D03*
%TD*%
D10*
%TO.C, *%
X188468000Y-113685000D03*
%TD*%
D11*
%TO.C,REF\u002A\u002A*%
X185039000Y-56642000D03*
X185039000Y-59182000D03*
%TD*%
D10*
%TO.C, *%
X169164000Y-103627000D03*
%TD*%
%TO.C, *%
X167894000Y-122635500D03*
%TD*%
%TO.C, *%
X235585000Y-92075000D03*
%TD*%
%TO.C,REF\u002A\u002A*%
X229743000Y-109982000D03*
D11*
X229743000Y-112522000D03*
%TD*%
D10*
%TO.C, *%
X179959000Y-93853000D03*
%TD*%
%TO.C, *%
X181356000Y-98171000D03*
%TD*%
%TO.C, *%
X211328000Y-101854000D03*
%TD*%
D12*
%TO.C,R2*%
X171450000Y-96012000D03*
D13*
X171450000Y-80772000D03*
%TD*%
D10*
%TO.C,REF\u002A\u002A*%
X164846000Y-66777000D03*
D11*
X167386000Y-66777000D03*
%TD*%
D10*
%TO.C, *%
X179451000Y-77470000D03*
%TD*%
D12*
%TO.C,R6*%
X181356000Y-101346000D03*
D13*
X181356000Y-116586000D03*
%TD*%
D19*
%TO.C,PIEZO*%
X246634000Y-145288000D03*
D15*
X241634000Y-145288000D03*
%TD*%
D10*
%TO.C, *%
X180848000Y-126572500D03*
%TD*%
D12*
%TO.C,R5*%
X188087000Y-85344000D03*
D13*
X203327000Y-85344000D03*
%TD*%
D14*
%TO.C,U4*%
X213116000Y-133106000D03*
D13*
X213116000Y-135646000D03*
X213116000Y-138186000D03*
X213116000Y-140726000D03*
X220736000Y-140726000D03*
X220736000Y-138186000D03*
X220736000Y-135646000D03*
X220736000Y-133106000D03*
%TD*%
D10*
%TO.C, *%
X215392000Y-66548000D03*
%TD*%
D12*
%TO.C,R (PIEZO)*%
X260858000Y-140462000D03*
D13*
X250698000Y-140462000D03*
%TD*%
D16*
%TO.C,D1*%
X169164000Y-107437000D03*
D17*
X169164000Y-109977000D03*
%TD*%
D12*
%TO.C,R10*%
X223774000Y-82042000D03*
D13*
X223774000Y-66802000D03*
%TD*%
D10*
%TO.C, *%
X169164000Y-113787000D03*
%TD*%
%TO.C,REF\u002A\u002A*%
X246507000Y-75204000D03*
D11*
X246507000Y-77744000D03*
%TD*%
D10*
%TO.C, *%
X213614000Y-80665000D03*
%TD*%
D12*
%TO.C,R8*%
X214376000Y-148082000D03*
D13*
X229616000Y-148082000D03*
%TD*%
D10*
%TO.C, *%
X181356000Y-119761000D03*
%TD*%
D14*
%TO.C,U1*%
X174254000Y-56637000D03*
D13*
X174254000Y-59177000D03*
X174254000Y-61717000D03*
X174254000Y-64257000D03*
X174254000Y-66797000D03*
X174254000Y-69337000D03*
X174254000Y-71877000D03*
X181874000Y-71877000D03*
X181874000Y-69337000D03*
X181874000Y-66797000D03*
X181874000Y-64257000D03*
X181874000Y-61717000D03*
X181874000Y-59177000D03*
X181874000Y-56637000D03*
%TD*%
D11*
%TO.C, *%
X171069000Y-56642000D03*
%TD*%
D18*
%TO.C,REF\u002A\u002A*%
X245740000Y-129540000D03*
D11*
X248280000Y-129540000D03*
X245740000Y-127000000D03*
X248280000Y-127000000D03*
X245740000Y-124460000D03*
X248280000Y-124460000D03*
X245740000Y-121920000D03*
X248280000Y-121920000D03*
X245740000Y-119380000D03*
X248280000Y-119380000D03*
X245740000Y-116840000D03*
X248280000Y-116840000D03*
X245740000Y-114300000D03*
X248280000Y-114300000D03*
X245740000Y-111760000D03*
X248280000Y-111760000D03*
X245740000Y-109220000D03*
X248280000Y-109220000D03*
X245740000Y-106680000D03*
X248280000Y-106680000D03*
X245740000Y-104140000D03*
X248280000Y-104140000D03*
X245740000Y-101600000D03*
X248280000Y-101600000D03*
X245740000Y-99060000D03*
X248280000Y-99060000D03*
X245740000Y-96520000D03*
X248280000Y-96520000D03*
X245740000Y-93980000D03*
X248280000Y-93980000D03*
%TD*%
M02*
