%TF.GenerationSoftware,KiCad,Pcbnew,(6.0.5)*%
%TF.CreationDate,2022-06-23T14:56:38+02:00*%
%TF.ProjectId,advanced,61647661-6e63-4656-942e-6b696361645f,rev?*%
%TF.SameCoordinates,Original*%
%TF.FileFunction,Legend,Top*%
%TF.FilePolarity,Positive*%
%FSLAX46Y46*%
G04 Gerber Fmt 4.6, Leading zero omitted, Abs format (unit mm)*
G04 Created by KiCad (PCBNEW (6.0.5)) date 2022-06-23 14:56:38*
%MOMM*%
%LPD*%
G01*
G04 APERTURE LIST*
%ADD10C,0.150000*%
%ADD11C,0.120000*%
G04 APERTURE END LIST*
D10*
X240284000Y-88900000D02*
X240284000Y-117856000D01*
X240284000Y-88900000D02*
X262636000Y-88900000D01*
X234696000Y-117856000D02*
X234696000Y-138176000D01*
X240284000Y-117856000D02*
X234696000Y-117856000D01*
X261112000Y-114046000D02*
X261874000Y-115316000D01*
X261112000Y-114046000D02*
X260350000Y-115316000D01*
X234696000Y-138176000D02*
X234696000Y-153416000D01*
X261112000Y-121920000D02*
X261112000Y-114046000D01*
X226760095Y-62372761D02*
X226760095Y-60372761D01*
X226760095Y-61134666D02*
X226950571Y-61039428D01*
X227331523Y-61039428D01*
X227522000Y-61134666D01*
X227617238Y-61229904D01*
X227712476Y-61420380D01*
X227712476Y-61991809D01*
X227617238Y-62182285D01*
X227522000Y-62277523D01*
X227331523Y-62372761D01*
X226950571Y-62372761D01*
X226760095Y-62277523D01*
X228379142Y-61039428D02*
X228855333Y-62372761D01*
X229331523Y-61039428D02*
X228855333Y-62372761D01*
X228664857Y-62848952D01*
X228569619Y-62944190D01*
X228379142Y-63039428D01*
X231617238Y-61039428D02*
X231617238Y-63039428D01*
X231617238Y-61134666D02*
X231807714Y-61039428D01*
X232188666Y-61039428D01*
X232379142Y-61134666D01*
X232474380Y-61229904D01*
X232569619Y-61420380D01*
X232569619Y-61991809D01*
X232474380Y-62182285D01*
X232379142Y-62277523D01*
X232188666Y-62372761D01*
X231807714Y-62372761D01*
X231617238Y-62277523D01*
X233426761Y-62372761D02*
X233426761Y-60372761D01*
X234283904Y-62372761D02*
X234283904Y-61325142D01*
X234188666Y-61134666D01*
X233998190Y-61039428D01*
X233712476Y-61039428D01*
X233522000Y-61134666D01*
X233426761Y-61229904D01*
X236093428Y-61039428D02*
X236093428Y-62372761D01*
X235236285Y-61039428D02*
X235236285Y-62087047D01*
X235331523Y-62277523D01*
X235522000Y-62372761D01*
X235807714Y-62372761D01*
X235998190Y-62277523D01*
X236093428Y-62182285D01*
X237045809Y-62372761D02*
X237045809Y-61039428D01*
X237045809Y-60372761D02*
X236950571Y-60468000D01*
X237045809Y-60563238D01*
X237141047Y-60468000D01*
X237045809Y-60372761D01*
X237045809Y-60563238D01*
X238855333Y-62372761D02*
X238855333Y-60372761D01*
X238855333Y-62277523D02*
X238664857Y-62372761D01*
X238283904Y-62372761D01*
X238093428Y-62277523D01*
X237998190Y-62182285D01*
X237902952Y-61991809D01*
X237902952Y-61420380D01*
X237998190Y-61229904D01*
X238093428Y-61134666D01*
X238283904Y-61039428D01*
X238664857Y-61039428D01*
X238855333Y-61134666D01*
X242950571Y-62372761D02*
X242855333Y-62372761D01*
X242664857Y-62277523D01*
X242379142Y-61991809D01*
X241902952Y-61420380D01*
X241712476Y-61134666D01*
X241617238Y-60848952D01*
X241617238Y-60658476D01*
X241712476Y-60468000D01*
X241902952Y-60372761D01*
X241998190Y-60372761D01*
X242188666Y-60468000D01*
X242283904Y-60658476D01*
X242283904Y-60753714D01*
X242188666Y-60944190D01*
X242093428Y-61039428D01*
X241522000Y-61420380D01*
X241426761Y-61515619D01*
X241331523Y-61706095D01*
X241331523Y-61991809D01*
X241426761Y-62182285D01*
X241522000Y-62277523D01*
X241712476Y-62372761D01*
X241998190Y-62372761D01*
X242188666Y-62277523D01*
X242283904Y-62182285D01*
X242569619Y-61801333D01*
X242664857Y-61515619D01*
X242664857Y-61325142D01*
X245331523Y-62372761D02*
X245331523Y-60372761D01*
X245998190Y-61801333D01*
X246664857Y-60372761D01*
X246664857Y-62372761D01*
X247617238Y-62372761D02*
X247617238Y-61039428D01*
X247617238Y-60372761D02*
X247522000Y-60468000D01*
X247617238Y-60563238D01*
X247712476Y-60468000D01*
X247617238Y-60372761D01*
X247617238Y-60563238D01*
X248855333Y-62372761D02*
X248664857Y-62277523D01*
X248569619Y-62087047D01*
X248569619Y-60372761D01*
X250474380Y-62372761D02*
X250474380Y-60372761D01*
X250474380Y-62277523D02*
X250283904Y-62372761D01*
X249902952Y-62372761D01*
X249712476Y-62277523D01*
X249617238Y-62182285D01*
X249522000Y-61991809D01*
X249522000Y-61420380D01*
X249617238Y-61229904D01*
X249712476Y-61134666D01*
X249902952Y-61039428D01*
X250283904Y-61039428D01*
X250474380Y-61134666D01*
X252283904Y-62372761D02*
X252283904Y-61325142D01*
X252188666Y-61134666D01*
X251998190Y-61039428D01*
X251617238Y-61039428D01*
X251426761Y-61134666D01*
X252283904Y-62277523D02*
X252093428Y-62372761D01*
X251617238Y-62372761D01*
X251426761Y-62277523D01*
X251331523Y-62087047D01*
X251331523Y-61896571D01*
X251426761Y-61706095D01*
X251617238Y-61610857D01*
X252093428Y-61610857D01*
X252283904Y-61515619D01*
X217696000Y-57697714D02*
X218124571Y-57840571D01*
X218267428Y-57983428D01*
X218410285Y-58269142D01*
X218410285Y-58697714D01*
X218267428Y-58983428D01*
X218124571Y-59126285D01*
X217838857Y-59269142D01*
X216696000Y-59269142D01*
X216696000Y-56269142D01*
X217696000Y-56269142D01*
X217981714Y-56412000D01*
X218124571Y-56554857D01*
X218267428Y-56840571D01*
X218267428Y-57126285D01*
X218124571Y-57412000D01*
X217981714Y-57554857D01*
X217696000Y-57697714D01*
X216696000Y-57697714D01*
X220267428Y-56269142D02*
X220838857Y-56269142D01*
X221124571Y-56412000D01*
X221410285Y-56697714D01*
X221553142Y-57269142D01*
X221553142Y-58269142D01*
X221410285Y-58840571D01*
X221124571Y-59126285D01*
X220838857Y-59269142D01*
X220267428Y-59269142D01*
X219981714Y-59126285D01*
X219696000Y-58840571D01*
X219553142Y-58269142D01*
X219553142Y-57269142D01*
X219696000Y-56697714D01*
X219981714Y-56412000D01*
X220267428Y-56269142D01*
X222838857Y-59269142D02*
X222838857Y-56269142D01*
X223838857Y-58412000D01*
X224838857Y-56269142D01*
X224838857Y-59269142D01*
X227267428Y-57697714D02*
X227696000Y-57840571D01*
X227838857Y-57983428D01*
X227981714Y-58269142D01*
X227981714Y-58697714D01*
X227838857Y-58983428D01*
X227696000Y-59126285D01*
X227410285Y-59269142D01*
X226267428Y-59269142D01*
X226267428Y-56269142D01*
X227267428Y-56269142D01*
X227553142Y-56412000D01*
X227696000Y-56554857D01*
X227838857Y-56840571D01*
X227838857Y-57126285D01*
X227696000Y-57412000D01*
X227553142Y-57554857D01*
X227267428Y-57697714D01*
X226267428Y-57697714D01*
X231410285Y-58412000D02*
X232838857Y-58412000D01*
X231124571Y-59269142D02*
X232124571Y-56269142D01*
X233124571Y-59269142D01*
X234124571Y-59269142D02*
X234124571Y-56269142D01*
X234838857Y-56269142D01*
X235267428Y-56412000D01*
X235553142Y-56697714D01*
X235696000Y-56983428D01*
X235838857Y-57554857D01*
X235838857Y-57983428D01*
X235696000Y-58554857D01*
X235553142Y-58840571D01*
X235267428Y-59126285D01*
X234838857Y-59269142D01*
X234124571Y-59269142D01*
X236696000Y-56269142D02*
X237696000Y-59269142D01*
X238696000Y-56269142D01*
X239553142Y-58412000D02*
X240981714Y-58412000D01*
X239267428Y-59269142D02*
X240267428Y-56269142D01*
X241267428Y-59269142D01*
X242267428Y-59269142D02*
X242267428Y-56269142D01*
X243981714Y-59269142D01*
X243981714Y-56269142D01*
X247124571Y-58983428D02*
X246981714Y-59126285D01*
X246553142Y-59269142D01*
X246267428Y-59269142D01*
X245838857Y-59126285D01*
X245553142Y-58840571D01*
X245410285Y-58554857D01*
X245267428Y-57983428D01*
X245267428Y-57554857D01*
X245410285Y-56983428D01*
X245553142Y-56697714D01*
X245838857Y-56412000D01*
X246267428Y-56269142D01*
X246553142Y-56269142D01*
X246981714Y-56412000D01*
X247124571Y-56554857D01*
X248410285Y-57697714D02*
X249410285Y-57697714D01*
X249838857Y-59269142D02*
X248410285Y-59269142D01*
X248410285Y-56269142D01*
X249838857Y-56269142D01*
X251124571Y-59269142D02*
X251124571Y-56269142D01*
X251838857Y-56269142D01*
X252267428Y-56412000D01*
X252553142Y-56697714D01*
X252696000Y-56983428D01*
X252838857Y-57554857D01*
X252838857Y-57983428D01*
X252696000Y-58554857D01*
X252553142Y-58840571D01*
X252267428Y-59126285D01*
X251838857Y-59269142D01*
X251124571Y-59269142D01*
X253460476Y-111196380D02*
X253460476Y-110196380D01*
X253793809Y-110910666D01*
X254127142Y-110196380D01*
X254127142Y-111196380D01*
X254793809Y-110196380D02*
X254984285Y-110196380D01*
X255079523Y-110244000D01*
X255174761Y-110339238D01*
X255222380Y-110529714D01*
X255222380Y-110863047D01*
X255174761Y-111053523D01*
X255079523Y-111148761D01*
X254984285Y-111196380D01*
X254793809Y-111196380D01*
X254698571Y-111148761D01*
X254603333Y-111053523D01*
X254555714Y-110863047D01*
X254555714Y-110529714D01*
X254603333Y-110339238D01*
X254698571Y-110244000D01*
X254793809Y-110196380D01*
X255650952Y-111196380D02*
X255650952Y-110196380D01*
X255889047Y-110196380D01*
X256031904Y-110244000D01*
X256127142Y-110339238D01*
X256174761Y-110434476D01*
X256222380Y-110624952D01*
X256222380Y-110767809D01*
X256174761Y-110958285D01*
X256127142Y-111053523D01*
X256031904Y-111148761D01*
X255889047Y-111196380D01*
X255650952Y-111196380D01*
X256650952Y-110672571D02*
X256984285Y-110672571D01*
X257127142Y-111196380D02*
X256650952Y-111196380D01*
X256650952Y-110196380D01*
X257127142Y-110196380D01*
X241173047Y-142819428D02*
X241934952Y-142819428D01*
X241554000Y-143200380D02*
X241554000Y-142438476D01*
X171958095Y-146820000D02*
X171862857Y-146772380D01*
X171720000Y-146772380D01*
X171577142Y-146820000D01*
X171481904Y-146915238D01*
X171434285Y-147010476D01*
X171386666Y-147200952D01*
X171386666Y-147343809D01*
X171434285Y-147534285D01*
X171481904Y-147629523D01*
X171577142Y-147724761D01*
X171720000Y-147772380D01*
X171815238Y-147772380D01*
X171958095Y-147724761D01*
X172005714Y-147677142D01*
X172005714Y-147343809D01*
X171815238Y-147343809D01*
X172434285Y-147772380D02*
X172434285Y-146772380D01*
X173005714Y-147772380D01*
X173005714Y-146772380D01*
X173481904Y-147772380D02*
X173481904Y-146772380D01*
X173720000Y-146772380D01*
X173862857Y-146820000D01*
X173958095Y-146915238D01*
X174005714Y-147010476D01*
X174053333Y-147200952D01*
X174053333Y-147343809D01*
X174005714Y-147534285D01*
X173958095Y-147629523D01*
X173862857Y-147724761D01*
X173720000Y-147772380D01*
X173481904Y-147772380D01*
X202374666Y-61428380D02*
X202708000Y-62428380D01*
X203041333Y-61428380D01*
X203946095Y-62333142D02*
X203898476Y-62380761D01*
X203755619Y-62428380D01*
X203660380Y-62428380D01*
X203517523Y-62380761D01*
X203422285Y-62285523D01*
X203374666Y-62190285D01*
X203327047Y-61999809D01*
X203327047Y-61856952D01*
X203374666Y-61666476D01*
X203422285Y-61571238D01*
X203517523Y-61476000D01*
X203660380Y-61428380D01*
X203755619Y-61428380D01*
X203898476Y-61476000D01*
X203946095Y-61523619D01*
X204946095Y-62333142D02*
X204898476Y-62380761D01*
X204755619Y-62428380D01*
X204660380Y-62428380D01*
X204517523Y-62380761D01*
X204422285Y-62285523D01*
X204374666Y-62190285D01*
X204327047Y-61999809D01*
X204327047Y-61856952D01*
X204374666Y-61666476D01*
X204422285Y-61571238D01*
X204517523Y-61476000D01*
X204660380Y-61428380D01*
X204755619Y-61428380D01*
X204898476Y-61476000D01*
X204946095Y-61523619D01*
X240348857Y-88026761D02*
X240348857Y-86026761D01*
X240825047Y-86026761D01*
X241110761Y-86122000D01*
X241301238Y-86312476D01*
X241396476Y-86502952D01*
X241491714Y-86883904D01*
X241491714Y-87169619D01*
X241396476Y-87550571D01*
X241301238Y-87741047D01*
X241110761Y-87931523D01*
X240825047Y-88026761D01*
X240348857Y-88026761D01*
X242729809Y-86026761D02*
X243110761Y-86026761D01*
X243301238Y-86122000D01*
X243491714Y-86312476D01*
X243586952Y-86693428D01*
X243586952Y-87360095D01*
X243491714Y-87741047D01*
X243301238Y-87931523D01*
X243110761Y-88026761D01*
X242729809Y-88026761D01*
X242539333Y-87931523D01*
X242348857Y-87741047D01*
X242253619Y-87360095D01*
X242253619Y-86693428D01*
X242348857Y-86312476D01*
X242539333Y-86122000D01*
X242729809Y-86026761D01*
X245967904Y-88026761D02*
X245967904Y-86026761D01*
X247110761Y-88026761D01*
X247110761Y-86026761D01*
X248444095Y-86026761D02*
X248825047Y-86026761D01*
X249015523Y-86122000D01*
X249206000Y-86312476D01*
X249301238Y-86693428D01*
X249301238Y-87360095D01*
X249206000Y-87741047D01*
X249015523Y-87931523D01*
X248825047Y-88026761D01*
X248444095Y-88026761D01*
X248253619Y-87931523D01*
X248063142Y-87741047D01*
X247967904Y-87360095D01*
X247967904Y-86693428D01*
X248063142Y-86312476D01*
X248253619Y-86122000D01*
X248444095Y-86026761D01*
X249872666Y-86026761D02*
X251015523Y-86026761D01*
X250444095Y-88026761D02*
X250444095Y-86026761D01*
X252920285Y-86026761D02*
X254063142Y-86026761D01*
X253491714Y-88026761D02*
X253491714Y-86026761D01*
X255110761Y-86026761D02*
X255491714Y-86026761D01*
X255682190Y-86122000D01*
X255872666Y-86312476D01*
X255967904Y-86693428D01*
X255967904Y-87360095D01*
X255872666Y-87741047D01*
X255682190Y-87931523D01*
X255491714Y-88026761D01*
X255110761Y-88026761D01*
X254920285Y-87931523D01*
X254729809Y-87741047D01*
X254634571Y-87360095D01*
X254634571Y-86693428D01*
X254729809Y-86312476D01*
X254920285Y-86122000D01*
X255110761Y-86026761D01*
X256825047Y-86026761D02*
X256825047Y-87645809D01*
X256920285Y-87836285D01*
X257015523Y-87931523D01*
X257206000Y-88026761D01*
X257586952Y-88026761D01*
X257777428Y-87931523D01*
X257872666Y-87836285D01*
X257967904Y-87645809D01*
X257967904Y-86026761D01*
X260063142Y-87836285D02*
X259967904Y-87931523D01*
X259682190Y-88026761D01*
X259491714Y-88026761D01*
X259206000Y-87931523D01*
X259015523Y-87741047D01*
X258920285Y-87550571D01*
X258825047Y-87169619D01*
X258825047Y-86883904D01*
X258920285Y-86502952D01*
X259015523Y-86312476D01*
X259206000Y-86122000D01*
X259491714Y-86026761D01*
X259682190Y-86026761D01*
X259967904Y-86122000D01*
X260063142Y-86217238D01*
X260920285Y-88026761D02*
X260920285Y-86026761D01*
X260920285Y-86979142D02*
X262063142Y-86979142D01*
X262063142Y-88026761D02*
X262063142Y-86026761D01*
X246253047Y-142819428D02*
X247014952Y-142819428D01*
%TO.C,C5*%
X219386682Y-121853142D02*
X219339063Y-121900761D01*
X219196206Y-121948380D01*
X219100968Y-121948380D01*
X218958110Y-121900761D01*
X218862872Y-121805523D01*
X218815253Y-121710285D01*
X218767634Y-121519809D01*
X218767634Y-121376952D01*
X218815253Y-121186476D01*
X218862872Y-121091238D01*
X218958110Y-120996000D01*
X219100968Y-120948380D01*
X219196206Y-120948380D01*
X219339063Y-120996000D01*
X219386682Y-121043619D01*
X220291444Y-120948380D02*
X219815253Y-120948380D01*
X219767634Y-121424571D01*
X219815253Y-121376952D01*
X219910491Y-121329333D01*
X220148587Y-121329333D01*
X220243825Y-121376952D01*
X220291444Y-121424571D01*
X220339063Y-121519809D01*
X220339063Y-121757904D01*
X220291444Y-121853142D01*
X220243825Y-121900761D01*
X220148587Y-121948380D01*
X219910491Y-121948380D01*
X219815253Y-121900761D01*
X219767634Y-121853142D01*
%TO.C,C6*%
X215068682Y-96961142D02*
X215021063Y-97008761D01*
X214878206Y-97056380D01*
X214782968Y-97056380D01*
X214640110Y-97008761D01*
X214544872Y-96913523D01*
X214497253Y-96818285D01*
X214449634Y-96627809D01*
X214449634Y-96484952D01*
X214497253Y-96294476D01*
X214544872Y-96199238D01*
X214640110Y-96104000D01*
X214782968Y-96056380D01*
X214878206Y-96056380D01*
X215021063Y-96104000D01*
X215068682Y-96151619D01*
X215925825Y-96056380D02*
X215735349Y-96056380D01*
X215640110Y-96104000D01*
X215592491Y-96151619D01*
X215497253Y-96294476D01*
X215449634Y-96484952D01*
X215449634Y-96865904D01*
X215497253Y-96961142D01*
X215544872Y-97008761D01*
X215640110Y-97056380D01*
X215830587Y-97056380D01*
X215925825Y-97008761D01*
X215973444Y-96961142D01*
X216021063Y-96865904D01*
X216021063Y-96627809D01*
X215973444Y-96532571D01*
X215925825Y-96484952D01*
X215830587Y-96437333D01*
X215640110Y-96437333D01*
X215544872Y-96484952D01*
X215497253Y-96532571D01*
X215449634Y-96627809D01*
%TO.C,C8*%
X223199142Y-95827317D02*
X223246761Y-95874936D01*
X223294380Y-96017793D01*
X223294380Y-96113031D01*
X223246761Y-96255889D01*
X223151523Y-96351127D01*
X223056285Y-96398746D01*
X222865809Y-96446365D01*
X222722952Y-96446365D01*
X222532476Y-96398746D01*
X222437238Y-96351127D01*
X222342000Y-96255889D01*
X222294380Y-96113031D01*
X222294380Y-96017793D01*
X222342000Y-95874936D01*
X222389619Y-95827317D01*
X222722952Y-95255889D02*
X222675333Y-95351127D01*
X222627714Y-95398746D01*
X222532476Y-95446365D01*
X222484857Y-95446365D01*
X222389619Y-95398746D01*
X222342000Y-95351127D01*
X222294380Y-95255889D01*
X222294380Y-95065412D01*
X222342000Y-94970174D01*
X222389619Y-94922555D01*
X222484857Y-94874936D01*
X222532476Y-94874936D01*
X222627714Y-94922555D01*
X222675333Y-94970174D01*
X222722952Y-95065412D01*
X222722952Y-95255889D01*
X222770571Y-95351127D01*
X222818190Y-95398746D01*
X222913428Y-95446365D01*
X223103904Y-95446365D01*
X223199142Y-95398746D01*
X223246761Y-95351127D01*
X223294380Y-95255889D01*
X223294380Y-95065412D01*
X223246761Y-94970174D01*
X223199142Y-94922555D01*
X223103904Y-94874936D01*
X222913428Y-94874936D01*
X222818190Y-94922555D01*
X222770571Y-94970174D01*
X222722952Y-95065412D01*
%TO.C, *%
%TO.C,R1*%
X167584380Y-85764666D02*
X167108190Y-86098000D01*
X167584380Y-86336095D02*
X166584380Y-86336095D01*
X166584380Y-85955142D01*
X166632000Y-85859904D01*
X166679619Y-85812285D01*
X166774857Y-85764666D01*
X166917714Y-85764666D01*
X167012952Y-85812285D01*
X167060571Y-85859904D01*
X167108190Y-85955142D01*
X167108190Y-86336095D01*
X167584380Y-84812285D02*
X167584380Y-85383714D01*
X167584380Y-85098000D02*
X166584380Y-85098000D01*
X166727238Y-85193238D01*
X166822476Y-85288476D01*
X166870095Y-85383714D01*
%TO.C, *%
%TO.C,U3*%
X199908095Y-75525380D02*
X199908095Y-76334904D01*
X199955714Y-76430142D01*
X200003333Y-76477761D01*
X200098571Y-76525380D01*
X200289047Y-76525380D01*
X200384285Y-76477761D01*
X200431904Y-76430142D01*
X200479523Y-76334904D01*
X200479523Y-75525380D01*
X200860476Y-75525380D02*
X201479523Y-75525380D01*
X201146190Y-75906333D01*
X201289047Y-75906333D01*
X201384285Y-75953952D01*
X201431904Y-76001571D01*
X201479523Y-76096809D01*
X201479523Y-76334904D01*
X201431904Y-76430142D01*
X201384285Y-76477761D01*
X201289047Y-76525380D01*
X201003333Y-76525380D01*
X200908095Y-76477761D01*
X200860476Y-76430142D01*
%TO.C,R9*%
X202128380Y-108878666D02*
X201652190Y-109212000D01*
X202128380Y-109450095D02*
X201128380Y-109450095D01*
X201128380Y-109069142D01*
X201176000Y-108973904D01*
X201223619Y-108926285D01*
X201318857Y-108878666D01*
X201461714Y-108878666D01*
X201556952Y-108926285D01*
X201604571Y-108973904D01*
X201652190Y-109069142D01*
X201652190Y-109450095D01*
X202128380Y-108402476D02*
X202128380Y-108212000D01*
X202080761Y-108116761D01*
X202033142Y-108069142D01*
X201890285Y-107973904D01*
X201699809Y-107926285D01*
X201318857Y-107926285D01*
X201223619Y-107973904D01*
X201176000Y-108021523D01*
X201128380Y-108116761D01*
X201128380Y-108307238D01*
X201176000Y-108402476D01*
X201223619Y-108450095D01*
X201318857Y-108497714D01*
X201556952Y-108497714D01*
X201652190Y-108450095D01*
X201699809Y-108402476D01*
X201747428Y-108307238D01*
X201747428Y-108116761D01*
X201699809Y-108021523D01*
X201652190Y-107973904D01*
X201556952Y-107926285D01*
%TO.C, *%
%TO.C,RESET*%
X260734380Y-130738380D02*
X260258190Y-131071714D01*
X260734380Y-131309809D02*
X259734380Y-131309809D01*
X259734380Y-130928857D01*
X259782000Y-130833619D01*
X259829619Y-130786000D01*
X259924857Y-130738380D01*
X260067714Y-130738380D01*
X260162952Y-130786000D01*
X260210571Y-130833619D01*
X260258190Y-130928857D01*
X260258190Y-131309809D01*
X260210571Y-130309809D02*
X260210571Y-129976476D01*
X260734380Y-129833619D02*
X260734380Y-130309809D01*
X259734380Y-130309809D01*
X259734380Y-129833619D01*
X260686761Y-129452666D02*
X260734380Y-129309809D01*
X260734380Y-129071714D01*
X260686761Y-128976476D01*
X260639142Y-128928857D01*
X260543904Y-128881238D01*
X260448666Y-128881238D01*
X260353428Y-128928857D01*
X260305809Y-128976476D01*
X260258190Y-129071714D01*
X260210571Y-129262190D01*
X260162952Y-129357428D01*
X260115333Y-129405047D01*
X260020095Y-129452666D01*
X259924857Y-129452666D01*
X259829619Y-129405047D01*
X259782000Y-129357428D01*
X259734380Y-129262190D01*
X259734380Y-129024095D01*
X259782000Y-128881238D01*
X260210571Y-128452666D02*
X260210571Y-128119333D01*
X260734380Y-127976476D02*
X260734380Y-128452666D01*
X259734380Y-128452666D01*
X259734380Y-127976476D01*
X259734380Y-127690761D02*
X259734380Y-127119333D01*
X260734380Y-127405047D02*
X259734380Y-127405047D01*
%TO.C, *%
%TO.C,LED*%
X236522380Y-128917857D02*
X236522380Y-129394047D01*
X235522380Y-129394047D01*
X235998571Y-128584523D02*
X235998571Y-128251190D01*
X236522380Y-128108333D02*
X236522380Y-128584523D01*
X235522380Y-128584523D01*
X235522380Y-128108333D01*
X236522380Y-127679761D02*
X235522380Y-127679761D01*
X235522380Y-127441666D01*
X235570000Y-127298809D01*
X235665238Y-127203571D01*
X235760476Y-127155952D01*
X235950952Y-127108333D01*
X236093809Y-127108333D01*
X236284285Y-127155952D01*
X236379523Y-127203571D01*
X236474761Y-127298809D01*
X236522380Y-127441666D01*
X236522380Y-127679761D01*
%TO.C, *%
%TO.C,U5*%
X238750095Y-75525380D02*
X238750095Y-76334904D01*
X238797714Y-76430142D01*
X238845333Y-76477761D01*
X238940571Y-76525380D01*
X239131047Y-76525380D01*
X239226285Y-76477761D01*
X239273904Y-76430142D01*
X239321523Y-76334904D01*
X239321523Y-75525380D01*
X240273904Y-75525380D02*
X239797714Y-75525380D01*
X239750095Y-76001571D01*
X239797714Y-75953952D01*
X239892952Y-75906333D01*
X240131047Y-75906333D01*
X240226285Y-75953952D01*
X240273904Y-76001571D01*
X240321523Y-76096809D01*
X240321523Y-76334904D01*
X240273904Y-76430142D01*
X240226285Y-76477761D01*
X240131047Y-76525380D01*
X239892952Y-76525380D01*
X239797714Y-76477761D01*
X239750095Y-76430142D01*
%TO.C,R3*%
X194143333Y-148661380D02*
X193810000Y-148185190D01*
X193571904Y-148661380D02*
X193571904Y-147661380D01*
X193952857Y-147661380D01*
X194048095Y-147709000D01*
X194095714Y-147756619D01*
X194143333Y-147851857D01*
X194143333Y-147994714D01*
X194095714Y-148089952D01*
X194048095Y-148137571D01*
X193952857Y-148185190D01*
X193571904Y-148185190D01*
X194476666Y-147661380D02*
X195095714Y-147661380D01*
X194762380Y-148042333D01*
X194905238Y-148042333D01*
X195000476Y-148089952D01*
X195048095Y-148137571D01*
X195095714Y-148232809D01*
X195095714Y-148470904D01*
X195048095Y-148566142D01*
X195000476Y-148613761D01*
X194905238Y-148661380D01*
X194619523Y-148661380D01*
X194524285Y-148613761D01*
X194476666Y-148566142D01*
%TO.C, *%
%TO.C,R7*%
X207097333Y-93797380D02*
X206764000Y-93321190D01*
X206525904Y-93797380D02*
X206525904Y-92797380D01*
X206906857Y-92797380D01*
X207002095Y-92845000D01*
X207049714Y-92892619D01*
X207097333Y-92987857D01*
X207097333Y-93130714D01*
X207049714Y-93225952D01*
X207002095Y-93273571D01*
X206906857Y-93321190D01*
X206525904Y-93321190D01*
X207430666Y-92797380D02*
X208097333Y-92797380D01*
X207668761Y-93797380D01*
%TO.C, *%
%TO.C,U2*%
X181824380Y-134182404D02*
X182633904Y-134182404D01*
X182729142Y-134134785D01*
X182776761Y-134087166D01*
X182824380Y-133991928D01*
X182824380Y-133801452D01*
X182776761Y-133706214D01*
X182729142Y-133658595D01*
X182633904Y-133610976D01*
X181824380Y-133610976D01*
X181919619Y-133182404D02*
X181872000Y-133134785D01*
X181824380Y-133039547D01*
X181824380Y-132801452D01*
X181872000Y-132706214D01*
X181919619Y-132658595D01*
X182014857Y-132610976D01*
X182110095Y-132610976D01*
X182252952Y-132658595D01*
X182824380Y-133230023D01*
X182824380Y-132610976D01*
%TO.C, *%
%TO.C,D3*%
X232227379Y-135358095D02*
X231227379Y-135358095D01*
X231227379Y-135120000D01*
X231274999Y-134977142D01*
X231370237Y-134881904D01*
X231465475Y-134834285D01*
X231655951Y-134786666D01*
X231798808Y-134786666D01*
X231989284Y-134834285D01*
X232084522Y-134881904D01*
X232179760Y-134977142D01*
X232227379Y-135120000D01*
X232227379Y-135358095D01*
X231227379Y-134453333D02*
X231227379Y-133834285D01*
X231608332Y-134167619D01*
X231608332Y-134024761D01*
X231655951Y-133929523D01*
X231703570Y-133881904D01*
X231798808Y-133834285D01*
X232036903Y-133834285D01*
X232132141Y-133881904D01*
X232179760Y-133929523D01*
X232227379Y-134024761D01*
X232227379Y-134310476D01*
X232179760Y-134405714D01*
X232132141Y-134453333D01*
%TO.C, *%
%TO.C,R4*%
X194381380Y-107862666D02*
X193905190Y-108196000D01*
X194381380Y-108434095D02*
X193381380Y-108434095D01*
X193381380Y-108053142D01*
X193429000Y-107957904D01*
X193476619Y-107910285D01*
X193571857Y-107862666D01*
X193714714Y-107862666D01*
X193809952Y-107910285D01*
X193857571Y-107957904D01*
X193905190Y-108053142D01*
X193905190Y-108434095D01*
X193714714Y-107005523D02*
X194381380Y-107005523D01*
X193333761Y-107243619D02*
X194048047Y-107481714D01*
X194048047Y-106862666D01*
%TO.C, *%
%TO.C,C1*%
X179665333Y-89745142D02*
X179617714Y-89792761D01*
X179474857Y-89840380D01*
X179379619Y-89840380D01*
X179236761Y-89792761D01*
X179141523Y-89697523D01*
X179093904Y-89602285D01*
X179046285Y-89411809D01*
X179046285Y-89268952D01*
X179093904Y-89078476D01*
X179141523Y-88983238D01*
X179236761Y-88888000D01*
X179379619Y-88840380D01*
X179474857Y-88840380D01*
X179617714Y-88888000D01*
X179665333Y-88935619D01*
X180617714Y-89840380D02*
X180046285Y-89840380D01*
X180332000Y-89840380D02*
X180332000Y-88840380D01*
X180236761Y-88983238D01*
X180141523Y-89078476D01*
X180046285Y-89126095D01*
%TO.C, *%
%TO.C,C2*%
X188301333Y-109577142D02*
X188253714Y-109624761D01*
X188110857Y-109672380D01*
X188015619Y-109672380D01*
X187872761Y-109624761D01*
X187777523Y-109529523D01*
X187729904Y-109434285D01*
X187682285Y-109243809D01*
X187682285Y-109100952D01*
X187729904Y-108910476D01*
X187777523Y-108815238D01*
X187872761Y-108720000D01*
X188015619Y-108672380D01*
X188110857Y-108672380D01*
X188253714Y-108720000D01*
X188301333Y-108767619D01*
X188682285Y-108767619D02*
X188729904Y-108720000D01*
X188825142Y-108672380D01*
X189063238Y-108672380D01*
X189158476Y-108720000D01*
X189206095Y-108767619D01*
X189253714Y-108862857D01*
X189253714Y-108958095D01*
X189206095Y-109100952D01*
X188634666Y-109672380D01*
X189253714Y-109672380D01*
%TO.C,C4*%
X213447333Y-85447142D02*
X213399714Y-85494761D01*
X213256857Y-85542380D01*
X213161619Y-85542380D01*
X213018761Y-85494761D01*
X212923523Y-85399523D01*
X212875904Y-85304285D01*
X212828285Y-85113809D01*
X212828285Y-84970952D01*
X212875904Y-84780476D01*
X212923523Y-84685238D01*
X213018761Y-84590000D01*
X213161619Y-84542380D01*
X213256857Y-84542380D01*
X213399714Y-84590000D01*
X213447333Y-84637619D01*
X214304476Y-84875714D02*
X214304476Y-85542380D01*
X214066380Y-84494761D02*
X213828285Y-85209047D01*
X214447333Y-85209047D01*
%TO.C, *%
%TO.C,R (LED)*%
X241744761Y-138204380D02*
X241411428Y-137728190D01*
X241173333Y-138204380D02*
X241173333Y-137204380D01*
X241554285Y-137204380D01*
X241649523Y-137252000D01*
X241697142Y-137299619D01*
X241744761Y-137394857D01*
X241744761Y-137537714D01*
X241697142Y-137632952D01*
X241649523Y-137680571D01*
X241554285Y-137728190D01*
X241173333Y-137728190D01*
X243220952Y-138585333D02*
X243173333Y-138537714D01*
X243078095Y-138394857D01*
X243030476Y-138299619D01*
X242982857Y-138156761D01*
X242935238Y-137918666D01*
X242935238Y-137728190D01*
X242982857Y-137490095D01*
X243030476Y-137347238D01*
X243078095Y-137252000D01*
X243173333Y-137109142D01*
X243220952Y-137061523D01*
X244078095Y-138204380D02*
X243601904Y-138204380D01*
X243601904Y-137204380D01*
X244411428Y-137680571D02*
X244744761Y-137680571D01*
X244887619Y-138204380D02*
X244411428Y-138204380D01*
X244411428Y-137204380D01*
X244887619Y-137204380D01*
X245316190Y-138204380D02*
X245316190Y-137204380D01*
X245554285Y-137204380D01*
X245697142Y-137252000D01*
X245792380Y-137347238D01*
X245840000Y-137442476D01*
X245887619Y-137632952D01*
X245887619Y-137775809D01*
X245840000Y-137966285D01*
X245792380Y-138061523D01*
X245697142Y-138156761D01*
X245554285Y-138204380D01*
X245316190Y-138204380D01*
X246220952Y-138585333D02*
X246268571Y-138537714D01*
X246363809Y-138394857D01*
X246411428Y-138299619D01*
X246459047Y-138156761D01*
X246506666Y-137918666D01*
X246506666Y-137728190D01*
X246459047Y-137490095D01*
X246411428Y-137347238D01*
X246363809Y-137252000D01*
X246268571Y-137109142D01*
X246220952Y-137061523D01*
%TO.C, *%
%TO.C,D4*%
X256484380Y-78716095D02*
X255484380Y-78716095D01*
X255484380Y-78478000D01*
X255532000Y-78335142D01*
X255627238Y-78239904D01*
X255722476Y-78192285D01*
X255912952Y-78144666D01*
X256055809Y-78144666D01*
X256246285Y-78192285D01*
X256341523Y-78239904D01*
X256436761Y-78335142D01*
X256484380Y-78478000D01*
X256484380Y-78716095D01*
X255817714Y-77287523D02*
X256484380Y-77287523D01*
X255436761Y-77525619D02*
X256151047Y-77763714D01*
X256151047Y-77144666D01*
%TO.C, *%
%TO.C,D2*%
X217495381Y-72366095D02*
X216495381Y-72366095D01*
X216495381Y-72128000D01*
X216543001Y-71985142D01*
X216638239Y-71889904D01*
X216733477Y-71842285D01*
X216923953Y-71794666D01*
X217066810Y-71794666D01*
X217257286Y-71842285D01*
X217352524Y-71889904D01*
X217447762Y-71985142D01*
X217495381Y-72128000D01*
X217495381Y-72366095D01*
X216590620Y-71413714D02*
X216543001Y-71366095D01*
X216495381Y-71270857D01*
X216495381Y-71032761D01*
X216543001Y-70937523D01*
X216590620Y-70889904D01*
X216685858Y-70842285D01*
X216781096Y-70842285D01*
X216923953Y-70889904D01*
X217495381Y-71461333D01*
X217495381Y-70842285D01*
%TO.C,R11*%
X236164380Y-103512857D02*
X235688190Y-103846190D01*
X236164380Y-104084285D02*
X235164380Y-104084285D01*
X235164380Y-103703333D01*
X235212000Y-103608095D01*
X235259619Y-103560476D01*
X235354857Y-103512857D01*
X235497714Y-103512857D01*
X235592952Y-103560476D01*
X235640571Y-103608095D01*
X235688190Y-103703333D01*
X235688190Y-104084285D01*
X236164380Y-102560476D02*
X236164380Y-103131904D01*
X236164380Y-102846190D02*
X235164380Y-102846190D01*
X235307238Y-102941428D01*
X235402476Y-103036666D01*
X235450095Y-103131904D01*
X236164380Y-101608095D02*
X236164380Y-102179523D01*
X236164380Y-101893809D02*
X235164380Y-101893809D01*
X235307238Y-101989047D01*
X235402476Y-102084285D01*
X235450095Y-102179523D01*
%TO.C, *%
%TO.C,U6*%
X222006095Y-114006380D02*
X222006095Y-114815904D01*
X222053714Y-114911142D01*
X222101333Y-114958761D01*
X222196571Y-115006380D01*
X222387047Y-115006380D01*
X222482285Y-114958761D01*
X222529904Y-114911142D01*
X222577523Y-114815904D01*
X222577523Y-114006380D01*
X223482285Y-114006380D02*
X223291809Y-114006380D01*
X223196571Y-114054000D01*
X223148952Y-114101619D01*
X223053714Y-114244476D01*
X223006095Y-114434952D01*
X223006095Y-114815904D01*
X223053714Y-114911142D01*
X223101333Y-114958761D01*
X223196571Y-115006380D01*
X223387047Y-115006380D01*
X223482285Y-114958761D01*
X223529904Y-114911142D01*
X223577523Y-114815904D01*
X223577523Y-114577809D01*
X223529904Y-114482571D01*
X223482285Y-114434952D01*
X223387047Y-114387333D01*
X223196571Y-114387333D01*
X223101333Y-114434952D01*
X223053714Y-114482571D01*
X223006095Y-114577809D01*
%TO.C, *%
%TO.C,C3*%
X184253142Y-77763666D02*
X184300761Y-77811285D01*
X184348380Y-77954142D01*
X184348380Y-78049380D01*
X184300761Y-78192238D01*
X184205523Y-78287476D01*
X184110285Y-78335095D01*
X183919809Y-78382714D01*
X183776952Y-78382714D01*
X183586476Y-78335095D01*
X183491238Y-78287476D01*
X183396000Y-78192238D01*
X183348380Y-78049380D01*
X183348380Y-77954142D01*
X183396000Y-77811285D01*
X183443619Y-77763666D01*
X183348380Y-77430333D02*
X183348380Y-76811285D01*
X183729333Y-77144619D01*
X183729333Y-77001761D01*
X183776952Y-76906523D01*
X183824571Y-76858904D01*
X183919809Y-76811285D01*
X184157904Y-76811285D01*
X184253142Y-76858904D01*
X184300761Y-76906523D01*
X184348380Y-77001761D01*
X184348380Y-77287476D01*
X184300761Y-77382714D01*
X184253142Y-77430333D01*
%TO.C, *%
%TO.C,R2*%
X171902380Y-88558666D02*
X171426190Y-88892000D01*
X171902380Y-89130095D02*
X170902380Y-89130095D01*
X170902380Y-88749142D01*
X170950000Y-88653904D01*
X170997619Y-88606285D01*
X171092857Y-88558666D01*
X171235714Y-88558666D01*
X171330952Y-88606285D01*
X171378571Y-88653904D01*
X171426190Y-88749142D01*
X171426190Y-89130095D01*
X170997619Y-88177714D02*
X170950000Y-88130095D01*
X170902380Y-88034857D01*
X170902380Y-87796761D01*
X170950000Y-87701523D01*
X170997619Y-87653904D01*
X171092857Y-87606285D01*
X171188095Y-87606285D01*
X171330952Y-87653904D01*
X171902380Y-88225333D01*
X171902380Y-87606285D01*
%TO.C, *%
%TO.C,R6*%
X181808380Y-109132666D02*
X181332190Y-109466000D01*
X181808380Y-109704095D02*
X180808380Y-109704095D01*
X180808380Y-109323142D01*
X180856000Y-109227904D01*
X180903619Y-109180285D01*
X180998857Y-109132666D01*
X181141714Y-109132666D01*
X181236952Y-109180285D01*
X181284571Y-109227904D01*
X181332190Y-109323142D01*
X181332190Y-109704095D01*
X180808380Y-108275523D02*
X180808380Y-108466000D01*
X180856000Y-108561238D01*
X180903619Y-108608857D01*
X181046476Y-108704095D01*
X181236952Y-108751714D01*
X181617904Y-108751714D01*
X181713142Y-108704095D01*
X181760761Y-108656476D01*
X181808380Y-108561238D01*
X181808380Y-108370761D01*
X181760761Y-108275523D01*
X181713142Y-108227904D01*
X181617904Y-108180285D01*
X181379809Y-108180285D01*
X181284571Y-108227904D01*
X181236952Y-108275523D01*
X181189333Y-108370761D01*
X181189333Y-108561238D01*
X181236952Y-108656476D01*
X181284571Y-108704095D01*
X181379809Y-108751714D01*
%TO.C,PIEZO*%
X242181619Y-152910380D02*
X242181619Y-151910380D01*
X242562571Y-151910380D01*
X242657809Y-151958000D01*
X242705428Y-152005619D01*
X242753047Y-152100857D01*
X242753047Y-152243714D01*
X242705428Y-152338952D01*
X242657809Y-152386571D01*
X242562571Y-152434190D01*
X242181619Y-152434190D01*
X243181619Y-152910380D02*
X243181619Y-151910380D01*
X243657809Y-152386571D02*
X243991142Y-152386571D01*
X244134000Y-152910380D02*
X243657809Y-152910380D01*
X243657809Y-151910380D01*
X244134000Y-151910380D01*
X244467333Y-151910380D02*
X245134000Y-151910380D01*
X244467333Y-152910380D01*
X245134000Y-152910380D01*
X245705428Y-151910380D02*
X245895904Y-151910380D01*
X245991142Y-151958000D01*
X246086380Y-152053238D01*
X246134000Y-152243714D01*
X246134000Y-152577047D01*
X246086380Y-152767523D01*
X245991142Y-152862761D01*
X245895904Y-152910380D01*
X245705428Y-152910380D01*
X245610190Y-152862761D01*
X245514952Y-152767523D01*
X245467333Y-152577047D01*
X245467333Y-152243714D01*
X245514952Y-152053238D01*
X245610190Y-151958000D01*
X245705428Y-151910380D01*
%TO.C, *%
%TO.C,R5*%
X195540333Y-85923380D02*
X195207000Y-85447190D01*
X194968904Y-85923380D02*
X194968904Y-84923380D01*
X195349857Y-84923380D01*
X195445095Y-84971000D01*
X195492714Y-85018619D01*
X195540333Y-85113857D01*
X195540333Y-85256714D01*
X195492714Y-85351952D01*
X195445095Y-85399571D01*
X195349857Y-85447190D01*
X194968904Y-85447190D01*
X196445095Y-84923380D02*
X195968904Y-84923380D01*
X195921285Y-85399571D01*
X195968904Y-85351952D01*
X196064142Y-85304333D01*
X196302238Y-85304333D01*
X196397476Y-85351952D01*
X196445095Y-85399571D01*
X196492714Y-85494809D01*
X196492714Y-85732904D01*
X196445095Y-85828142D01*
X196397476Y-85875761D01*
X196302238Y-85923380D01*
X196064142Y-85923380D01*
X195968904Y-85875761D01*
X195921285Y-85828142D01*
%TO.C,U4*%
X216164095Y-136866380D02*
X216164095Y-137675904D01*
X216211714Y-137771142D01*
X216259333Y-137818761D01*
X216354571Y-137866380D01*
X216545047Y-137866380D01*
X216640285Y-137818761D01*
X216687904Y-137771142D01*
X216735523Y-137675904D01*
X216735523Y-136866380D01*
X217640285Y-137199714D02*
X217640285Y-137866380D01*
X217402190Y-136818761D02*
X217164095Y-137533047D01*
X217783142Y-137533047D01*
%TO.C, *%
%TO.C,R (PIEZO)*%
X252849428Y-143708380D02*
X252516095Y-143232190D01*
X252278000Y-143708380D02*
X252278000Y-142708380D01*
X252658952Y-142708380D01*
X252754190Y-142756000D01*
X252801809Y-142803619D01*
X252849428Y-142898857D01*
X252849428Y-143041714D01*
X252801809Y-143136952D01*
X252754190Y-143184571D01*
X252658952Y-143232190D01*
X252278000Y-143232190D01*
X254325619Y-144089333D02*
X254278000Y-144041714D01*
X254182761Y-143898857D01*
X254135142Y-143803619D01*
X254087523Y-143660761D01*
X254039904Y-143422666D01*
X254039904Y-143232190D01*
X254087523Y-142994095D01*
X254135142Y-142851238D01*
X254182761Y-142756000D01*
X254278000Y-142613142D01*
X254325619Y-142565523D01*
X254706571Y-143708380D02*
X254706571Y-142708380D01*
X255087523Y-142708380D01*
X255182761Y-142756000D01*
X255230380Y-142803619D01*
X255278000Y-142898857D01*
X255278000Y-143041714D01*
X255230380Y-143136952D01*
X255182761Y-143184571D01*
X255087523Y-143232190D01*
X254706571Y-143232190D01*
X255706571Y-143708380D02*
X255706571Y-142708380D01*
X256182761Y-143184571D02*
X256516095Y-143184571D01*
X256658952Y-143708380D02*
X256182761Y-143708380D01*
X256182761Y-142708380D01*
X256658952Y-142708380D01*
X256992285Y-142708380D02*
X257658952Y-142708380D01*
X256992285Y-143708380D01*
X257658952Y-143708380D01*
X258230380Y-142708380D02*
X258420857Y-142708380D01*
X258516095Y-142756000D01*
X258611333Y-142851238D01*
X258658952Y-143041714D01*
X258658952Y-143375047D01*
X258611333Y-143565523D01*
X258516095Y-143660761D01*
X258420857Y-143708380D01*
X258230380Y-143708380D01*
X258135142Y-143660761D01*
X258039904Y-143565523D01*
X257992285Y-143375047D01*
X257992285Y-143041714D01*
X258039904Y-142851238D01*
X258135142Y-142756000D01*
X258230380Y-142708380D01*
X258992285Y-144089333D02*
X259039904Y-144041714D01*
X259135142Y-143898857D01*
X259182761Y-143803619D01*
X259230380Y-143660761D01*
X259278000Y-143422666D01*
X259278000Y-143232190D01*
X259230380Y-142994095D01*
X259182761Y-142851238D01*
X259135142Y-142756000D01*
X259039904Y-142613142D01*
X258992285Y-142565523D01*
%TO.C,D1*%
X171013380Y-109445095D02*
X170013380Y-109445095D01*
X170013380Y-109207000D01*
X170061000Y-109064142D01*
X170156238Y-108968904D01*
X170251476Y-108921285D01*
X170441952Y-108873666D01*
X170584809Y-108873666D01*
X170775285Y-108921285D01*
X170870523Y-108968904D01*
X170965761Y-109064142D01*
X171013380Y-109207000D01*
X171013380Y-109445095D01*
X171013380Y-107921285D02*
X171013380Y-108492714D01*
X171013380Y-108207000D02*
X170013380Y-108207000D01*
X170156238Y-108302238D01*
X170251476Y-108397476D01*
X170299095Y-108492714D01*
%TO.C,R10*%
X224226380Y-75064857D02*
X223750190Y-75398190D01*
X224226380Y-75636285D02*
X223226380Y-75636285D01*
X223226380Y-75255333D01*
X223274000Y-75160095D01*
X223321619Y-75112476D01*
X223416857Y-75064857D01*
X223559714Y-75064857D01*
X223654952Y-75112476D01*
X223702571Y-75160095D01*
X223750190Y-75255333D01*
X223750190Y-75636285D01*
X224226380Y-74112476D02*
X224226380Y-74683904D01*
X224226380Y-74398190D02*
X223226380Y-74398190D01*
X223369238Y-74493428D01*
X223464476Y-74588666D01*
X223512095Y-74683904D01*
X223226380Y-73493428D02*
X223226380Y-73398190D01*
X223274000Y-73302952D01*
X223321619Y-73255333D01*
X223416857Y-73207714D01*
X223607333Y-73160095D01*
X223845428Y-73160095D01*
X224035904Y-73207714D01*
X224131142Y-73255333D01*
X224178761Y-73302952D01*
X224226380Y-73398190D01*
X224226380Y-73493428D01*
X224178761Y-73588666D01*
X224131142Y-73636285D01*
X224035904Y-73683904D01*
X223845428Y-73731523D01*
X223607333Y-73731523D01*
X223416857Y-73683904D01*
X223321619Y-73636285D01*
X223274000Y-73588666D01*
X223226380Y-73493428D01*
%TO.C, *%
%TO.C,R8*%
X221829333Y-148534380D02*
X221496000Y-148058190D01*
X221257904Y-148534380D02*
X221257904Y-147534380D01*
X221638857Y-147534380D01*
X221734095Y-147582000D01*
X221781714Y-147629619D01*
X221829333Y-147724857D01*
X221829333Y-147867714D01*
X221781714Y-147962952D01*
X221734095Y-148010571D01*
X221638857Y-148058190D01*
X221257904Y-148058190D01*
X222400761Y-147962952D02*
X222305523Y-147915333D01*
X222257904Y-147867714D01*
X222210285Y-147772476D01*
X222210285Y-147724857D01*
X222257904Y-147629619D01*
X222305523Y-147582000D01*
X222400761Y-147534380D01*
X222591238Y-147534380D01*
X222686476Y-147582000D01*
X222734095Y-147629619D01*
X222781714Y-147724857D01*
X222781714Y-147772476D01*
X222734095Y-147867714D01*
X222686476Y-147915333D01*
X222591238Y-147962952D01*
X222400761Y-147962952D01*
X222305523Y-148010571D01*
X222257904Y-148058190D01*
X222210285Y-148153428D01*
X222210285Y-148343904D01*
X222257904Y-148439142D01*
X222305523Y-148486761D01*
X222400761Y-148534380D01*
X222591238Y-148534380D01*
X222686476Y-148486761D01*
X222734095Y-148439142D01*
X222781714Y-148343904D01*
X222781714Y-148153428D01*
X222734095Y-148058190D01*
X222686476Y-148010571D01*
X222591238Y-147962952D01*
%TO.C, *%
%TO.C,U1*%
X177302095Y-64603380D02*
X177302095Y-65412904D01*
X177349714Y-65508142D01*
X177397333Y-65555761D01*
X177492571Y-65603380D01*
X177683047Y-65603380D01*
X177778285Y-65555761D01*
X177825904Y-65508142D01*
X177873523Y-65412904D01*
X177873523Y-64603380D01*
X178873523Y-65603380D02*
X178302095Y-65603380D01*
X178587809Y-65603380D02*
X178587809Y-64603380D01*
X178492571Y-64746238D01*
X178397333Y-64841476D01*
X178302095Y-64889095D01*
%TO.C, *%
D11*
%TO.C,C5*%
X220514349Y-122779000D02*
X220514349Y-130713000D01*
X223354349Y-125194000D02*
X223354349Y-128298000D01*
X223034349Y-124580000D02*
X223034349Y-125706000D01*
X221234349Y-127786000D02*
X221234349Y-130468000D01*
X222394349Y-123801000D02*
X222394349Y-125706000D01*
X220354349Y-122744000D02*
X220354349Y-130748000D01*
X221554349Y-127786000D02*
X221554349Y-130308000D01*
X220554349Y-122789000D02*
X220554349Y-130703000D01*
X221794349Y-127786000D02*
X221794349Y-130164000D01*
X221034349Y-122941000D02*
X221034349Y-125706000D01*
X222154349Y-127786000D02*
X222154349Y-129902000D01*
X223394349Y-125293000D02*
X223394349Y-128199000D01*
X220394349Y-122752000D02*
X220394349Y-130740000D01*
X219793349Y-122672000D02*
X219793349Y-130820000D01*
X223154349Y-124782000D02*
X223154349Y-128710000D01*
X220033349Y-122694000D02*
X220033349Y-130798000D01*
X222634349Y-127786000D02*
X222634349Y-129443000D01*
X222754349Y-127786000D02*
X222754349Y-129302000D01*
X223634349Y-126213000D02*
X223634349Y-127279000D01*
X222434349Y-127786000D02*
X222434349Y-129653000D01*
X221874349Y-127786000D02*
X221874349Y-130111000D01*
X219993349Y-122689000D02*
X219993349Y-130803000D01*
X219633349Y-122666000D02*
X219633349Y-130826000D01*
X221914349Y-127786000D02*
X221914349Y-130084000D01*
X221594349Y-123206000D02*
X221594349Y-125706000D01*
X222674349Y-124095000D02*
X222674349Y-125706000D01*
X222954349Y-124459000D02*
X222954349Y-125706000D01*
X222754349Y-124190000D02*
X222754349Y-125706000D01*
X221794349Y-123328000D02*
X221794349Y-125706000D01*
X222234349Y-127786000D02*
X222234349Y-129836000D01*
X222594349Y-124005000D02*
X222594349Y-125706000D01*
X221034349Y-127786000D02*
X221034349Y-130551000D01*
X223474349Y-125517000D02*
X223474349Y-127975000D01*
X220754349Y-122844000D02*
X220754349Y-130648000D01*
X221274349Y-123042000D02*
X221274349Y-125706000D01*
X222154349Y-123590000D02*
X222154349Y-125706000D01*
X215143651Y-124431000D02*
X215943651Y-124431000D01*
X220434349Y-122761000D02*
X220434349Y-130731000D01*
X220834349Y-122869000D02*
X220834349Y-130623000D01*
X220193349Y-122716000D02*
X220193349Y-130776000D01*
X221154349Y-122989000D02*
X221154349Y-125706000D01*
X222274349Y-123691000D02*
X222274349Y-125706000D01*
X223074349Y-124644000D02*
X223074349Y-125706000D01*
X220714349Y-122832000D02*
X220714349Y-130660000D01*
X221914349Y-123408000D02*
X221914349Y-125706000D01*
X223554349Y-125798000D02*
X223554349Y-127694000D01*
X221314349Y-123060000D02*
X221314349Y-125706000D01*
X223234349Y-124933000D02*
X223234349Y-128559000D01*
X221674349Y-127786000D02*
X221674349Y-130239000D01*
X220874349Y-122883000D02*
X220874349Y-130609000D01*
X221394349Y-123099000D02*
X221394349Y-125706000D01*
X222394349Y-127786000D02*
X222394349Y-129691000D01*
X223434349Y-125400000D02*
X223434349Y-128092000D01*
X221634349Y-127786000D02*
X221634349Y-130263000D01*
X215543651Y-124031000D02*
X215543651Y-124831000D01*
X221834349Y-123354000D02*
X221834349Y-125706000D01*
X221234349Y-123024000D02*
X221234349Y-125706000D01*
X221194349Y-127786000D02*
X221194349Y-130486000D01*
X220634349Y-122810000D02*
X220634349Y-130682000D01*
X221714349Y-127786000D02*
X221714349Y-130215000D01*
X222274349Y-127786000D02*
X222274349Y-129801000D01*
X222194349Y-123622000D02*
X222194349Y-125706000D01*
X219873349Y-122678000D02*
X219873349Y-130814000D01*
X221114349Y-127786000D02*
X221114349Y-130520000D01*
X222834349Y-124292000D02*
X222834349Y-125706000D01*
X222994349Y-127786000D02*
X222994349Y-128974000D01*
X220674349Y-122821000D02*
X220674349Y-130671000D01*
X223314349Y-125101000D02*
X223314349Y-128391000D01*
X221754349Y-123302000D02*
X221754349Y-125706000D01*
X220113349Y-122704000D02*
X220113349Y-130788000D01*
X222194349Y-127786000D02*
X222194349Y-129870000D01*
X222714349Y-124142000D02*
X222714349Y-125706000D01*
X223074349Y-127786000D02*
X223074349Y-128848000D01*
X223514349Y-125648000D02*
X223514349Y-127844000D01*
X221514349Y-123162000D02*
X221514349Y-125706000D01*
X222114349Y-123557000D02*
X222114349Y-125706000D01*
X220474349Y-122770000D02*
X220474349Y-130722000D01*
X222554349Y-123962000D02*
X222554349Y-125706000D01*
X220794349Y-122857000D02*
X220794349Y-130635000D01*
X223594349Y-125978000D02*
X223594349Y-127514000D01*
X221074349Y-127786000D02*
X221074349Y-130536000D01*
X221594349Y-127786000D02*
X221594349Y-130286000D01*
X221474349Y-123140000D02*
X221474349Y-125706000D01*
X221754349Y-127786000D02*
X221754349Y-130190000D01*
X221354349Y-127786000D02*
X221354349Y-130412000D01*
X221514349Y-127786000D02*
X221514349Y-130330000D01*
X222314349Y-127786000D02*
X222314349Y-129765000D01*
X222874349Y-127786000D02*
X222874349Y-129146000D01*
X220153349Y-122709000D02*
X220153349Y-130783000D01*
X221394349Y-127786000D02*
X221394349Y-130393000D01*
X221314349Y-127786000D02*
X221314349Y-130432000D01*
X221434349Y-127786000D02*
X221434349Y-130373000D01*
X219913349Y-122681000D02*
X219913349Y-130811000D01*
X220073349Y-122698000D02*
X220073349Y-130794000D01*
X223194349Y-124856000D02*
X223194349Y-128636000D01*
X220274349Y-122729000D02*
X220274349Y-130763000D01*
X220954349Y-122911000D02*
X220954349Y-130581000D01*
X221834349Y-127786000D02*
X221834349Y-130138000D01*
X221994349Y-127786000D02*
X221994349Y-130026000D01*
X222314349Y-123727000D02*
X222314349Y-125706000D01*
X221154349Y-127786000D02*
X221154349Y-130503000D01*
X222874349Y-124346000D02*
X222874349Y-125706000D01*
X221874349Y-123381000D02*
X221874349Y-125706000D01*
X221354349Y-123080000D02*
X221354349Y-125706000D01*
X219833349Y-122675000D02*
X219833349Y-130817000D01*
X222354349Y-123763000D02*
X222354349Y-125706000D01*
X222794349Y-127786000D02*
X222794349Y-129251000D01*
X220994349Y-122925000D02*
X220994349Y-130567000D01*
X219673349Y-122667000D02*
X219673349Y-130825000D01*
X222994349Y-124518000D02*
X222994349Y-125706000D01*
X222714349Y-127786000D02*
X222714349Y-129350000D01*
X221474349Y-127786000D02*
X221474349Y-130352000D01*
X219713349Y-122669000D02*
X219713349Y-130823000D01*
X222034349Y-127786000D02*
X222034349Y-129996000D01*
X221114349Y-122972000D02*
X221114349Y-125706000D01*
X222354349Y-127786000D02*
X222354349Y-129729000D01*
X221634349Y-123229000D02*
X221634349Y-125706000D01*
X222514349Y-123920000D02*
X222514349Y-125706000D01*
X221194349Y-123006000D02*
X221194349Y-125706000D01*
X222554349Y-127786000D02*
X222554349Y-129530000D01*
X222594349Y-127786000D02*
X222594349Y-129487000D01*
X219593349Y-122666000D02*
X219593349Y-130826000D01*
X220233349Y-122722000D02*
X220233349Y-130770000D01*
X220594349Y-122799000D02*
X220594349Y-130693000D01*
X222914349Y-127786000D02*
X222914349Y-129091000D01*
X221714349Y-123277000D02*
X221714349Y-125706000D01*
X219553349Y-122666000D02*
X219553349Y-130826000D01*
X222074349Y-123526000D02*
X222074349Y-125706000D01*
X222914349Y-124401000D02*
X222914349Y-125706000D01*
X222234349Y-123656000D02*
X222234349Y-125706000D01*
X222794349Y-124241000D02*
X222794349Y-125706000D01*
X222834349Y-127786000D02*
X222834349Y-129200000D01*
X221554349Y-123184000D02*
X221554349Y-125706000D01*
X221274349Y-127786000D02*
X221274349Y-130450000D01*
X222954349Y-127786000D02*
X222954349Y-129033000D01*
X219953349Y-122685000D02*
X219953349Y-130807000D01*
X222634349Y-124049000D02*
X222634349Y-125706000D01*
X223114349Y-124712000D02*
X223114349Y-128780000D01*
X222074349Y-127786000D02*
X222074349Y-129966000D01*
X222434349Y-123839000D02*
X222434349Y-125706000D01*
X221954349Y-127786000D02*
X221954349Y-130055000D01*
X221074349Y-122956000D02*
X221074349Y-125706000D01*
X222674349Y-127786000D02*
X222674349Y-129397000D01*
X220314349Y-122736000D02*
X220314349Y-130756000D01*
X222474349Y-127786000D02*
X222474349Y-129613000D01*
X222114349Y-127786000D02*
X222114349Y-129935000D01*
X222474349Y-123879000D02*
X222474349Y-125706000D01*
X222514349Y-127786000D02*
X222514349Y-129572000D01*
X221954349Y-123437000D02*
X221954349Y-125706000D01*
X221994349Y-123466000D02*
X221994349Y-125706000D01*
X219753349Y-122670000D02*
X219753349Y-130822000D01*
X222034349Y-123496000D02*
X222034349Y-125706000D01*
X221434349Y-123119000D02*
X221434349Y-125706000D01*
X221674349Y-123253000D02*
X221674349Y-125706000D01*
X223034349Y-127786000D02*
X223034349Y-128912000D01*
X223274349Y-125015000D02*
X223274349Y-128477000D01*
X220914349Y-122896000D02*
X220914349Y-130596000D01*
X223673349Y-126746000D02*
G75*
G03*
X223673349Y-126746000I-4120000J0D01*
G01*
%TO.C,C6*%
X216196349Y-97887000D02*
X216196349Y-105821000D01*
X219036349Y-100302000D02*
X219036349Y-103406000D01*
X218716349Y-99688000D02*
X218716349Y-100814000D01*
X216916349Y-102894000D02*
X216916349Y-105576000D01*
X218076349Y-98909000D02*
X218076349Y-100814000D01*
X216036349Y-97852000D02*
X216036349Y-105856000D01*
X217236349Y-102894000D02*
X217236349Y-105416000D01*
X216236349Y-97897000D02*
X216236349Y-105811000D01*
X217476349Y-102894000D02*
X217476349Y-105272000D01*
X216716349Y-98049000D02*
X216716349Y-100814000D01*
X217836349Y-102894000D02*
X217836349Y-105010000D01*
X219076349Y-100401000D02*
X219076349Y-103307000D01*
X216076349Y-97860000D02*
X216076349Y-105848000D01*
X215475349Y-97780000D02*
X215475349Y-105928000D01*
X218836349Y-99890000D02*
X218836349Y-103818000D01*
X215715349Y-97802000D02*
X215715349Y-105906000D01*
X218316349Y-102894000D02*
X218316349Y-104551000D01*
X218436349Y-102894000D02*
X218436349Y-104410000D01*
X219316349Y-101321000D02*
X219316349Y-102387000D01*
X218116349Y-102894000D02*
X218116349Y-104761000D01*
X217556349Y-102894000D02*
X217556349Y-105219000D01*
X215675349Y-97797000D02*
X215675349Y-105911000D01*
X215315349Y-97774000D02*
X215315349Y-105934000D01*
X217596349Y-102894000D02*
X217596349Y-105192000D01*
X217276349Y-98314000D02*
X217276349Y-100814000D01*
X218356349Y-99203000D02*
X218356349Y-100814000D01*
X218636349Y-99567000D02*
X218636349Y-100814000D01*
X218436349Y-99298000D02*
X218436349Y-100814000D01*
X217476349Y-98436000D02*
X217476349Y-100814000D01*
X217916349Y-102894000D02*
X217916349Y-104944000D01*
X218276349Y-99113000D02*
X218276349Y-100814000D01*
X216716349Y-102894000D02*
X216716349Y-105659000D01*
X219156349Y-100625000D02*
X219156349Y-103083000D01*
X216436349Y-97952000D02*
X216436349Y-105756000D01*
X216956349Y-98150000D02*
X216956349Y-100814000D01*
X217836349Y-98698000D02*
X217836349Y-100814000D01*
X210825651Y-99539000D02*
X211625651Y-99539000D01*
X216116349Y-97869000D02*
X216116349Y-105839000D01*
X216516349Y-97977000D02*
X216516349Y-105731000D01*
X215875349Y-97824000D02*
X215875349Y-105884000D01*
X216836349Y-98097000D02*
X216836349Y-100814000D01*
X217956349Y-98799000D02*
X217956349Y-100814000D01*
X218756349Y-99752000D02*
X218756349Y-100814000D01*
X216396349Y-97940000D02*
X216396349Y-105768000D01*
X217596349Y-98516000D02*
X217596349Y-100814000D01*
X219236349Y-100906000D02*
X219236349Y-102802000D01*
X216996349Y-98168000D02*
X216996349Y-100814000D01*
X218916349Y-100041000D02*
X218916349Y-103667000D01*
X217356349Y-102894000D02*
X217356349Y-105347000D01*
X216556349Y-97991000D02*
X216556349Y-105717000D01*
X217076349Y-98207000D02*
X217076349Y-100814000D01*
X218076349Y-102894000D02*
X218076349Y-104799000D01*
X219116349Y-100508000D02*
X219116349Y-103200000D01*
X217316349Y-102894000D02*
X217316349Y-105371000D01*
X211225651Y-99139000D02*
X211225651Y-99939000D01*
X217516349Y-98462000D02*
X217516349Y-100814000D01*
X216916349Y-98132000D02*
X216916349Y-100814000D01*
X216876349Y-102894000D02*
X216876349Y-105594000D01*
X216316349Y-97918000D02*
X216316349Y-105790000D01*
X217396349Y-102894000D02*
X217396349Y-105323000D01*
X217956349Y-102894000D02*
X217956349Y-104909000D01*
X217876349Y-98730000D02*
X217876349Y-100814000D01*
X215555349Y-97786000D02*
X215555349Y-105922000D01*
X216796349Y-102894000D02*
X216796349Y-105628000D01*
X218516349Y-99400000D02*
X218516349Y-100814000D01*
X218676349Y-102894000D02*
X218676349Y-104082000D01*
X216356349Y-97929000D02*
X216356349Y-105779000D01*
X218996349Y-100209000D02*
X218996349Y-103499000D01*
X217436349Y-98410000D02*
X217436349Y-100814000D01*
X215795349Y-97812000D02*
X215795349Y-105896000D01*
X217876349Y-102894000D02*
X217876349Y-104978000D01*
X218396349Y-99250000D02*
X218396349Y-100814000D01*
X218756349Y-102894000D02*
X218756349Y-103956000D01*
X219196349Y-100756000D02*
X219196349Y-102952000D01*
X217196349Y-98270000D02*
X217196349Y-100814000D01*
X217796349Y-98665000D02*
X217796349Y-100814000D01*
X216156349Y-97878000D02*
X216156349Y-105830000D01*
X218236349Y-99070000D02*
X218236349Y-100814000D01*
X216476349Y-97965000D02*
X216476349Y-105743000D01*
X219276349Y-101086000D02*
X219276349Y-102622000D01*
X216756349Y-102894000D02*
X216756349Y-105644000D01*
X217276349Y-102894000D02*
X217276349Y-105394000D01*
X217156349Y-98248000D02*
X217156349Y-100814000D01*
X217436349Y-102894000D02*
X217436349Y-105298000D01*
X217036349Y-102894000D02*
X217036349Y-105520000D01*
X217196349Y-102894000D02*
X217196349Y-105438000D01*
X217996349Y-102894000D02*
X217996349Y-104873000D01*
X218556349Y-102894000D02*
X218556349Y-104254000D01*
X215835349Y-97817000D02*
X215835349Y-105891000D01*
X217076349Y-102894000D02*
X217076349Y-105501000D01*
X216996349Y-102894000D02*
X216996349Y-105540000D01*
X217116349Y-102894000D02*
X217116349Y-105481000D01*
X215595349Y-97789000D02*
X215595349Y-105919000D01*
X215755349Y-97806000D02*
X215755349Y-105902000D01*
X218876349Y-99964000D02*
X218876349Y-103744000D01*
X215956349Y-97837000D02*
X215956349Y-105871000D01*
X216636349Y-98019000D02*
X216636349Y-105689000D01*
X217516349Y-102894000D02*
X217516349Y-105246000D01*
X217676349Y-102894000D02*
X217676349Y-105134000D01*
X217996349Y-98835000D02*
X217996349Y-100814000D01*
X216836349Y-102894000D02*
X216836349Y-105611000D01*
X218556349Y-99454000D02*
X218556349Y-100814000D01*
X217556349Y-98489000D02*
X217556349Y-100814000D01*
X217036349Y-98188000D02*
X217036349Y-100814000D01*
X215515349Y-97783000D02*
X215515349Y-105925000D01*
X218036349Y-98871000D02*
X218036349Y-100814000D01*
X218476349Y-102894000D02*
X218476349Y-104359000D01*
X216676349Y-98033000D02*
X216676349Y-105675000D01*
X215355349Y-97775000D02*
X215355349Y-105933000D01*
X218676349Y-99626000D02*
X218676349Y-100814000D01*
X218396349Y-102894000D02*
X218396349Y-104458000D01*
X217156349Y-102894000D02*
X217156349Y-105460000D01*
X215395349Y-97777000D02*
X215395349Y-105931000D01*
X217716349Y-102894000D02*
X217716349Y-105104000D01*
X216796349Y-98080000D02*
X216796349Y-100814000D01*
X218036349Y-102894000D02*
X218036349Y-104837000D01*
X217316349Y-98337000D02*
X217316349Y-100814000D01*
X218196349Y-99028000D02*
X218196349Y-100814000D01*
X216876349Y-98114000D02*
X216876349Y-100814000D01*
X218236349Y-102894000D02*
X218236349Y-104638000D01*
X218276349Y-102894000D02*
X218276349Y-104595000D01*
X215275349Y-97774000D02*
X215275349Y-105934000D01*
X215915349Y-97830000D02*
X215915349Y-105878000D01*
X216276349Y-97907000D02*
X216276349Y-105801000D01*
X218596349Y-102894000D02*
X218596349Y-104199000D01*
X217396349Y-98385000D02*
X217396349Y-100814000D01*
X215235349Y-97774000D02*
X215235349Y-105934000D01*
X217756349Y-98634000D02*
X217756349Y-100814000D01*
X218596349Y-99509000D02*
X218596349Y-100814000D01*
X217916349Y-98764000D02*
X217916349Y-100814000D01*
X218476349Y-99349000D02*
X218476349Y-100814000D01*
X218516349Y-102894000D02*
X218516349Y-104308000D01*
X217236349Y-98292000D02*
X217236349Y-100814000D01*
X216956349Y-102894000D02*
X216956349Y-105558000D01*
X218636349Y-102894000D02*
X218636349Y-104141000D01*
X215635349Y-97793000D02*
X215635349Y-105915000D01*
X218316349Y-99157000D02*
X218316349Y-100814000D01*
X218796349Y-99820000D02*
X218796349Y-103888000D01*
X217756349Y-102894000D02*
X217756349Y-105074000D01*
X218116349Y-98947000D02*
X218116349Y-100814000D01*
X217636349Y-102894000D02*
X217636349Y-105163000D01*
X216756349Y-98064000D02*
X216756349Y-100814000D01*
X218356349Y-102894000D02*
X218356349Y-104505000D01*
X215996349Y-97844000D02*
X215996349Y-105864000D01*
X218156349Y-102894000D02*
X218156349Y-104721000D01*
X217796349Y-102894000D02*
X217796349Y-105043000D01*
X218156349Y-98987000D02*
X218156349Y-100814000D01*
X218196349Y-102894000D02*
X218196349Y-104680000D01*
X217636349Y-98545000D02*
X217636349Y-100814000D01*
X217676349Y-98574000D02*
X217676349Y-100814000D01*
X215435349Y-97778000D02*
X215435349Y-105930000D01*
X217716349Y-98604000D02*
X217716349Y-100814000D01*
X217116349Y-98227000D02*
X217116349Y-100814000D01*
X217356349Y-98361000D02*
X217356349Y-100814000D01*
X218716349Y-102894000D02*
X218716349Y-104020000D01*
X218956349Y-100123000D02*
X218956349Y-103585000D01*
X216596349Y-98004000D02*
X216596349Y-105704000D01*
X219355349Y-101854000D02*
G75*
G03*
X219355349Y-101854000I-4120000J0D01*
G01*
%TO.C,C8*%
X224125000Y-94699651D02*
X232059000Y-94699651D01*
X226540000Y-91859651D02*
X229644000Y-91859651D01*
X225926000Y-92179651D02*
X227052000Y-92179651D01*
X229132000Y-93979651D02*
X231814000Y-93979651D01*
X225147000Y-92819651D02*
X227052000Y-92819651D01*
X224090000Y-94859651D02*
X232094000Y-94859651D01*
X229132000Y-93659651D02*
X231654000Y-93659651D01*
X224135000Y-94659651D02*
X232049000Y-94659651D01*
X229132000Y-93419651D02*
X231510000Y-93419651D01*
X224287000Y-94179651D02*
X227052000Y-94179651D01*
X229132000Y-93059651D02*
X231248000Y-93059651D01*
X226639000Y-91819651D02*
X229545000Y-91819651D01*
X224098000Y-94819651D02*
X232086000Y-94819651D01*
X224018000Y-95420651D02*
X232166000Y-95420651D01*
X226128000Y-92059651D02*
X230056000Y-92059651D01*
X224040000Y-95180651D02*
X232144000Y-95180651D01*
X229132000Y-92579651D02*
X230789000Y-92579651D01*
X229132000Y-92459651D02*
X230648000Y-92459651D01*
X227559000Y-91579651D02*
X228625000Y-91579651D01*
X229132000Y-92779651D02*
X230999000Y-92779651D01*
X229132000Y-93339651D02*
X231457000Y-93339651D01*
X224035000Y-95220651D02*
X232149000Y-95220651D01*
X224012000Y-95580651D02*
X232172000Y-95580651D01*
X229132000Y-93299651D02*
X231430000Y-93299651D01*
X224552000Y-93619651D02*
X227052000Y-93619651D01*
X225441000Y-92539651D02*
X227052000Y-92539651D01*
X225805000Y-92259651D02*
X227052000Y-92259651D01*
X225536000Y-92459651D02*
X227052000Y-92459651D01*
X224674000Y-93419651D02*
X227052000Y-93419651D01*
X229132000Y-92979651D02*
X231182000Y-92979651D01*
X225351000Y-92619651D02*
X227052000Y-92619651D01*
X229132000Y-94179651D02*
X231897000Y-94179651D01*
X226863000Y-91739651D02*
X229321000Y-91739651D01*
X224190000Y-94459651D02*
X231994000Y-94459651D01*
X224388000Y-93939651D02*
X227052000Y-93939651D01*
X224936000Y-93059651D02*
X227052000Y-93059651D01*
X225777000Y-100070349D02*
X225777000Y-99270349D01*
X224107000Y-94779651D02*
X232077000Y-94779651D01*
X224215000Y-94379651D02*
X231969000Y-94379651D01*
X224062000Y-95020651D02*
X232122000Y-95020651D01*
X224335000Y-94059651D02*
X227052000Y-94059651D01*
X225037000Y-92939651D02*
X227052000Y-92939651D01*
X225990000Y-92139651D02*
X227052000Y-92139651D01*
X224178000Y-94499651D02*
X232006000Y-94499651D01*
X224754000Y-93299651D02*
X227052000Y-93299651D01*
X227144000Y-91659651D02*
X229040000Y-91659651D01*
X224406000Y-93899651D02*
X227052000Y-93899651D01*
X226279000Y-91979651D02*
X229905000Y-91979651D01*
X229132000Y-93539651D02*
X231585000Y-93539651D01*
X224229000Y-94339651D02*
X231955000Y-94339651D01*
X224445000Y-93819651D02*
X227052000Y-93819651D01*
X229132000Y-92819651D02*
X231037000Y-92819651D01*
X226746000Y-91779651D02*
X229438000Y-91779651D01*
X229132000Y-93579651D02*
X231609000Y-93579651D01*
X225377000Y-99670349D02*
X226177000Y-99670349D01*
X224700000Y-93379651D02*
X227052000Y-93379651D01*
X224370000Y-93979651D02*
X227052000Y-93979651D01*
X229132000Y-94019651D02*
X231832000Y-94019651D01*
X224156000Y-94579651D02*
X232028000Y-94579651D01*
X229132000Y-93499651D02*
X231561000Y-93499651D01*
X229132000Y-92939651D02*
X231147000Y-92939651D01*
X224968000Y-93019651D02*
X227052000Y-93019651D01*
X224024000Y-95340651D02*
X232160000Y-95340651D01*
X229132000Y-94099651D02*
X231866000Y-94099651D01*
X225638000Y-92379651D02*
X227052000Y-92379651D01*
X229132000Y-92219651D02*
X230320000Y-92219651D01*
X224167000Y-94539651D02*
X232017000Y-94539651D01*
X226447000Y-91899651D02*
X229737000Y-91899651D01*
X224648000Y-93459651D02*
X227052000Y-93459651D01*
X224050000Y-95100651D02*
X232134000Y-95100651D01*
X229132000Y-93019651D02*
X231216000Y-93019651D01*
X225488000Y-92499651D02*
X227052000Y-92499651D01*
X229132000Y-92139651D02*
X230194000Y-92139651D01*
X226994000Y-91699651D02*
X229190000Y-91699651D01*
X224508000Y-93699651D02*
X227052000Y-93699651D01*
X224903000Y-93099651D02*
X227052000Y-93099651D01*
X224116000Y-94739651D02*
X232068000Y-94739651D01*
X225308000Y-92659651D02*
X227052000Y-92659651D01*
X224203000Y-94419651D02*
X231981000Y-94419651D01*
X227324000Y-91619651D02*
X228860000Y-91619651D01*
X229132000Y-94139651D02*
X231882000Y-94139651D01*
X229132000Y-93619651D02*
X231632000Y-93619651D01*
X224486000Y-93739651D02*
X227052000Y-93739651D01*
X229132000Y-93459651D02*
X231536000Y-93459651D01*
X229132000Y-93859651D02*
X231758000Y-93859651D01*
X229132000Y-93699651D02*
X231676000Y-93699651D01*
X229132000Y-92899651D02*
X231111000Y-92899651D01*
X229132000Y-92339651D02*
X230492000Y-92339651D01*
X224055000Y-95060651D02*
X232129000Y-95060651D01*
X229132000Y-93819651D02*
X231739000Y-93819651D01*
X229132000Y-93899651D02*
X231778000Y-93899651D01*
X229132000Y-93779651D02*
X231719000Y-93779651D01*
X224027000Y-95300651D02*
X232157000Y-95300651D01*
X224044000Y-95140651D02*
X232140000Y-95140651D01*
X226202000Y-92019651D02*
X229982000Y-92019651D01*
X224075000Y-94939651D02*
X232109000Y-94939651D01*
X224257000Y-94259651D02*
X231927000Y-94259651D01*
X229132000Y-93379651D02*
X231484000Y-93379651D01*
X229132000Y-93219651D02*
X231372000Y-93219651D01*
X225073000Y-92899651D02*
X227052000Y-92899651D01*
X229132000Y-94059651D02*
X231849000Y-94059651D01*
X225692000Y-92339651D02*
X227052000Y-92339651D01*
X224727000Y-93339651D02*
X227052000Y-93339651D01*
X224426000Y-93859651D02*
X227052000Y-93859651D01*
X224021000Y-95380651D02*
X232163000Y-95380651D01*
X225109000Y-92859651D02*
X227052000Y-92859651D01*
X229132000Y-92419651D02*
X230597000Y-92419651D01*
X224271000Y-94219651D02*
X231913000Y-94219651D01*
X224013000Y-95540651D02*
X232171000Y-95540651D01*
X225864000Y-92219651D02*
X227052000Y-92219651D01*
X229132000Y-92499651D02*
X230696000Y-92499651D01*
X229132000Y-93739651D02*
X231698000Y-93739651D01*
X224015000Y-95500651D02*
X232169000Y-95500651D01*
X229132000Y-93179651D02*
X231342000Y-93179651D01*
X224318000Y-94099651D02*
X227052000Y-94099651D01*
X229132000Y-92859651D02*
X231075000Y-92859651D01*
X224575000Y-93579651D02*
X227052000Y-93579651D01*
X225266000Y-92699651D02*
X227052000Y-92699651D01*
X224352000Y-94019651D02*
X227052000Y-94019651D01*
X229132000Y-92659651D02*
X230876000Y-92659651D01*
X229132000Y-92619651D02*
X230833000Y-92619651D01*
X224012000Y-95620651D02*
X232172000Y-95620651D01*
X224068000Y-94980651D02*
X232116000Y-94980651D01*
X224145000Y-94619651D02*
X232039000Y-94619651D01*
X229132000Y-92299651D02*
X230437000Y-92299651D01*
X224623000Y-93499651D02*
X227052000Y-93499651D01*
X224012000Y-95660651D02*
X232172000Y-95660651D01*
X224872000Y-93139651D02*
X227052000Y-93139651D01*
X225747000Y-92299651D02*
X227052000Y-92299651D01*
X225002000Y-92979651D02*
X227052000Y-92979651D01*
X225587000Y-92419651D02*
X227052000Y-92419651D01*
X229132000Y-92379651D02*
X230546000Y-92379651D01*
X224530000Y-93659651D02*
X227052000Y-93659651D01*
X229132000Y-93939651D02*
X231796000Y-93939651D01*
X229132000Y-92259651D02*
X230379000Y-92259651D01*
X224031000Y-95260651D02*
X232153000Y-95260651D01*
X225395000Y-92579651D02*
X227052000Y-92579651D01*
X226058000Y-92099651D02*
X230126000Y-92099651D01*
X229132000Y-93139651D02*
X231312000Y-93139651D01*
X225185000Y-92779651D02*
X227052000Y-92779651D01*
X229132000Y-93259651D02*
X231401000Y-93259651D01*
X224302000Y-94139651D02*
X227052000Y-94139651D01*
X229132000Y-92539651D02*
X230743000Y-92539651D01*
X224082000Y-94899651D02*
X232102000Y-94899651D01*
X229132000Y-92739651D02*
X230959000Y-92739651D01*
X229132000Y-93099651D02*
X231281000Y-93099651D01*
X225225000Y-92739651D02*
X227052000Y-92739651D01*
X229132000Y-92699651D02*
X230918000Y-92699651D01*
X224783000Y-93259651D02*
X227052000Y-93259651D01*
X224812000Y-93219651D02*
X227052000Y-93219651D01*
X224016000Y-95460651D02*
X232168000Y-95460651D01*
X224842000Y-93179651D02*
X227052000Y-93179651D01*
X224465000Y-93779651D02*
X227052000Y-93779651D01*
X224599000Y-93539651D02*
X227052000Y-93539651D01*
X229132000Y-92179651D02*
X230258000Y-92179651D01*
X226361000Y-91939651D02*
X229823000Y-91939651D01*
X224242000Y-94299651D02*
X231942000Y-94299651D01*
X232212000Y-95660651D02*
G75*
G03*
X232212000Y-95660651I-4120000J0D01*
G01*
%TO.C, *%
X253044000Y-84129000D02*
X252924000Y-84129000D01*
X253044000Y-81469000D02*
X252924000Y-81469000D01*
X252924000Y-81469000D02*
X252924000Y-84129000D01*
X255584000Y-82799000D02*
X255584000Y-84129000D01*
X255584000Y-84129000D02*
X254254000Y-84129000D01*
X223774000Y-83887000D02*
X225104000Y-83887000D01*
X222444000Y-86427000D02*
X222444000Y-86547000D01*
X225104000Y-86427000D02*
X225104000Y-86547000D01*
X225104000Y-83887000D02*
X225104000Y-85217000D01*
X222444000Y-86547000D02*
X225104000Y-86547000D01*
X211261000Y-131766000D02*
X211261000Y-133096000D01*
X209931000Y-131766000D02*
X211261000Y-131766000D01*
X208601000Y-134426000D02*
X211261000Y-134426000D01*
X208601000Y-134306000D02*
X208601000Y-134426000D01*
X211261000Y-134306000D02*
X211261000Y-134426000D01*
%TO.C,REF\u002A\u002A*%
X166649000Y-148759000D02*
X179409000Y-148759000D01*
X166649000Y-151419000D02*
X179409000Y-151419000D01*
X179409000Y-151419000D02*
X179409000Y-148759000D01*
X166649000Y-151419000D02*
X166649000Y-148759000D01*
X164049000Y-148759000D02*
X165379000Y-148759000D01*
X164049000Y-150089000D02*
X164049000Y-148759000D01*
%TO.C, *%
X255584000Y-73969000D02*
X254254000Y-73969000D01*
X253044000Y-73969000D02*
X252924000Y-73969000D01*
X252924000Y-71309000D02*
X252924000Y-73969000D01*
X253044000Y-71309000D02*
X252924000Y-71309000D01*
X255584000Y-72639000D02*
X255584000Y-73969000D01*
X200092000Y-118177000D02*
X200092000Y-120837000D01*
X200212000Y-118177000D02*
X200092000Y-118177000D01*
X202752000Y-120837000D02*
X201422000Y-120837000D01*
X202752000Y-119507000D02*
X202752000Y-120837000D01*
X200212000Y-120837000D02*
X200092000Y-120837000D01*
%TO.C,R1*%
X167132000Y-79018000D02*
X167132000Y-80978000D01*
X165412000Y-90218000D02*
X168852000Y-90218000D01*
X168852000Y-80978000D02*
X165412000Y-80978000D01*
X168852000Y-90218000D02*
X168852000Y-80978000D01*
X165412000Y-80978000D02*
X165412000Y-90218000D01*
X167132000Y-92178000D02*
X167132000Y-90218000D01*
%TO.C, *%
X234121000Y-149292000D02*
X234121000Y-149412000D01*
X232791000Y-146752000D02*
X234121000Y-146752000D01*
X234121000Y-146752000D02*
X234121000Y-148082000D01*
X231461000Y-149292000D02*
X231461000Y-149412000D01*
X231461000Y-149412000D02*
X234121000Y-149412000D01*
X246507000Y-81474000D02*
X247837000Y-81474000D01*
X247837000Y-81474000D02*
X247837000Y-82804000D01*
X245177000Y-84134000D02*
X247837000Y-84134000D01*
X245177000Y-84014000D02*
X245177000Y-84134000D01*
X247837000Y-84014000D02*
X247837000Y-84134000D01*
%TO.C,REF\u002A\u002A*%
X195774000Y-58106000D02*
X197104000Y-58106000D01*
X198374000Y-60766000D02*
X198374000Y-58106000D01*
X198374000Y-60766000D02*
X211134000Y-60766000D01*
X195774000Y-59436000D02*
X195774000Y-58106000D01*
X211134000Y-60766000D02*
X211134000Y-58106000D01*
X198374000Y-58106000D02*
X211134000Y-58106000D01*
%TO.C, *%
X212284000Y-88225000D02*
X213614000Y-88225000D01*
X214824000Y-88225000D02*
X214944000Y-88225000D01*
X214944000Y-90885000D02*
X214944000Y-88225000D01*
X214824000Y-90885000D02*
X214944000Y-90885000D01*
X212284000Y-89555000D02*
X212284000Y-88225000D01*
%TO.C,REF\u002A\u002A*%
X174184000Y-140415500D02*
X174184000Y-139085500D01*
X176784000Y-141745500D02*
X176784000Y-139085500D01*
X192084000Y-141745500D02*
X192084000Y-139085500D01*
X176784000Y-139085500D02*
X192084000Y-139085500D01*
X176784000Y-141745500D02*
X192084000Y-141745500D01*
X174184000Y-139085500D02*
X175514000Y-139085500D01*
%TO.C,U3*%
X198020000Y-80588000D02*
X203320000Y-80588000D01*
X203320000Y-80588000D02*
X203320000Y-70308000D01*
X203320000Y-70308000D02*
X201670000Y-70308000D01*
X199670000Y-70308000D02*
X198020000Y-70308000D01*
X198020000Y-70308000D02*
X198020000Y-80588000D01*
X199670000Y-70308000D02*
G75*
G03*
X201670000Y-70308000I1000000J0D01*
G01*
%TO.C,R9*%
X201422000Y-102132000D02*
X201422000Y-104092000D01*
X199702000Y-104092000D02*
X199702000Y-113332000D01*
X203142000Y-104092000D02*
X199702000Y-104092000D01*
X203142000Y-113332000D02*
X203142000Y-104092000D01*
X199702000Y-113332000D02*
X203142000Y-113332000D01*
X201422000Y-115292000D02*
X201422000Y-113332000D01*
%TO.C,REF\u002A\u002A*%
X232537000Y-68774000D02*
X233867000Y-68774000D01*
X231207000Y-76514000D02*
X233867000Y-76514000D01*
X231207000Y-71374000D02*
X233867000Y-71374000D01*
X233867000Y-68774000D02*
X233867000Y-70104000D01*
X231207000Y-71374000D02*
X231207000Y-76514000D01*
X233867000Y-71374000D02*
X233867000Y-76514000D01*
%TO.C, *%
X208975000Y-72838000D02*
X208975000Y-72958000D01*
X206315000Y-72958000D02*
X208975000Y-72958000D01*
X208975000Y-70298000D02*
X208975000Y-71628000D01*
X207645000Y-70298000D02*
X208975000Y-70298000D01*
X206315000Y-72838000D02*
X206315000Y-72958000D01*
X236915000Y-114875000D02*
X236915000Y-114995000D01*
X234255000Y-114995000D02*
X236915000Y-114995000D01*
X234255000Y-114875000D02*
X234255000Y-114995000D01*
X236915000Y-112335000D02*
X236915000Y-113665000D01*
X235585000Y-112335000D02*
X236915000Y-112335000D01*
X170120000Y-100397000D02*
X170120000Y-100517000D01*
X171450000Y-97857000D02*
X172780000Y-97857000D01*
X172780000Y-100397000D02*
X172780000Y-100517000D01*
X170120000Y-100517000D02*
X172780000Y-100517000D01*
X172780000Y-97857000D02*
X172780000Y-99187000D01*
X231708000Y-130870000D02*
X230378000Y-130870000D01*
X229168000Y-130870000D02*
X229048000Y-130870000D01*
X229048000Y-128210000D02*
X229048000Y-130870000D01*
X231708000Y-129540000D02*
X231708000Y-130870000D01*
X229168000Y-128210000D02*
X229048000Y-128210000D01*
%TO.C,REF\u002A\u002A*%
X211261000Y-136846000D02*
X211261000Y-138176000D01*
X208601000Y-139446000D02*
X211261000Y-139446000D01*
X208601000Y-142046000D02*
X211261000Y-142046000D01*
X209931000Y-136846000D02*
X211261000Y-136846000D01*
X208601000Y-139446000D02*
X208601000Y-142046000D01*
X211261000Y-139446000D02*
X211261000Y-142046000D01*
%TO.C,RESET*%
X256782000Y-125786000D02*
X255282000Y-125786000D01*
X252782000Y-127036000D02*
X252782000Y-131536000D01*
X259282000Y-131536000D02*
X259282000Y-127036000D01*
X255282000Y-132786000D02*
X256782000Y-132786000D01*
%TO.C, *%
X228413000Y-118932000D02*
X231073000Y-118932000D01*
X231073000Y-116272000D02*
X231073000Y-117602000D01*
X231073000Y-118812000D02*
X231073000Y-118932000D01*
X229743000Y-116272000D02*
X231073000Y-116272000D01*
X228413000Y-118812000D02*
X228413000Y-118932000D01*
%TO.C,LED*%
X238485000Y-130835000D02*
X241575000Y-130835000D01*
X241574830Y-130835000D02*
G75*
G03*
X240029538Y-125285000I-1544830J2560000D01*
G01*
X240030462Y-125285000D02*
G75*
G03*
X238485170Y-130835000I-462J-2990000D01*
G01*
X242530000Y-128275000D02*
G75*
G03*
X242530000Y-128275000I-2500000J0D01*
G01*
%TO.C,REF\u002A\u002A*%
X214443000Y-118932000D02*
X217103000Y-118932000D01*
X214443000Y-111252000D02*
X214443000Y-118932000D01*
X217103000Y-111252000D02*
X217103000Y-118932000D01*
X215773000Y-108652000D02*
X217103000Y-108652000D01*
X214443000Y-111252000D02*
X217103000Y-111252000D01*
X217103000Y-108652000D02*
X217103000Y-109982000D01*
%TO.C, *%
X229048000Y-138370000D02*
X229048000Y-141030000D01*
X229168000Y-141030000D02*
X229048000Y-141030000D01*
X231708000Y-139700000D02*
X231708000Y-141030000D01*
X229168000Y-138370000D02*
X229048000Y-138370000D01*
X231708000Y-141030000D02*
X230378000Y-141030000D01*
X199704000Y-141625500D02*
X199704000Y-141745500D01*
X197044000Y-141625500D02*
X197044000Y-141745500D01*
X199704000Y-139085500D02*
X199704000Y-140415500D01*
X197044000Y-141745500D02*
X199704000Y-141745500D01*
X198374000Y-139085500D02*
X199704000Y-139085500D01*
%TO.C,U5*%
X236862000Y-66239000D02*
X236862000Y-84139000D01*
X240512000Y-84139000D02*
X242162000Y-84139000D01*
X236862000Y-84139000D02*
X238512000Y-84139000D01*
X242162000Y-66239000D02*
X236862000Y-66239000D01*
X242162000Y-84139000D02*
X242162000Y-66239000D01*
X240512000Y-84139000D02*
G75*
G03*
X238512000Y-84139000I-1000000J0D01*
G01*
%TO.C,R3*%
X198930000Y-149548000D02*
X198930000Y-146108000D01*
X189690000Y-146108000D02*
X189690000Y-149548000D01*
X187730000Y-147828000D02*
X189690000Y-147828000D01*
X198930000Y-146108000D02*
X189690000Y-146108000D01*
X200890000Y-147828000D02*
X198930000Y-147828000D01*
X189690000Y-149548000D02*
X198930000Y-149548000D01*
%TO.C, *%
X183709000Y-73092000D02*
X183709000Y-73212000D01*
X186369000Y-73092000D02*
X186369000Y-73212000D01*
X185039000Y-70552000D02*
X186369000Y-70552000D01*
X183709000Y-73212000D02*
X186369000Y-73212000D01*
X186369000Y-70552000D02*
X186369000Y-71882000D01*
X202244000Y-125115500D02*
X202244000Y-126445500D01*
X199584000Y-127775500D02*
X202244000Y-127775500D01*
X200914000Y-125115500D02*
X202244000Y-125115500D01*
X202244000Y-127655500D02*
X202244000Y-127775500D01*
X199584000Y-127655500D02*
X199584000Y-127775500D01*
%TO.C,R7*%
X211884000Y-94938000D02*
X211884000Y-91498000D01*
X213844000Y-93218000D02*
X211884000Y-93218000D01*
X202644000Y-94938000D02*
X211884000Y-94938000D01*
X200684000Y-93218000D02*
X202644000Y-93218000D01*
X211884000Y-91498000D02*
X202644000Y-91498000D01*
X202644000Y-91498000D02*
X202644000Y-94938000D01*
%TO.C,REF\u002A\u002A*%
X195005000Y-70298000D02*
X195005000Y-71628000D01*
X192345000Y-80578000D02*
X195005000Y-80578000D01*
X192345000Y-72898000D02*
X192345000Y-80578000D01*
X195005000Y-72898000D02*
X195005000Y-80578000D01*
X192345000Y-72898000D02*
X195005000Y-72898000D01*
X193675000Y-70298000D02*
X195005000Y-70298000D01*
%TO.C, *%
X228092000Y-100524000D02*
X229422000Y-100524000D01*
X226762000Y-103064000D02*
X226762000Y-103184000D01*
X229422000Y-103064000D02*
X229422000Y-103184000D01*
X226762000Y-103184000D02*
X229422000Y-103184000D01*
X229422000Y-100524000D02*
X229422000Y-101854000D01*
%TO.C,U2*%
X166574000Y-136070500D02*
X202254000Y-136070500D01*
X202254000Y-136070500D02*
X202254000Y-130770500D01*
X166574000Y-130770500D02*
X166574000Y-132420500D01*
X202254000Y-130770500D02*
X166574000Y-130770500D01*
X166574000Y-134420500D02*
X166574000Y-136070500D01*
X166574000Y-134420500D02*
G75*
G03*
X166574000Y-132420500I0J1000000D01*
G01*
%TO.C, *%
X168462000Y-73473000D02*
X168462000Y-74803000D01*
X165802000Y-76133000D02*
X168462000Y-76133000D01*
X168462000Y-76013000D02*
X168462000Y-76133000D01*
X167132000Y-73473000D02*
X168462000Y-73473000D01*
X165802000Y-76013000D02*
X165802000Y-76133000D01*
%TO.C,D3*%
X231923000Y-132060000D02*
X228833000Y-132060000D01*
X230377538Y-137610000D02*
G75*
G03*
X231922830Y-132060000I462J2990000D01*
G01*
X228833170Y-132060000D02*
G75*
G03*
X230378462Y-137610000I1544830J-2560000D01*
G01*
X232878000Y-134620000D02*
G75*
G03*
X232878000Y-134620000I-2500000J0D01*
G01*
%TO.C, *%
X186242000Y-84014000D02*
X186242000Y-85344000D01*
X184912000Y-84014000D02*
X186242000Y-84014000D01*
X183582000Y-86554000D02*
X183582000Y-86674000D01*
X186242000Y-86554000D02*
X186242000Y-86674000D01*
X183582000Y-86674000D02*
X186242000Y-86674000D01*
X200212000Y-96587000D02*
X200092000Y-96587000D01*
X200092000Y-96587000D02*
X200092000Y-99247000D01*
X202752000Y-99247000D02*
X201422000Y-99247000D01*
X202752000Y-97917000D02*
X202752000Y-99247000D01*
X200212000Y-99247000D02*
X200092000Y-99247000D01*
X216729000Y-94428000D02*
X216729000Y-94548000D01*
X219389000Y-94428000D02*
X219389000Y-94548000D01*
X218059000Y-91888000D02*
X219389000Y-91888000D01*
X219389000Y-91888000D02*
X219389000Y-93218000D01*
X216729000Y-94548000D02*
X219389000Y-94548000D01*
%TO.C,REF\u002A\u002A*%
X231232000Y-84154000D02*
X233892000Y-84154000D01*
X232562000Y-78954000D02*
X233892000Y-78954000D01*
X231232000Y-81554000D02*
X233892000Y-81554000D01*
X233892000Y-78954000D02*
X233892000Y-80284000D01*
X231232000Y-81554000D02*
X231232000Y-84154000D01*
X233892000Y-81554000D02*
X233892000Y-84154000D01*
%TO.C, *%
X220158000Y-103184000D02*
X222818000Y-103184000D01*
X221488000Y-100524000D02*
X222818000Y-100524000D01*
X220158000Y-103064000D02*
X220158000Y-103184000D01*
X222818000Y-103064000D02*
X222818000Y-103184000D01*
X222818000Y-100524000D02*
X222818000Y-101854000D01*
X174184000Y-127655500D02*
X174184000Y-127775500D01*
X175514000Y-125115500D02*
X176844000Y-125115500D01*
X174184000Y-127775500D02*
X176844000Y-127775500D01*
X176844000Y-125115500D02*
X176844000Y-126445500D01*
X176844000Y-127655500D02*
X176844000Y-127775500D01*
%TO.C,REF\u002A\u002A*%
X172399000Y-62992000D02*
X172399000Y-70672000D01*
X171069000Y-60392000D02*
X172399000Y-60392000D01*
X169739000Y-62992000D02*
X172399000Y-62992000D01*
X169739000Y-70672000D02*
X172399000Y-70672000D01*
X169739000Y-62992000D02*
X169739000Y-70672000D01*
X172399000Y-60392000D02*
X172399000Y-61722000D01*
%TO.C, *%
X179959000Y-86293000D02*
X178629000Y-86293000D01*
X178629000Y-83753000D02*
X178629000Y-83633000D01*
X181289000Y-83753000D02*
X181289000Y-83633000D01*
X181289000Y-83633000D02*
X178629000Y-83633000D01*
X178629000Y-86293000D02*
X178629000Y-84963000D01*
X187011000Y-78800000D02*
X187011000Y-77470000D01*
X187011000Y-76260000D02*
X187011000Y-76140000D01*
X188341000Y-78800000D02*
X187011000Y-78800000D01*
X189671000Y-76260000D02*
X189671000Y-76140000D01*
X189671000Y-76140000D02*
X187011000Y-76140000D01*
X208975000Y-80458000D02*
X208975000Y-80578000D01*
X206315000Y-80578000D02*
X208975000Y-80578000D01*
X208975000Y-77918000D02*
X208975000Y-79248000D01*
X207645000Y-77918000D02*
X208975000Y-77918000D01*
X206315000Y-80458000D02*
X206315000Y-80578000D01*
%TO.C,R4*%
X193802000Y-101116000D02*
X193802000Y-103076000D01*
X195522000Y-112316000D02*
X195522000Y-103076000D01*
X192082000Y-103076000D02*
X192082000Y-112316000D01*
X195522000Y-103076000D02*
X192082000Y-103076000D01*
X193802000Y-114276000D02*
X193802000Y-112316000D01*
X192082000Y-112316000D02*
X195522000Y-112316000D01*
%TO.C, *%
X172780000Y-78807000D02*
X172780000Y-78927000D01*
X170120000Y-78807000D02*
X170120000Y-78927000D01*
X170120000Y-78927000D02*
X172780000Y-78927000D01*
X172780000Y-76267000D02*
X172780000Y-77597000D01*
X171450000Y-76267000D02*
X172780000Y-76267000D01*
%TO.C,REF\u002A\u002A*%
X222571000Y-134366000D02*
X225231000Y-134366000D01*
X222571000Y-134366000D02*
X222571000Y-142046000D01*
X225231000Y-134366000D02*
X225231000Y-142046000D01*
X223901000Y-131766000D02*
X225231000Y-131766000D01*
X225231000Y-131766000D02*
X225231000Y-133096000D01*
X222571000Y-142046000D02*
X225231000Y-142046000D01*
%TO.C,C1*%
X181129000Y-91208000D02*
X180884000Y-91208000D01*
X181129000Y-87568000D02*
X181129000Y-91208000D01*
X178789000Y-87568000D02*
X178789000Y-91208000D01*
X179034000Y-91208000D02*
X178789000Y-91208000D01*
X179034000Y-87568000D02*
X178789000Y-87568000D01*
X181129000Y-87568000D02*
X180884000Y-87568000D01*
%TO.C, *%
X165802000Y-97603000D02*
X165802000Y-97723000D01*
X165802000Y-97723000D02*
X168462000Y-97723000D01*
X168462000Y-97603000D02*
X168462000Y-97723000D01*
X168462000Y-95063000D02*
X168462000Y-96393000D01*
X167132000Y-95063000D02*
X168462000Y-95063000D01*
%TO.C,C2*%
X189638000Y-107400000D02*
X189393000Y-107400000D01*
X187543000Y-107400000D02*
X187298000Y-107400000D01*
X189638000Y-107400000D02*
X189638000Y-111040000D01*
X189638000Y-111040000D02*
X189393000Y-111040000D01*
X187543000Y-111040000D02*
X187298000Y-111040000D01*
X187298000Y-107400000D02*
X187298000Y-111040000D01*
%TO.C,C4*%
X214784000Y-83270000D02*
X214539000Y-83270000D01*
X212689000Y-83270000D02*
X212444000Y-83270000D01*
X214784000Y-86910000D02*
X214539000Y-86910000D01*
X212444000Y-83270000D02*
X212444000Y-86910000D01*
X212689000Y-86910000D02*
X212444000Y-86910000D01*
X214784000Y-83270000D02*
X214784000Y-86910000D01*
%TO.C, *%
X247837000Y-71314000D02*
X247837000Y-71434000D01*
X245177000Y-71314000D02*
X245177000Y-71434000D01*
X246507000Y-68774000D02*
X247837000Y-68774000D01*
X245177000Y-71434000D02*
X247837000Y-71434000D01*
X247837000Y-68774000D02*
X247837000Y-70104000D01*
X216722000Y-78038000D02*
X215392000Y-78038000D01*
X214182000Y-75378000D02*
X214062000Y-75378000D01*
X214062000Y-75378000D02*
X214062000Y-78038000D01*
X216722000Y-76708000D02*
X216722000Y-78038000D01*
X214182000Y-78038000D02*
X214062000Y-78038000D01*
X224476000Y-127702000D02*
X224476000Y-127822000D01*
X227136000Y-127702000D02*
X227136000Y-127822000D01*
X225806000Y-125162000D02*
X227136000Y-125162000D01*
X227136000Y-125162000D02*
X227136000Y-126492000D01*
X224476000Y-127822000D02*
X227136000Y-127822000D01*
X228092000Y-88078000D02*
X229422000Y-88078000D01*
X226762000Y-90738000D02*
X229422000Y-90738000D01*
X226762000Y-90618000D02*
X226762000Y-90738000D01*
X229422000Y-90618000D02*
X229422000Y-90738000D01*
X229422000Y-88078000D02*
X229422000Y-89408000D01*
X195132000Y-98231000D02*
X195132000Y-95571000D01*
X192472000Y-95571000D02*
X193802000Y-95571000D01*
X195012000Y-95571000D02*
X195132000Y-95571000D01*
X192472000Y-96901000D02*
X192472000Y-95571000D01*
X195012000Y-98231000D02*
X195132000Y-98231000D01*
X212531000Y-149292000D02*
X212531000Y-149412000D01*
X209871000Y-149412000D02*
X212531000Y-149412000D01*
X209871000Y-149292000D02*
X209871000Y-149412000D01*
X212531000Y-146752000D02*
X212531000Y-148082000D01*
X211201000Y-146752000D02*
X212531000Y-146752000D01*
X222444000Y-64837000D02*
X222444000Y-64957000D01*
X225104000Y-62297000D02*
X225104000Y-63627000D01*
X225104000Y-64837000D02*
X225104000Y-64957000D01*
X223774000Y-62297000D02*
X225104000Y-62297000D01*
X222444000Y-64957000D02*
X225104000Y-64957000D01*
%TO.C,R (LED)*%
X247110000Y-136752000D02*
X247110000Y-134012000D01*
X247110000Y-134012000D02*
X240570000Y-134012000D01*
X240570000Y-134012000D02*
X240570000Y-136752000D01*
X239800000Y-135382000D02*
X240570000Y-135382000D01*
X240570000Y-136752000D02*
X247110000Y-136752000D01*
X247880000Y-135382000D02*
X247110000Y-135382000D01*
%TO.C, *%
X192472000Y-118491000D02*
X192472000Y-117161000D01*
X195012000Y-119821000D02*
X195132000Y-119821000D01*
X195012000Y-117161000D02*
X195132000Y-117161000D01*
X195132000Y-119821000D02*
X195132000Y-117161000D01*
X192472000Y-117161000D02*
X193802000Y-117161000D01*
X189798000Y-104795000D02*
X189798000Y-106125000D01*
X187258000Y-106125000D02*
X187138000Y-106125000D01*
X189798000Y-106125000D02*
X188468000Y-106125000D01*
X187258000Y-103465000D02*
X187138000Y-103465000D01*
X187138000Y-103465000D02*
X187138000Y-106125000D01*
X207832000Y-84014000D02*
X207832000Y-85344000D01*
X205172000Y-86674000D02*
X207832000Y-86674000D01*
X206502000Y-84014000D02*
X207832000Y-84014000D01*
X207832000Y-86554000D02*
X207832000Y-86674000D01*
X205172000Y-86554000D02*
X205172000Y-86674000D01*
%TO.C,D4*%
X255799000Y-75159000D02*
X252709000Y-75159000D01*
X254253538Y-80709000D02*
G75*
G03*
X255798830Y-75159000I462J2990000D01*
G01*
X252709170Y-75159000D02*
G75*
G03*
X254254462Y-80709000I1544830J-2560000D01*
G01*
X256754000Y-77719000D02*
G75*
G03*
X256754000Y-77719000I-2500000J0D01*
G01*
%TO.C, *%
X213106000Y-125531500D02*
X214436000Y-125531500D01*
X211776000Y-128071500D02*
X211776000Y-128191500D01*
X214436000Y-125531500D02*
X214436000Y-126861500D01*
X211776000Y-128191500D02*
X214436000Y-128191500D01*
X214436000Y-128071500D02*
X214436000Y-128191500D01*
X195139000Y-94548000D02*
X197799000Y-94548000D01*
X197799000Y-91888000D02*
X197799000Y-93218000D01*
X196469000Y-91888000D02*
X197799000Y-91888000D01*
X195139000Y-94428000D02*
X195139000Y-94548000D01*
X197799000Y-94428000D02*
X197799000Y-94548000D01*
%TO.C,REF\u002A\u002A*%
X253470000Y-122125000D02*
X254676667Y-122125000D01*
X251870000Y-124030000D02*
X258691000Y-124030000D01*
X253470000Y-113905000D02*
X254676667Y-113905000D01*
X253470000Y-121885000D02*
X254676667Y-121885000D01*
X258691000Y-120370000D02*
X258691000Y-120931000D01*
X253470000Y-116685000D02*
X254676667Y-116685000D01*
X251870000Y-112190000D02*
X258691000Y-112190000D01*
X258691000Y-115290000D02*
X258691000Y-115851000D01*
X251870000Y-122910000D02*
X251870000Y-124030000D01*
X253470000Y-114625000D02*
X254676667Y-114625000D01*
X253470000Y-114025000D02*
X254676667Y-114025000D01*
X257090000Y-121285000D02*
X253470000Y-121285000D01*
X253470000Y-122245000D02*
X254676667Y-122245000D01*
X253470000Y-121765000D02*
X254676667Y-121765000D01*
X253470000Y-114935000D02*
X257090000Y-114935000D01*
X251870000Y-115340000D02*
X251870000Y-115851000D01*
X251630000Y-111950000D02*
X253013000Y-111950000D01*
X253470000Y-113785000D02*
X254676667Y-113785000D01*
X258691000Y-122910000D02*
X258691000Y-124030000D01*
X253470000Y-113665000D02*
X253470000Y-114935000D01*
X253470000Y-116565000D02*
X254676667Y-116565000D01*
X258691000Y-112190000D02*
X258691000Y-113310000D01*
X253470000Y-122005000D02*
X254676667Y-122005000D01*
X253470000Y-119945000D02*
X254676667Y-119945000D01*
X253470000Y-121645000D02*
X254676667Y-121645000D01*
X253470000Y-114265000D02*
X254676667Y-114265000D01*
X253470000Y-121525000D02*
X254676667Y-121525000D01*
X253470000Y-122555000D02*
X257090000Y-122555000D01*
X253470000Y-116805000D02*
X254676667Y-116805000D01*
X253470000Y-117475000D02*
X257090000Y-117475000D01*
X253470000Y-119825000D02*
X254676667Y-119825000D01*
X253470000Y-121405000D02*
X254676667Y-121405000D01*
X253470000Y-121285000D02*
X253470000Y-122555000D01*
X253470000Y-116205000D02*
X253470000Y-117475000D01*
X257090000Y-122555000D02*
X257090000Y-121285000D01*
X253470000Y-119705000D02*
X254676667Y-119705000D01*
X257090000Y-116205000D02*
X253470000Y-116205000D01*
X253470000Y-119345000D02*
X254676667Y-119345000D01*
X253470000Y-116925000D02*
X254676667Y-116925000D01*
X253470000Y-122365000D02*
X254676667Y-122365000D01*
X253470000Y-116325000D02*
X254676667Y-116325000D01*
X254676667Y-121285000D02*
X254676667Y-122555000D01*
X253470000Y-114145000D02*
X254676667Y-114145000D01*
X257090000Y-113665000D02*
X253470000Y-113665000D01*
X253470000Y-114385000D02*
X254676667Y-114385000D01*
X257090000Y-120015000D02*
X257090000Y-118745000D01*
X253470000Y-114745000D02*
X254676667Y-114745000D01*
X253470000Y-119105000D02*
X254676667Y-119105000D01*
X253470000Y-117165000D02*
X254676667Y-117165000D01*
X254676667Y-118745000D02*
X254676667Y-120015000D01*
X253470000Y-120015000D02*
X257090000Y-120015000D01*
X254676667Y-113665000D02*
X254676667Y-114935000D01*
X257090000Y-118745000D02*
X253470000Y-118745000D01*
X251870000Y-120370000D02*
X251870000Y-120931000D01*
X253470000Y-119585000D02*
X254676667Y-119585000D01*
X253470000Y-114505000D02*
X254676667Y-114505000D01*
X253470000Y-118745000D02*
X253470000Y-120015000D01*
X251870000Y-112190000D02*
X251870000Y-113260000D01*
X257090000Y-117475000D02*
X257090000Y-116205000D01*
X251630000Y-111950000D02*
X251630000Y-113260000D01*
X253470000Y-117045000D02*
X254676667Y-117045000D01*
X253470000Y-117405000D02*
X254676667Y-117405000D01*
X253470000Y-122485000D02*
X254676667Y-122485000D01*
X254676667Y-116205000D02*
X254676667Y-117475000D01*
X253470000Y-117285000D02*
X254676667Y-117285000D01*
X251870000Y-117830000D02*
X251870000Y-118391000D01*
X258691000Y-117830000D02*
X258691000Y-118391000D01*
X253470000Y-118865000D02*
X254676667Y-118865000D01*
X253470000Y-119465000D02*
X254676667Y-119465000D01*
X253470000Y-114865000D02*
X254676667Y-114865000D01*
X253470000Y-118985000D02*
X254676667Y-118985000D01*
X257090000Y-114935000D02*
X257090000Y-113665000D01*
X253470000Y-119225000D02*
X254676667Y-119225000D01*
X253470000Y-116445000D02*
X254676667Y-116445000D01*
%TO.C,D2*%
X216937000Y-69068000D02*
X213847000Y-69068000D01*
X213847170Y-69068000D02*
G75*
G03*
X215392462Y-74618000I1544830J-2560000D01*
G01*
X215391538Y-74618000D02*
G75*
G03*
X216936830Y-69068000I462J2990000D01*
G01*
X217892000Y-71628000D02*
G75*
G03*
X217892000Y-71628000I-2500000J0D01*
G01*
%TO.C,R11*%
X237305000Y-107490000D02*
X237305000Y-98250000D01*
X237305000Y-98250000D02*
X233865000Y-98250000D01*
X235585000Y-109450000D02*
X235585000Y-107490000D01*
X235585000Y-96290000D02*
X235585000Y-98250000D01*
X233865000Y-107490000D02*
X237305000Y-107490000D01*
X233865000Y-98250000D02*
X233865000Y-107490000D01*
%TO.C, *%
X170434000Y-139085500D02*
X171764000Y-139085500D01*
X169104000Y-141625500D02*
X169104000Y-141745500D01*
X171764000Y-141625500D02*
X171764000Y-141745500D01*
X169104000Y-141745500D02*
X171764000Y-141745500D01*
X171764000Y-139085500D02*
X171764000Y-140415500D01*
%TO.C,REF\u002A\u002A*%
X171784000Y-127750500D02*
X171784000Y-125090500D01*
X166584000Y-126420500D02*
X166584000Y-125090500D01*
X166584000Y-125090500D02*
X167914000Y-125090500D01*
X169184000Y-125090500D02*
X171784000Y-125090500D01*
X169184000Y-127750500D02*
X171784000Y-127750500D01*
X169184000Y-127750500D02*
X169184000Y-125090500D01*
%TO.C, *%
X203775000Y-149158000D02*
X206435000Y-149158000D01*
X203775000Y-149038000D02*
X203775000Y-149158000D01*
X206435000Y-146498000D02*
X206435000Y-147828000D01*
X206435000Y-149038000D02*
X206435000Y-149158000D01*
X205105000Y-146498000D02*
X206435000Y-146498000D01*
%TO.C,U6*%
X225418000Y-118942000D02*
X225418000Y-108662000D01*
X220118000Y-118942000D02*
X225418000Y-118942000D01*
X225418000Y-108662000D02*
X223768000Y-108662000D01*
X220118000Y-108662000D02*
X220118000Y-118942000D01*
X221768000Y-108662000D02*
X220118000Y-108662000D01*
X221768000Y-108662000D02*
G75*
G03*
X223768000Y-108662000I1000000J0D01*
G01*
%TO.C, *%
X183515000Y-146498000D02*
X184845000Y-146498000D01*
X184845000Y-149038000D02*
X184845000Y-149158000D01*
X182185000Y-149038000D02*
X182185000Y-149158000D01*
X182185000Y-149158000D02*
X184845000Y-149158000D01*
X184845000Y-146498000D02*
X184845000Y-147828000D01*
%TO.C,C3*%
X185716000Y-76545000D02*
X185716000Y-76300000D01*
X185716000Y-78640000D02*
X185716000Y-78395000D01*
X182076000Y-76545000D02*
X182076000Y-76300000D01*
X185716000Y-76300000D02*
X182076000Y-76300000D01*
X182076000Y-78640000D02*
X182076000Y-78395000D01*
X185716000Y-78640000D02*
X182076000Y-78640000D01*
%TO.C, *%
X189798000Y-115015000D02*
X188468000Y-115015000D01*
X189798000Y-113685000D02*
X189798000Y-115015000D01*
X187138000Y-112355000D02*
X187138000Y-115015000D01*
X187258000Y-115015000D02*
X187138000Y-115015000D01*
X187258000Y-112355000D02*
X187138000Y-112355000D01*
%TO.C,REF\u002A\u002A*%
X183709000Y-57912000D02*
X186369000Y-57912000D01*
X185039000Y-55312000D02*
X186369000Y-55312000D01*
X186369000Y-55312000D02*
X186369000Y-56642000D01*
X183709000Y-57912000D02*
X183709000Y-60512000D01*
X183709000Y-60512000D02*
X186369000Y-60512000D01*
X186369000Y-57912000D02*
X186369000Y-60512000D01*
%TO.C, *%
X170494000Y-102297000D02*
X170494000Y-103627000D01*
X167834000Y-104957000D02*
X170494000Y-104957000D01*
X169164000Y-102297000D02*
X170494000Y-102297000D01*
X167834000Y-104837000D02*
X167834000Y-104957000D01*
X170494000Y-104837000D02*
X170494000Y-104957000D01*
X167894000Y-121305500D02*
X169224000Y-121305500D01*
X169224000Y-121305500D02*
X169224000Y-122635500D01*
X166564000Y-123965500D02*
X169224000Y-123965500D01*
X169224000Y-123845500D02*
X169224000Y-123965500D01*
X166564000Y-123845500D02*
X166564000Y-123965500D01*
X236915000Y-90745000D02*
X236915000Y-92075000D01*
X234255000Y-93405000D02*
X236915000Y-93405000D01*
X234255000Y-93285000D02*
X234255000Y-93405000D01*
X236915000Y-93285000D02*
X236915000Y-93405000D01*
X235585000Y-90745000D02*
X236915000Y-90745000D01*
%TO.C,REF\u002A\u002A*%
X231073000Y-111252000D02*
X231073000Y-113852000D01*
X228413000Y-111252000D02*
X231073000Y-111252000D01*
X231073000Y-108652000D02*
X231073000Y-109982000D01*
X229743000Y-108652000D02*
X231073000Y-108652000D01*
X228413000Y-111252000D02*
X228413000Y-113852000D01*
X228413000Y-113852000D02*
X231073000Y-113852000D01*
%TO.C, *%
X178629000Y-92643000D02*
X178629000Y-92523000D01*
X181289000Y-92643000D02*
X181289000Y-92523000D01*
X179959000Y-95183000D02*
X178629000Y-95183000D01*
X178629000Y-95183000D02*
X178629000Y-93853000D01*
X181289000Y-92523000D02*
X178629000Y-92523000D01*
X180026000Y-99501000D02*
X182686000Y-99501000D01*
X182686000Y-99381000D02*
X182686000Y-99501000D01*
X181356000Y-96841000D02*
X182686000Y-96841000D01*
X182686000Y-96841000D02*
X182686000Y-98171000D01*
X180026000Y-99381000D02*
X180026000Y-99501000D01*
X207712000Y-103438000D02*
X210372000Y-103438000D01*
X210372000Y-103318000D02*
X210372000Y-103438000D01*
X207712000Y-103318000D02*
X207712000Y-103438000D01*
X210372000Y-100778000D02*
X210372000Y-102108000D01*
X209042000Y-100778000D02*
X210372000Y-100778000D01*
%TO.C,R2*%
X173170000Y-93012000D02*
X173170000Y-83772000D01*
X173170000Y-83772000D02*
X169730000Y-83772000D01*
X169730000Y-93012000D02*
X173170000Y-93012000D01*
X169730000Y-83772000D02*
X169730000Y-93012000D01*
X171450000Y-94972000D02*
X171450000Y-93012000D01*
X171450000Y-81812000D02*
X171450000Y-83772000D01*
%TO.C,REF\u002A\u002A*%
X166116000Y-68107000D02*
X168716000Y-68107000D01*
X166116000Y-65447000D02*
X168716000Y-65447000D01*
X163516000Y-66777000D02*
X163516000Y-65447000D01*
X163516000Y-65447000D02*
X164846000Y-65447000D01*
X168716000Y-68107000D02*
X168716000Y-65447000D01*
X166116000Y-68107000D02*
X166116000Y-65447000D01*
%TO.C, *%
X179451000Y-78800000D02*
X178121000Y-78800000D01*
X180781000Y-76140000D02*
X178121000Y-76140000D01*
X180781000Y-76260000D02*
X180781000Y-76140000D01*
X178121000Y-76260000D02*
X178121000Y-76140000D01*
X178121000Y-78800000D02*
X178121000Y-77470000D01*
%TO.C,R6*%
X179636000Y-104346000D02*
X179636000Y-113586000D01*
X183076000Y-104346000D02*
X179636000Y-104346000D01*
X181356000Y-115546000D02*
X181356000Y-113586000D01*
X183076000Y-113586000D02*
X183076000Y-104346000D01*
X179636000Y-113586000D02*
X183076000Y-113586000D01*
X181356000Y-102386000D02*
X181356000Y-104346000D01*
%TO.C,PIEZO*%
X250534000Y-146788000D02*
G75*
G03*
X250534000Y-143788001I-6400000J1500000D01*
G01*
X250364000Y-145288000D02*
G75*
G03*
X250364000Y-145288000I-6230000J0D01*
G01*
%TO.C, *%
X182178000Y-127782500D02*
X182178000Y-127902500D01*
X179518000Y-127782500D02*
X179518000Y-127902500D01*
X182178000Y-125242500D02*
X182178000Y-126572500D01*
X179518000Y-127902500D02*
X182178000Y-127902500D01*
X180848000Y-125242500D02*
X182178000Y-125242500D01*
%TO.C,R5*%
X200327000Y-87064000D02*
X200327000Y-83624000D01*
X189127000Y-85344000D02*
X191087000Y-85344000D01*
X191087000Y-87064000D02*
X200327000Y-87064000D01*
X202287000Y-85344000D02*
X200327000Y-85344000D01*
X200327000Y-83624000D02*
X191087000Y-83624000D01*
X191087000Y-83624000D02*
X191087000Y-87064000D01*
%TO.C,U4*%
X214276000Y-142056000D02*
X219576000Y-142056000D01*
X219576000Y-131776000D02*
X217926000Y-131776000D01*
X219576000Y-142056000D02*
X219576000Y-131776000D01*
X214276000Y-131776000D02*
X214276000Y-142056000D01*
X215926000Y-131776000D02*
X214276000Y-131776000D01*
X215926000Y-131776000D02*
G75*
G03*
X217926000Y-131776000I1000000J0D01*
G01*
%TO.C, *%
X216722000Y-66548000D02*
X216722000Y-67878000D01*
X214182000Y-67878000D02*
X214062000Y-67878000D01*
X214062000Y-65218000D02*
X214062000Y-67878000D01*
X216722000Y-67878000D02*
X215392000Y-67878000D01*
X214182000Y-65218000D02*
X214062000Y-65218000D01*
%TO.C,R (PIEZO)*%
X252508000Y-141832000D02*
X259048000Y-141832000D01*
X252508000Y-139092000D02*
X252508000Y-141832000D01*
X251738000Y-140462000D02*
X252508000Y-140462000D01*
X259048000Y-141832000D02*
X259048000Y-139092000D01*
X259818000Y-140462000D02*
X259048000Y-140462000D01*
X259048000Y-139092000D02*
X252508000Y-139092000D01*
%TO.C,D1*%
X170709000Y-106147000D02*
X167619000Y-106147000D01*
X169163538Y-111697000D02*
G75*
G03*
X170708830Y-106147000I462J2990000D01*
G01*
X167619170Y-106147000D02*
G75*
G03*
X169164462Y-111697000I1544830J-2560000D01*
G01*
X171664000Y-108707000D02*
G75*
G03*
X171664000Y-108707000I-2500000J0D01*
G01*
%TO.C,R10*%
X222054000Y-69802000D02*
X222054000Y-79042000D01*
X223774000Y-81002000D02*
X223774000Y-79042000D01*
X225494000Y-69802000D02*
X222054000Y-69802000D01*
X225494000Y-79042000D02*
X225494000Y-69802000D01*
X222054000Y-79042000D02*
X225494000Y-79042000D01*
X223774000Y-67842000D02*
X223774000Y-69802000D01*
%TO.C, *%
X167834000Y-115117000D02*
X170494000Y-115117000D01*
X167834000Y-114997000D02*
X167834000Y-115117000D01*
X170494000Y-114997000D02*
X170494000Y-115117000D01*
X169164000Y-112457000D02*
X170494000Y-112457000D01*
X170494000Y-112457000D02*
X170494000Y-113787000D01*
%TO.C,REF\u002A\u002A*%
X245177000Y-79074000D02*
X247837000Y-79074000D01*
X246507000Y-73874000D02*
X247837000Y-73874000D01*
X245177000Y-76474000D02*
X247837000Y-76474000D01*
X247837000Y-76474000D02*
X247837000Y-79074000D01*
X247837000Y-73874000D02*
X247837000Y-75204000D01*
X245177000Y-76474000D02*
X245177000Y-79074000D01*
%TO.C, *%
X214944000Y-81995000D02*
X214944000Y-79335000D01*
X214824000Y-79335000D02*
X214944000Y-79335000D01*
X212284000Y-80665000D02*
X212284000Y-79335000D01*
X214824000Y-81995000D02*
X214944000Y-81995000D01*
X212284000Y-79335000D02*
X213614000Y-79335000D01*
%TO.C,R8*%
X217376000Y-146362000D02*
X217376000Y-149802000D01*
X226616000Y-149802000D02*
X226616000Y-146362000D01*
X226616000Y-146362000D02*
X217376000Y-146362000D01*
X215416000Y-148082000D02*
X217376000Y-148082000D01*
X217376000Y-149802000D02*
X226616000Y-149802000D01*
X228576000Y-148082000D02*
X226616000Y-148082000D01*
%TO.C, *%
X182686000Y-120971000D02*
X182686000Y-121091000D01*
X182686000Y-118431000D02*
X182686000Y-119761000D01*
X181356000Y-118431000D02*
X182686000Y-118431000D01*
X180026000Y-120971000D02*
X180026000Y-121091000D01*
X180026000Y-121091000D02*
X182686000Y-121091000D01*
%TO.C,U1*%
X180714000Y-55307000D02*
X179064000Y-55307000D01*
X175414000Y-73207000D02*
X180714000Y-73207000D01*
X175414000Y-55307000D02*
X175414000Y-73207000D01*
X177064000Y-55307000D02*
X175414000Y-55307000D01*
X180714000Y-73207000D02*
X180714000Y-55307000D01*
X177064000Y-55307000D02*
G75*
G03*
X179064000Y-55307000I1000000J0D01*
G01*
%TO.C, *%
X169739000Y-57972000D02*
X172399000Y-57972000D01*
X171069000Y-55312000D02*
X172399000Y-55312000D01*
X172399000Y-57852000D02*
X172399000Y-57972000D01*
X172399000Y-55312000D02*
X172399000Y-56642000D01*
X169739000Y-57852000D02*
X169739000Y-57972000D01*
%TD*%
M02*
