%TF.GenerationSoftware,KiCad,Pcbnew,(6.0.5)*%
%TF.CreationDate,2022-06-23T14:56:38+02:00*%
%TF.ProjectId,advanced,61647661-6e63-4656-942e-6b696361645f,rev?*%
%TF.SameCoordinates,Original*%
%TF.FileFunction,Copper,L2,Bot*%
%TF.FilePolarity,Positive*%
%FSLAX46Y46*%
G04 Gerber Fmt 4.6, Leading zero omitted, Abs format (unit mm)*
G04 Created by KiCad (PCBNEW (6.0.5)) date 2022-06-23 14:56:38*
%MOMM*%
%LPD*%
G01*
G04 APERTURE LIST*
%TA.AperFunction,ComponentPad*%
%ADD10R,1.600000X1.600000*%
%TD*%
%TA.AperFunction,ComponentPad*%
%ADD11C,1.600000*%
%TD*%
%TA.AperFunction,ComponentPad*%
%ADD12C,1.700000*%
%TD*%
%TA.AperFunction,ComponentPad*%
%ADD13O,1.700000X1.700000*%
%TD*%
%TA.AperFunction,ComponentPad*%
%ADD14O,1.600000X1.600000*%
%TD*%
%TA.AperFunction,ComponentPad*%
%ADD15C,2.000000*%
%TD*%
%TA.AperFunction,ComponentPad*%
%ADD16R,1.800000X1.800000*%
%TD*%
%TA.AperFunction,ComponentPad*%
%ADD17C,1.800000*%
%TD*%
%TA.AperFunction,ComponentPad*%
%ADD18R,1.700000X1.700000*%
%TD*%
%TA.AperFunction,ComponentPad*%
%ADD19R,2.000000X2.000000*%
%TD*%
%TA.AperFunction,Conductor*%
%ADD20C,0.250000*%
%TD*%
%TA.AperFunction,Conductor*%
%ADD21C,0.200000*%
%TD*%
G04 APERTURE END LIST*
D10*
%TO.P,C5,1*%
%TO.N,Net-(C5-Pad1)*%
X217053349Y-126746000D03*
D11*
%TO.P,C5,2*%
%TO.N,Net-(C5-Pad2)*%
X222053349Y-126746000D03*
%TD*%
D10*
%TO.P,C6,1*%
%TO.N,Net-(C6-Pad1)*%
X212735349Y-101854000D03*
D11*
%TO.P,C6,2*%
%TO.N,Net-(C6-Pad2)*%
X217735349Y-101854000D03*
%TD*%
D10*
%TO.P,C8,1*%
%TO.N,Net-(C8-Pad1)*%
X228092000Y-98160651D03*
D11*
%TO.P,C8,2*%
%TO.N,Net-(C8-Pad2)*%
X228092000Y-93160651D03*
%TD*%
D12*
%TO.P, ,1*%
%TO.N,N/C*%
X254254000Y-82799000D03*
%TD*%
%TO.P, ,1*%
%TO.N,N/C*%
X223774000Y-85217000D03*
%TD*%
%TO.P, ,1*%
%TO.N,N/C*%
X209931000Y-133096000D03*
%TD*%
%TO.P,REF\u002A\u002A,1*%
%TO.N,N/C*%
X165379000Y-150089000D03*
D13*
%TO.P,REF\u002A\u002A,2*%
X167919000Y-150089000D03*
%TO.P,REF\u002A\u002A,3*%
X170459000Y-150089000D03*
%TO.P,REF\u002A\u002A,4*%
X172999000Y-150089000D03*
%TO.P,REF\u002A\u002A,5*%
X175539000Y-150089000D03*
%TO.P,REF\u002A\u002A,6*%
X178079000Y-150089000D03*
%TD*%
D12*
%TO.P, ,1*%
%TO.N,N/C*%
X254254000Y-72639000D03*
%TD*%
%TO.P, ,1*%
%TO.N,N/C*%
X201422000Y-119507000D03*
%TD*%
D11*
%TO.P,R1,1*%
%TO.N,Net-(R1-Pad1)*%
X167132000Y-77978000D03*
D14*
%TO.P,R1,2*%
%TO.N,Net-(R1-Pad2)*%
X167132000Y-93218000D03*
%TD*%
D12*
%TO.P, ,1*%
%TO.N,N/C*%
X232791000Y-148082000D03*
%TD*%
%TO.P, ,1*%
%TO.N,N/C*%
X246507000Y-82804000D03*
%TD*%
%TO.P,REF\u002A\u002A,1*%
%TO.N,N/C*%
X197104000Y-59436000D03*
D13*
%TO.P,REF\u002A\u002A,2*%
X199644000Y-59436000D03*
%TO.P,REF\u002A\u002A,3*%
X202184000Y-59436000D03*
%TO.P,REF\u002A\u002A,4*%
X204724000Y-59436000D03*
%TO.P,REF\u002A\u002A,5*%
X207264000Y-59436000D03*
%TO.P,REF\u002A\u002A,6*%
X209804000Y-59436000D03*
%TD*%
D12*
%TO.P, ,1*%
%TO.N,N/C*%
X213614000Y-89555000D03*
%TD*%
%TO.P,REF\u002A\u002A,1*%
%TO.N,N/C*%
X175514000Y-140415500D03*
D13*
%TO.P,REF\u002A\u002A,2*%
X178054000Y-140415500D03*
%TO.P,REF\u002A\u002A,3*%
X180594000Y-140415500D03*
%TO.P,REF\u002A\u002A,4*%
X183134000Y-140415500D03*
%TO.P,REF\u002A\u002A,5*%
X185674000Y-140415500D03*
%TO.P,REF\u002A\u002A,6*%
X188214000Y-140415500D03*
%TO.P,REF\u002A\u002A,7*%
X190754000Y-140415500D03*
%TD*%
D10*
%TO.P,U3,1,~{RESET}/PB5*%
%TO.N,Net-(R9-Pad1)*%
X196860000Y-71638000D03*
D14*
%TO.P,U3,2,PB3*%
%TO.N,Net-(D2-Pad2)*%
X196860000Y-74178000D03*
%TO.P,U3,3,PB4*%
%TO.N,Net-(C2-Pad1)*%
X196860000Y-76718000D03*
%TO.P,U3,4,GND*%
%TO.N,Earth*%
X196860000Y-79258000D03*
%TO.P,U3,5,PB0*%
%TO.N,Net-(C4-Pad2)*%
X204480000Y-79258000D03*
%TO.P,U3,6,PB1*%
%TO.N,unconnected-(U3-Pad6)*%
X204480000Y-76718000D03*
%TO.P,U3,7,PB2*%
%TO.N,unconnected-(U3-Pad7)*%
X204480000Y-74178000D03*
%TO.P,U3,8,VCC*%
%TO.N,+5V*%
X204480000Y-71638000D03*
%TD*%
D11*
%TO.P,R9,1*%
%TO.N,Net-(R9-Pad1)*%
X201422000Y-101092000D03*
D14*
%TO.P,R9,2*%
%TO.N,Net-(C6-Pad1)*%
X201422000Y-116332000D03*
%TD*%
D12*
%TO.P,REF\u002A\u002A,1*%
%TO.N,N/C*%
X232537000Y-70104000D03*
D13*
%TO.P,REF\u002A\u002A,2*%
X232537000Y-72644000D03*
%TO.P,REF\u002A\u002A,3*%
X232537000Y-75184000D03*
%TD*%
D12*
%TO.P, ,1*%
%TO.N,N/C*%
X207645000Y-71628000D03*
%TD*%
%TO.P, ,1*%
%TO.N,N/C*%
X235585000Y-113665000D03*
%TD*%
%TO.P, ,1*%
%TO.N,N/C*%
X171450000Y-99187000D03*
%TD*%
%TO.P, ,1*%
%TO.N,N/C*%
X230378000Y-129540000D03*
%TD*%
%TO.P,REF\u002A\u002A,1*%
%TO.N,N/C*%
X209931000Y-138176000D03*
D13*
%TO.P,REF\u002A\u002A,2*%
X209931000Y-140716000D03*
%TD*%
D15*
%TO.P,RESET,1*%
%TO.N,N/C*%
X258282000Y-126036000D03*
X258282000Y-132536000D03*
%TO.P,RESET,2*%
X253782000Y-126036000D03*
X253782000Y-132536000D03*
%TD*%
D12*
%TO.P, ,1*%
%TO.N,N/C*%
X229743000Y-117602000D03*
%TD*%
D16*
%TO.P,LED,1*%
%TO.N,N/C*%
X240030000Y-129545000D03*
D17*
%TO.P,LED,2*%
X240030000Y-127005000D03*
%TD*%
D12*
%TO.P,REF\u002A\u002A,1*%
%TO.N,N/C*%
X215773000Y-109982000D03*
D13*
%TO.P,REF\u002A\u002A,2*%
X215773000Y-112522000D03*
%TO.P,REF\u002A\u002A,3*%
X215773000Y-115062000D03*
%TO.P,REF\u002A\u002A,4*%
X215773000Y-117602000D03*
%TD*%
D12*
%TO.P, ,1*%
%TO.N,N/C*%
X230378000Y-139700000D03*
%TD*%
%TO.P, ,1*%
%TO.N,N/C*%
X198374000Y-140415500D03*
%TD*%
D10*
%TO.P,U5,1,VCC*%
%TO.N,+5V*%
X243322000Y-82809000D03*
D14*
%TO.P,U5,2,XTAL1/PB0*%
%TO.N,unconnected-(U5-Pad2)*%
X243322000Y-80269000D03*
%TO.P,U5,3,XTAL2/PB1*%
%TO.N,Net-(R11-Pad1)*%
X243322000Y-77729000D03*
%TO.P,U5,4,~{RESET}/PB3*%
%TO.N,Net-(C8-Pad2)*%
X243322000Y-75189000D03*
%TO.P,U5,5,PB2*%
%TO.N,unconnected-(U5-Pad5)*%
X243322000Y-72649000D03*
%TO.P,U5,6,PA7*%
%TO.N,Net-(D4-Pad1)*%
X243322000Y-70109000D03*
%TO.P,U5,7,PA6*%
%TO.N,unconnected-(U5-Pad7)*%
X243322000Y-67569000D03*
%TO.P,U5,8,PA5*%
%TO.N,unconnected-(U5-Pad8)*%
X235702000Y-67569000D03*
%TO.P,U5,9,PA4*%
%TO.N,Net-(R10-Pad2)*%
X235702000Y-70109000D03*
%TO.P,U5,10,PA3*%
%TO.N,Net-(R10-Pad1)*%
X235702000Y-72649000D03*
%TO.P,U5,11,PA2*%
%TO.N,Net-(C4-Pad1)*%
X235702000Y-75189000D03*
%TO.P,U5,12,PA1*%
%TO.N,unconnected-(U5-Pad12)*%
X235702000Y-77729000D03*
%TO.P,U5,13,AREF/PA0*%
%TO.N,Net-(D2-Pad1)*%
X235702000Y-80269000D03*
%TO.P,U5,14,GND*%
%TO.N,Earth*%
X235702000Y-82809000D03*
%TD*%
D11*
%TO.P,R3,1*%
%TO.N,Net-(R3-Pad1)*%
X201930000Y-147828000D03*
D14*
%TO.P,R3,2*%
%TO.N,Net-(D1-Pad2)*%
X186690000Y-147828000D03*
%TD*%
D12*
%TO.P, ,1*%
%TO.N,N/C*%
X185039000Y-71882000D03*
%TD*%
%TO.P, ,1*%
%TO.N,N/C*%
X200914000Y-126445500D03*
%TD*%
D11*
%TO.P,R7,1*%
%TO.N,Net-(R5-Pad2)*%
X199644000Y-93218000D03*
D14*
%TO.P,R7,2*%
%TO.N,Net-(R7-Pad2)*%
X214884000Y-93218000D03*
%TD*%
D18*
%TO.P,REF\u002A\u002A,1*%
%TO.N,N/C*%
X193675000Y-71628000D03*
D13*
%TO.P,REF\u002A\u002A,2*%
X193675000Y-74168000D03*
%TO.P,REF\u002A\u002A,3*%
X193675000Y-76708000D03*
%TO.P,REF\u002A\u002A,4*%
X193675000Y-79248000D03*
%TD*%
D12*
%TO.P, ,1*%
%TO.N,N/C*%
X228092000Y-101854000D03*
%TD*%
D10*
%TO.P,U2,1,~{RESET}*%
%TO.N,unconnected-(U2-Pad1)*%
X167904000Y-137230500D03*
D14*
%TO.P,U2,2,PD0*%
%TO.N,Net-(C2-Pad2)*%
X170444000Y-137230500D03*
%TO.P,U2,3,PD1*%
%TO.N,unconnected-(U2-Pad3)*%
X172984000Y-137230500D03*
%TO.P,U2,4,PD2*%
%TO.N,Net-(R6-Pad2)*%
X175524000Y-137230500D03*
%TO.P,U2,5,PD3*%
%TO.N,Net-(C3-Pad2)*%
X178064000Y-137230500D03*
%TO.P,U2,6,PD4*%
%TO.N,Net-(D4-Pad2)*%
X180604000Y-137230500D03*
%TO.P,U2,7,VCC*%
%TO.N,+5V*%
X183144000Y-137230500D03*
%TO.P,U2,8,GND*%
%TO.N,Earth*%
X185684000Y-137230500D03*
%TO.P,U2,9,XTAL1*%
%TO.N,Net-(D1-Pad1)*%
X188224000Y-137230500D03*
%TO.P,U2,10,XTAL2*%
%TO.N,Net-(R3-Pad1)*%
X190764000Y-137230500D03*
%TO.P,U2,11,PD5*%
%TO.N,unconnected-(U2-Pad11)*%
X193304000Y-137230500D03*
%TO.P,U2,12,PD6*%
%TO.N,unconnected-(U2-Pad12)*%
X195844000Y-137230500D03*
%TO.P,U2,13,PD7*%
%TO.N,Net-(R8-Pad1)*%
X198384000Y-137230500D03*
%TO.P,U2,14,PB0*%
%TO.N,unconnected-(U2-Pad14)*%
X200924000Y-137230500D03*
%TO.P,U2,15,PB1*%
%TO.N,Net-(R4-Pad2)*%
X200924000Y-129610500D03*
%TO.P,U2,16,PB2*%
%TO.N,unconnected-(U2-Pad16)*%
X198384000Y-129610500D03*
%TO.P,U2,17,PB3*%
%TO.N,unconnected-(U2-Pad17)*%
X195844000Y-129610500D03*
%TO.P,U2,18,PB4*%
%TO.N,unconnected-(U2-Pad18)*%
X193304000Y-129610500D03*
%TO.P,U2,19,PB5*%
%TO.N,unconnected-(U2-Pad19)*%
X190764000Y-129610500D03*
%TO.P,U2,20,VCC*%
%TO.N,+5V*%
X188224000Y-129610500D03*
%TO.P,U2,21,NC*%
%TO.N,unconnected-(U2-Pad21)*%
X185684000Y-129610500D03*
%TO.P,U2,22,GND*%
%TO.N,Earth*%
X183144000Y-129610500D03*
%TO.P,U2,23,PB6*%
%TO.N,Net-(C1-Pad2)*%
X180604000Y-129610500D03*
%TO.P,U2,24,PB7*%
%TO.N,unconnected-(U2-Pad24)*%
X178064000Y-129610500D03*
%TO.P,U2,25,PA2*%
%TO.N,Net-(R2-Pad1)*%
X175524000Y-129610500D03*
%TO.P,U2,26,PA3*%
%TO.N,unconnected-(U2-Pad26)*%
X172984000Y-129610500D03*
%TO.P,U2,27,PA1*%
%TO.N,Net-(R1-Pad2)*%
X170444000Y-129610500D03*
%TO.P,U2,28,PA0*%
%TO.N,Net-(D1-Pad1)*%
X167904000Y-129610500D03*
%TD*%
D12*
%TO.P, ,1*%
%TO.N,N/C*%
X167132000Y-74803000D03*
%TD*%
D16*
%TO.P,D3,1,K*%
%TO.N,Net-(D3-Pad1)*%
X230378000Y-133350000D03*
D17*
%TO.P,D3,2,A*%
%TO.N,Net-(D3-Pad2)*%
X230378000Y-135890000D03*
%TD*%
D12*
%TO.P, ,1*%
%TO.N,N/C*%
X184912000Y-85344000D03*
%TD*%
%TO.P, ,1*%
%TO.N,N/C*%
X201422000Y-97917000D03*
%TD*%
%TO.P, ,1*%
%TO.N,N/C*%
X218059000Y-93218000D03*
%TD*%
%TO.P,REF\u002A\u002A,1*%
%TO.N,N/C*%
X232562000Y-80284000D03*
D13*
%TO.P,REF\u002A\u002A,2*%
X232562000Y-82824000D03*
%TD*%
D12*
%TO.P, ,1*%
%TO.N,N/C*%
X221488000Y-101854000D03*
%TD*%
%TO.P, ,1*%
%TO.N,N/C*%
X175514000Y-126445500D03*
%TD*%
D13*
%TO.P,REF\u002A\u002A,2*%
%TO.N,N/C*%
X171069000Y-64262000D03*
%TO.P,REF\u002A\u002A,3*%
X171069000Y-66802000D03*
%TO.P,REF\u002A\u002A,4*%
X171069000Y-69342000D03*
D12*
%TO.P,REF\u002A\u002A,``*%
X171069000Y-61722000D03*
%TD*%
%TO.P, ,1*%
%TO.N,N/C*%
X179959000Y-84963000D03*
%TD*%
%TO.P, ,1*%
%TO.N,N/C*%
X188341000Y-77470000D03*
%TD*%
%TO.P, ,1*%
%TO.N,N/C*%
X207645000Y-79248000D03*
%TD*%
D11*
%TO.P,R4,1*%
%TO.N,Net-(C1-Pad1)*%
X193802000Y-115316000D03*
D14*
%TO.P,R4,2*%
%TO.N,Net-(R4-Pad2)*%
X193802000Y-100076000D03*
%TD*%
D12*
%TO.P, ,1*%
%TO.N,N/C*%
X171450000Y-77597000D03*
%TD*%
%TO.P,REF\u002A\u002A,1*%
%TO.N,N/C*%
X223901000Y-133096000D03*
D13*
%TO.P,REF\u002A\u002A,2*%
X223901000Y-135636000D03*
%TO.P,REF\u002A\u002A,3*%
X223901000Y-138176000D03*
%TO.P,REF\u002A\u002A,4*%
X223901000Y-140716000D03*
%TD*%
D11*
%TO.P,C1,1*%
%TO.N,Net-(C1-Pad1)*%
X179959000Y-88138000D03*
%TO.P,C1,2*%
%TO.N,Net-(C1-Pad2)*%
X179959000Y-90638000D03*
%TD*%
D12*
%TO.P, ,1*%
%TO.N,N/C*%
X167132000Y-96393000D03*
%TD*%
D11*
%TO.P,C2,1*%
%TO.N,Net-(C2-Pad1)*%
X188468000Y-107970000D03*
%TO.P,C2,2*%
%TO.N,Net-(C2-Pad2)*%
X188468000Y-110470000D03*
%TD*%
%TO.P,C4,1*%
%TO.N,Net-(C4-Pad1)*%
X213614000Y-83840000D03*
%TO.P,C4,2*%
%TO.N,Net-(C4-Pad2)*%
X213614000Y-86340000D03*
%TD*%
D12*
%TO.P, ,1*%
%TO.N,N/C*%
X246507000Y-70104000D03*
%TD*%
%TO.P, ,1*%
%TO.N,N/C*%
X215392000Y-76708000D03*
%TD*%
%TO.P, ,1*%
%TO.N,N/C*%
X225806000Y-126492000D03*
%TD*%
%TO.P, ,1*%
%TO.N,N/C*%
X228092000Y-89408000D03*
%TD*%
%TO.P, ,1*%
%TO.N,N/C*%
X193802000Y-96901000D03*
%TD*%
%TO.P, ,1*%
%TO.N,N/C*%
X211201000Y-148082000D03*
%TD*%
%TO.P, ,1*%
%TO.N,N/C*%
X223774000Y-63627000D03*
%TD*%
D11*
%TO.P,R (LED),1*%
%TO.N,N/C*%
X248920000Y-135382000D03*
D14*
%TO.P,R (LED),2*%
X238760000Y-135382000D03*
%TD*%
D12*
%TO.P, ,1*%
%TO.N,N/C*%
X193802000Y-118491000D03*
%TD*%
%TO.P, ,1*%
%TO.N,N/C*%
X188468000Y-104795000D03*
%TD*%
%TO.P, ,1*%
%TO.N,N/C*%
X206502000Y-85344000D03*
%TD*%
D16*
%TO.P,D4,1,K*%
%TO.N,Net-(D4-Pad1)*%
X254254000Y-76449000D03*
D17*
%TO.P,D4,2,A*%
%TO.N,Net-(D4-Pad2)*%
X254254000Y-78989000D03*
%TD*%
D12*
%TO.P, ,1*%
%TO.N,N/C*%
X213106000Y-126861500D03*
%TD*%
%TO.P, ,1*%
%TO.N,N/C*%
X196469000Y-93218000D03*
%TD*%
D10*
%TO.P,REF\u002A\u002A,1*%
%TO.N,N/C*%
X251470000Y-114300000D03*
D14*
%TO.P,REF\u002A\u002A,2*%
X251470000Y-116840000D03*
%TO.P,REF\u002A\u002A,3*%
X251470000Y-119380000D03*
%TO.P,REF\u002A\u002A,4*%
X251470000Y-121920000D03*
%TO.P,REF\u002A\u002A,5*%
X259090000Y-121920000D03*
%TO.P,REF\u002A\u002A,6*%
X259090000Y-119380000D03*
%TO.P,REF\u002A\u002A,7*%
X259090000Y-116840000D03*
%TO.P,REF\u002A\u002A,8*%
X259090000Y-114300000D03*
%TD*%
D16*
%TO.P,D2,1,K*%
%TO.N,Net-(D2-Pad1)*%
X215392000Y-70358000D03*
D17*
%TO.P,D2,2,A*%
%TO.N,Net-(D2-Pad2)*%
X215392000Y-72898000D03*
%TD*%
D11*
%TO.P,R11,1*%
%TO.N,Net-(R11-Pad1)*%
X235585000Y-95250000D03*
D14*
%TO.P,R11,2*%
%TO.N,Net-(R11-Pad2)*%
X235585000Y-110490000D03*
%TD*%
D12*
%TO.P, ,1*%
%TO.N,N/C*%
X170434000Y-140415500D03*
%TD*%
%TO.P,REF\u002A\u002A,1*%
%TO.N,N/C*%
X167914000Y-126420500D03*
D13*
%TO.P,REF\u002A\u002A,2*%
X170454000Y-126420500D03*
%TD*%
D12*
%TO.P, ,1*%
%TO.N,N/C*%
X205105000Y-147828000D03*
%TD*%
D10*
%TO.P,U6,1,~{RESET}/PB5*%
%TO.N,Net-(C6-Pad2)*%
X218958000Y-109992000D03*
D14*
%TO.P,U6,2,XTAL1/PB3*%
%TO.N,Net-(C8-Pad1)*%
X218958000Y-112532000D03*
%TO.P,U6,3,XTAL2/PB4*%
%TO.N,Net-(U4-Pad1)*%
X218958000Y-115072000D03*
%TO.P,U6,4,GND*%
%TO.N,Earth*%
X218958000Y-117612000D03*
%TO.P,U6,5,AREF/PB0*%
%TO.N,Net-(R11-Pad2)*%
X226578000Y-117612000D03*
%TO.P,U6,6,PB1*%
%TO.N,unconnected-(U6-Pad6)*%
X226578000Y-115072000D03*
%TO.P,U6,7,PB2*%
%TO.N,Net-(C5-Pad2)*%
X226578000Y-112532000D03*
%TO.P,U6,8,VCC*%
%TO.N,+5V*%
X226578000Y-109992000D03*
%TD*%
D12*
%TO.P, ,1*%
%TO.N,N/C*%
X183515000Y-147828000D03*
%TD*%
D11*
%TO.P,C3,1*%
%TO.N,Net-(C3-Pad1)*%
X185146000Y-77470000D03*
%TO.P,C3,2*%
%TO.N,Net-(C3-Pad2)*%
X182646000Y-77470000D03*
%TD*%
D12*
%TO.P, ,1*%
%TO.N,N/C*%
X188468000Y-113685000D03*
%TD*%
D13*
%TO.P,REF\u002A\u002A,1*%
%TO.N,N/C*%
X185039000Y-56642000D03*
%TO.P,REF\u002A\u002A,2*%
X185039000Y-59182000D03*
%TD*%
D12*
%TO.P, ,1*%
%TO.N,N/C*%
X169164000Y-103627000D03*
%TD*%
%TO.P, ,1*%
%TO.N,N/C*%
X167894000Y-122635500D03*
%TD*%
%TO.P, ,1*%
%TO.N,N/C*%
X235585000Y-92075000D03*
%TD*%
%TO.P,REF\u002A\u002A,1*%
%TO.N,N/C*%
X229743000Y-109982000D03*
D13*
%TO.P,REF\u002A\u002A,2*%
X229743000Y-112522000D03*
%TD*%
D12*
%TO.P, ,1*%
%TO.N,N/C*%
X179959000Y-93853000D03*
%TD*%
%TO.P, ,1*%
%TO.N,N/C*%
X181356000Y-98171000D03*
%TD*%
%TO.P, ,1*%
%TO.N,N/C*%
X209042000Y-102108000D03*
%TD*%
D11*
%TO.P,R2,1*%
%TO.N,Net-(R2-Pad1)*%
X171450000Y-96012000D03*
D14*
%TO.P,R2,2*%
%TO.N,Net-(C1-Pad1)*%
X171450000Y-80772000D03*
%TD*%
D12*
%TO.P,REF\u002A\u002A,1*%
%TO.N,N/C*%
X164846000Y-66777000D03*
D13*
%TO.P,REF\u002A\u002A,2*%
X167386000Y-66777000D03*
%TD*%
D12*
%TO.P, ,1*%
%TO.N,N/C*%
X179451000Y-77470000D03*
%TD*%
D11*
%TO.P,R6,1*%
%TO.N,Net-(R6-Pad1)*%
X181356000Y-101346000D03*
D14*
%TO.P,R6,2*%
%TO.N,Net-(R6-Pad2)*%
X181356000Y-116586000D03*
%TD*%
D19*
%TO.P,PIEZO,1*%
%TO.N,N/C*%
X246634000Y-145288000D03*
D15*
%TO.P,PIEZO,2*%
X241634000Y-145288000D03*
%TD*%
D12*
%TO.P, ,1*%
%TO.N,N/C*%
X180848000Y-126572500D03*
%TD*%
D11*
%TO.P,R5,1*%
%TO.N,Net-(R5-Pad1)*%
X188087000Y-85344000D03*
D14*
%TO.P,R5,2*%
%TO.N,Net-(R5-Pad2)*%
X203327000Y-85344000D03*
%TD*%
D10*
%TO.P,U4,1,~{RESET}/PB5*%
%TO.N,Net-(U4-Pad1)*%
X213116000Y-133106000D03*
D14*
%TO.P,U4,2,XTAL1/PB3*%
%TO.N,unconnected-(U4-Pad2)*%
X213116000Y-135646000D03*
%TO.P,U4,3,XTAL2/PB4*%
%TO.N,Net-(C5-Pad1)*%
X213116000Y-138186000D03*
%TO.P,U4,4,GND*%
%TO.N,Earth*%
X213116000Y-140726000D03*
%TO.P,U4,5,AREF/PB0*%
%TO.N,Net-(R7-Pad2)*%
X220736000Y-140726000D03*
%TO.P,U4,6,PB1*%
%TO.N,Net-(D3-Pad2)*%
X220736000Y-138186000D03*
%TO.P,U4,7,PB2*%
%TO.N,Net-(R8-Pad2)*%
X220736000Y-135646000D03*
%TO.P,U4,8,VCC*%
%TO.N,+5V*%
X220736000Y-133106000D03*
%TD*%
D12*
%TO.P, ,1*%
%TO.N,N/C*%
X215392000Y-66548000D03*
%TD*%
D11*
%TO.P,R (PIEZO),1*%
%TO.N,N/C*%
X260858000Y-140462000D03*
D14*
%TO.P,R (PIEZO),2*%
X250698000Y-140462000D03*
%TD*%
D16*
%TO.P,D1,1,K*%
%TO.N,Net-(D1-Pad1)*%
X169164000Y-107437000D03*
D17*
%TO.P,D1,2,A*%
%TO.N,Net-(D1-Pad2)*%
X169164000Y-109977000D03*
%TD*%
D11*
%TO.P,R10,1*%
%TO.N,Net-(R10-Pad1)*%
X223774000Y-82042000D03*
D14*
%TO.P,R10,2*%
%TO.N,Net-(R10-Pad2)*%
X223774000Y-66802000D03*
%TD*%
D12*
%TO.P, ,1*%
%TO.N,N/C*%
X169164000Y-113787000D03*
%TD*%
%TO.P,REF\u002A\u002A,1*%
%TO.N,N/C*%
X246507000Y-75204000D03*
D13*
%TO.P,REF\u002A\u002A,2*%
X246507000Y-77744000D03*
%TD*%
D12*
%TO.P, ,1*%
%TO.N,N/C*%
X213614000Y-80665000D03*
%TD*%
D11*
%TO.P,R8,1*%
%TO.N,Net-(R8-Pad1)*%
X214376000Y-148082000D03*
D14*
%TO.P,R8,2*%
%TO.N,Net-(R8-Pad2)*%
X229616000Y-148082000D03*
%TD*%
D12*
%TO.P, ,1*%
%TO.N,N/C*%
X181356000Y-119761000D03*
%TD*%
D10*
%TO.P,U1,1,VCC*%
%TO.N,+5V*%
X174254000Y-56637000D03*
D14*
%TO.P,U1,2,XTAL1/PB0*%
%TO.N,unconnected-(U1-Pad2)*%
X174254000Y-59177000D03*
%TO.P,U1,3,XTAL2/PB1*%
%TO.N,Net-(R6-Pad1)*%
X174254000Y-61717000D03*
%TO.P,U1,4,~{RESET}/PB3*%
%TO.N,Net-(R1-Pad1)*%
X174254000Y-64257000D03*
%TO.P,U1,5,PB2*%
%TO.N,Net-(C1-Pad1)*%
X174254000Y-66797000D03*
%TO.P,U1,6,PA7*%
%TO.N,Net-(R5-Pad1)*%
X174254000Y-69337000D03*
%TO.P,U1,7,PA6*%
%TO.N,unconnected-(U1-Pad7)*%
X174254000Y-71877000D03*
%TO.P,U1,8,PA5*%
%TO.N,Net-(D3-Pad1)*%
X181874000Y-71877000D03*
%TO.P,U1,9,PA4*%
%TO.N,unconnected-(U1-Pad9)*%
X181874000Y-69337000D03*
%TO.P,U1,10,PA3*%
%TO.N,unconnected-(U1-Pad10)*%
X181874000Y-66797000D03*
%TO.P,U1,11,PA2*%
%TO.N,unconnected-(U1-Pad11)*%
X181874000Y-64257000D03*
%TO.P,U1,12,PA1*%
%TO.N,unconnected-(U1-Pad12)*%
X181874000Y-61717000D03*
%TO.P,U1,13,AREF/PA0*%
%TO.N,Net-(C3-Pad1)*%
X181874000Y-59177000D03*
%TO.P,U1,14,GND*%
%TO.N,Earth*%
X181874000Y-56637000D03*
%TD*%
D13*
%TO.P, ,1*%
%TO.N,N/C*%
X171069000Y-56642000D03*
%TD*%
D18*
%TO.P,REF\u002A\u002A,1*%
%TO.N,N/C*%
X245740000Y-129540000D03*
D13*
%TO.P,REF\u002A\u002A,2*%
X248280000Y-129540000D03*
%TO.P,REF\u002A\u002A,3*%
X245740000Y-127000000D03*
%TO.P,REF\u002A\u002A,4*%
X248280000Y-127000000D03*
%TO.P,REF\u002A\u002A,5*%
X245740000Y-124460000D03*
%TO.P,REF\u002A\u002A,6*%
X248280000Y-124460000D03*
%TO.P,REF\u002A\u002A,7*%
X245740000Y-121920000D03*
%TO.P,REF\u002A\u002A,8*%
X248280000Y-121920000D03*
%TO.P,REF\u002A\u002A,9*%
X245740000Y-119380000D03*
%TO.P,REF\u002A\u002A,10*%
X248280000Y-119380000D03*
%TO.P,REF\u002A\u002A,11*%
X245740000Y-116840000D03*
%TO.P,REF\u002A\u002A,12*%
X248280000Y-116840000D03*
%TO.P,REF\u002A\u002A,13*%
X245740000Y-114300000D03*
%TO.P,REF\u002A\u002A,14*%
X248280000Y-114300000D03*
%TO.P,REF\u002A\u002A,15*%
X245740000Y-111760000D03*
%TO.P,REF\u002A\u002A,16*%
X248280000Y-111760000D03*
%TO.P,REF\u002A\u002A,17*%
X245740000Y-109220000D03*
%TO.P,REF\u002A\u002A,18*%
X248280000Y-109220000D03*
%TO.P,REF\u002A\u002A,19*%
X245740000Y-106680000D03*
%TO.P,REF\u002A\u002A,20*%
X248280000Y-106680000D03*
%TO.P,REF\u002A\u002A,21*%
X245740000Y-104140000D03*
%TO.P,REF\u002A\u002A,22*%
X248280000Y-104140000D03*
%TO.P,REF\u002A\u002A,23*%
X245740000Y-101600000D03*
%TO.P,REF\u002A\u002A,24*%
X248280000Y-101600000D03*
%TO.P,REF\u002A\u002A,25*%
X245740000Y-99060000D03*
%TO.P,REF\u002A\u002A,26*%
X248280000Y-99060000D03*
%TO.P,REF\u002A\u002A,27*%
X245740000Y-96520000D03*
%TO.P,REF\u002A\u002A,28*%
X248280000Y-96520000D03*
%TO.P,REF\u002A\u002A,29*%
X245740000Y-93980000D03*
%TO.P,REF\u002A\u002A,30*%
X248280000Y-93980000D03*
%TD*%
D20*
%TO.N,*%
X249936000Y-120396000D02*
X249682000Y-120650000D01*
D21*
X249809000Y-149225000D02*
X251714000Y-147320000D01*
X178054000Y-140415500D02*
X178054000Y-141732000D01*
X255436000Y-135382000D02*
X258282000Y-132536000D01*
D20*
X249936000Y-118364000D02*
X249936000Y-120396000D01*
D21*
X208534000Y-112522000D02*
X208534000Y-117602000D01*
X203390500Y-151193500D02*
X247840500Y-151193500D01*
D20*
X249682000Y-120650000D02*
X246888000Y-120650000D01*
X246888000Y-120650000D02*
X245740000Y-121798000D01*
D21*
X215773000Y-109982000D02*
X211074000Y-109982000D01*
X247840500Y-151193500D02*
X249809000Y-149225000D01*
X258282000Y-132536000D02*
X258282000Y-126036000D01*
X215392000Y-55118000D02*
X191008000Y-55118000D01*
X165608000Y-107183000D02*
X169164000Y-103627000D01*
D20*
X251470000Y-121920000D02*
X251470000Y-123688000D01*
D21*
X258282000Y-126036000D02*
X258282000Y-122728000D01*
X187007500Y-151193500D02*
X203390500Y-151193500D01*
X186880500Y-151193500D02*
X183515000Y-147828000D01*
X237236000Y-92075000D02*
X246507000Y-82804000D01*
X251714000Y-147320000D02*
X258572000Y-140462000D01*
D20*
X251470000Y-123688000D02*
X249682000Y-125476000D01*
D21*
X233426000Y-65278000D02*
X244856000Y-65278000D01*
X246507000Y-66929000D02*
X246507000Y-70104000D01*
X260866000Y-135120000D02*
X258282000Y-132536000D01*
X260858000Y-140462000D02*
X260858000Y-135128000D01*
X215392000Y-66548000D02*
X215392000Y-55118000D01*
X200914000Y-126445500D02*
X203407500Y-126445500D01*
X244856000Y-65278000D02*
X246507000Y-66929000D01*
D20*
X249682000Y-125476000D02*
X246761000Y-125476000D01*
D21*
X218059000Y-94869000D02*
X218059000Y-93218000D01*
X258318000Y-55118000D02*
X259080000Y-55880000D01*
X196469000Y-93218000D02*
X196469000Y-94869000D01*
X232537000Y-70104000D02*
X232537000Y-66167000D01*
X187007500Y-151193500D02*
X186880500Y-151193500D01*
D20*
X179451000Y-79883000D02*
X179451000Y-77470000D01*
X246761000Y-125476000D02*
X245740000Y-124455000D01*
D21*
X189484000Y-76327000D02*
X188341000Y-77470000D01*
X259080000Y-102870000D02*
X259090000Y-102880000D01*
X168148000Y-142494000D02*
X165608000Y-139954000D01*
X258282000Y-122728000D02*
X259090000Y-121920000D01*
X217424000Y-95504000D02*
X218059000Y-94869000D01*
X211074000Y-109982000D02*
X208534000Y-112522000D01*
X259080000Y-55880000D02*
X259080000Y-102870000D01*
X203407500Y-126445500D02*
X203454000Y-126492000D01*
X165608000Y-139954000D02*
X165608000Y-107183000D01*
X258572000Y-140462000D02*
X260858000Y-140462000D01*
X196469000Y-94869000D02*
X197104000Y-95504000D01*
X215773000Y-117602000D02*
X208534000Y-117602000D01*
X203390500Y-151193500D02*
X203454000Y-151130000D01*
X208534000Y-117602000D02*
X203454000Y-122682000D01*
X248920000Y-135382000D02*
X255436000Y-135382000D01*
X235585000Y-92075000D02*
X237236000Y-92075000D01*
X259090000Y-121920000D02*
X259090000Y-116840000D01*
X197104000Y-95504000D02*
X217424000Y-95504000D01*
X177292000Y-142494000D02*
X168148000Y-142494000D01*
X189484000Y-56642000D02*
X189484000Y-76327000D01*
D20*
X251445000Y-116855000D02*
X249936000Y-118364000D01*
D21*
X203454000Y-122682000D02*
X203454000Y-126492000D01*
X178054000Y-141732000D02*
X177292000Y-142494000D01*
X260858000Y-135128000D02*
X260866000Y-135120000D01*
X203454000Y-126492000D02*
X203454000Y-151130000D01*
X215392000Y-55118000D02*
X258318000Y-55118000D01*
D20*
X245740000Y-121798000D02*
X245740000Y-121915000D01*
X184912000Y-85344000D02*
X179451000Y-79883000D01*
D21*
X232537000Y-66167000D02*
X233426000Y-65278000D01*
D20*
X251470000Y-116855000D02*
X251445000Y-116855000D01*
D21*
X191008000Y-55118000D02*
X189484000Y-56642000D01*
X259090000Y-102880000D02*
X259090000Y-116855000D01*
%TD*%
M02*
