M48
; DRILL file {KiCad (6.0.5)} date Mon Jun 20 20:34:07 2022
; FORMAT={-:-/ absolute / metric / decimal}
; #@! TF.CreationDate,2022-06-20T20:34:07+02:00
; #@! TF.GenerationSoftware,Kicad,Pcbnew,(6.0.5)
; #@! TF.FileFunction,Plated,1,2,PTH
FMAT,2
METRIC
; #@! TA.AperFunction,Plated,PTH,ComponentDrill
T1C0.800
; #@! TA.AperFunction,Plated,PTH,ComponentDrill
T2C0.900
; #@! TA.AperFunction,Plated,PTH,ComponentDrill
T3C1.000
; #@! TA.AperFunction,Plated,PTH,ComponentDrill
T4C1.100
%
G90
G05
T1
X167.132Y-77.978
X167.132Y-93.218
X167.904Y-129.611
X167.904Y-137.231
X170.444Y-129.611
X170.444Y-137.231
X171.45Y-80.772
X171.45Y-96.012
X172.984Y-129.611
X172.984Y-137.231
X174.254Y-56.637
X174.254Y-59.177
X174.254Y-61.717
X174.254Y-64.257
X174.254Y-66.797
X174.254Y-69.337
X174.254Y-71.877
X175.524Y-129.611
X175.524Y-137.231
X178.064Y-129.611
X178.064Y-137.231
X179.959Y-88.138
X179.959Y-90.638
X180.604Y-129.611
X180.604Y-137.231
X181.356Y-101.346
X181.356Y-116.586
X181.874Y-56.637
X181.874Y-59.177
X181.874Y-61.717
X181.874Y-64.257
X181.874Y-66.797
X181.874Y-69.337
X181.874Y-71.877
X182.646Y-77.47
X183.144Y-129.611
X183.144Y-137.231
X185.146Y-77.47
X185.684Y-129.611
X185.684Y-137.231
X186.69Y-147.828
X188.087Y-85.344
X188.224Y-129.611
X188.224Y-137.231
X188.468Y-107.97
X188.468Y-110.47
X190.764Y-129.611
X190.764Y-137.231
X193.304Y-129.611
X193.304Y-137.231
X193.802Y-100.076
X193.802Y-115.316
X195.844Y-129.611
X195.844Y-137.231
X196.86Y-71.638
X196.86Y-74.178
X196.86Y-76.718
X196.86Y-79.258
X198.384Y-129.611
X198.384Y-137.231
X199.644Y-93.218
X200.924Y-129.611
X200.924Y-137.231
X201.422Y-101.092
X201.422Y-116.332
X201.93Y-147.828
X203.327Y-85.344
X204.48Y-71.638
X204.48Y-74.178
X204.48Y-76.718
X204.48Y-79.258
X213.116Y-133.106
X213.116Y-135.646
X213.116Y-138.186
X213.116Y-140.726
X213.614Y-83.84
X213.614Y-86.34
X214.376Y-148.082
X214.884Y-93.218
X215.734Y-101.854
X218.234Y-101.854
X218.958Y-109.992
X218.958Y-112.532
X218.958Y-115.072
X218.958Y-117.612
X219.544Y-126.746
X220.736Y-133.106
X220.736Y-135.646
X220.736Y-138.186
X220.736Y-140.726
X222.044Y-126.746
X223.774Y-66.802
X223.774Y-82.042
X226.578Y-109.992
X226.578Y-112.532
X226.578Y-115.072
X226.578Y-117.612
X228.092Y-93.424
X228.092Y-95.924
X229.616Y-148.082
X235.585Y-95.25
X235.585Y-110.49
X235.702Y-67.569
X235.702Y-70.109
X235.702Y-72.649
X235.702Y-75.189
X235.702Y-77.729
X235.702Y-80.269
X235.702Y-82.809
X238.76Y-135.382
X243.322Y-67.569
X243.322Y-70.109
X243.322Y-72.649
X243.322Y-75.189
X243.322Y-77.729
X243.322Y-80.269
X243.322Y-82.809
X248.92Y-135.382
X250.698Y-140.462
X251.47Y-114.3
X251.47Y-116.84
X251.47Y-119.38
X251.47Y-121.92
X259.09Y-114.3
X259.09Y-116.84
X259.09Y-119.38
X259.09Y-121.92
X260.858Y-140.462
T2
X169.164Y-107.437
X169.164Y-109.977
X215.392Y-70.358
X215.392Y-72.898
X230.378Y-133.35
X230.378Y-135.89
X240.03Y-127.005
X240.03Y-129.545
X254.254Y-76.449
X254.254Y-78.989
T3
X164.846Y-66.777
X165.379Y-150.089
X167.132Y-74.803
X167.132Y-96.393
X167.386Y-66.777
X167.894Y-122.635
X167.914Y-126.42
X167.919Y-150.089
X169.164Y-103.627
X169.164Y-113.787
X170.434Y-140.415
X170.454Y-126.42
X170.459Y-150.089
X171.069Y-56.642
X171.069Y-61.722
X171.069Y-64.262
X171.069Y-66.802
X171.069Y-69.342
X171.45Y-77.597
X171.45Y-99.187
X172.999Y-150.089
X175.514Y-126.445
X175.514Y-140.415
X175.539Y-150.089
X178.054Y-140.415
X178.079Y-150.089
X179.451Y-77.47
X179.959Y-84.963
X179.959Y-93.853
X180.594Y-140.415
X180.848Y-126.572
X181.356Y-98.171
X181.356Y-119.761
X183.134Y-140.415
X183.515Y-147.828
X184.912Y-85.344
X185.039Y-56.642
X185.039Y-59.182
X185.039Y-71.882
X185.674Y-140.415
X188.214Y-140.415
X188.341Y-77.47
X188.468Y-104.795
X188.468Y-113.685
X190.754Y-140.415
X193.675Y-71.628
X193.675Y-74.168
X193.675Y-76.708
X193.675Y-79.248
X193.802Y-96.901
X193.802Y-118.491
X196.469Y-93.218
X197.104Y-59.436
X198.374Y-140.415
X199.644Y-59.436
X200.914Y-126.445
X201.422Y-97.917
X201.422Y-119.507
X202.184Y-59.436
X204.724Y-59.436
X205.105Y-147.828
X206.502Y-85.344
X207.264Y-59.436
X207.645Y-71.628
X207.645Y-79.248
X209.804Y-59.436
X209.931Y-133.096
X209.931Y-138.176
X209.931Y-140.716
X211.201Y-148.082
X211.328Y-101.854
X213.614Y-80.665
X213.614Y-89.555
X215.392Y-66.548
X215.392Y-76.708
X215.392Y-126.861
X215.773Y-109.982
X215.773Y-112.522
X215.773Y-115.062
X215.773Y-117.602
X218.059Y-93.218
X222.25Y-101.6
X223.774Y-63.627
X223.774Y-85.217
X223.901Y-133.096
X223.901Y-135.636
X223.901Y-138.176
X223.901Y-140.716
X226.06Y-126.492
X228.092Y-89.458
X228.092Y-100.076
X229.743Y-109.982
X229.743Y-112.522
X229.743Y-117.602
X230.378Y-129.54
X230.378Y-139.7
X232.537Y-70.104
X232.537Y-72.644
X232.537Y-75.184
X232.562Y-80.284
X232.562Y-82.824
X232.791Y-148.082
X235.585Y-92.075
X235.585Y-113.665
X241.634Y-145.288
X245.74Y-93.98
X245.74Y-96.52
X245.74Y-99.06
X245.74Y-101.6
X245.74Y-104.14
X245.74Y-106.68
X245.74Y-109.22
X245.74Y-111.76
X245.74Y-114.3
X245.74Y-116.84
X245.74Y-119.38
X245.74Y-121.92
X245.74Y-124.46
X245.74Y-127.0
X245.74Y-129.54
X246.507Y-70.104
X246.507Y-75.204
X246.507Y-77.744
X246.507Y-82.804
X246.634Y-145.288
X248.28Y-93.98
X248.28Y-96.52
X248.28Y-99.06
X248.28Y-101.6
X248.28Y-104.14
X248.28Y-106.68
X248.28Y-109.22
X248.28Y-111.76
X248.28Y-114.3
X248.28Y-116.84
X248.28Y-119.38
X248.28Y-121.92
X248.28Y-124.46
X248.28Y-127.0
X248.28Y-129.54
X254.254Y-72.639
X254.254Y-82.799
T4
X253.782Y-126.036
X253.782Y-132.536
X258.282Y-126.036
X258.282Y-132.536
T0
M30
